<?xml version="1.0" encoding="UTF-8" standalone="no"?>
<!-- Generator: Adobe Illustrator 12.0.0, SVG Export Plug-In . SVG Version: 6.00 Build 51448)  -->

<svg
   xmlns:dc="http://purl.org/dc/elements/1.1/"
   xmlns:cc="http://creativecommons.org/ns#"
   xmlns:rdf="http://www.w3.org/1999/02/22-rdf-syntax-ns#"
   xmlns:svg="http://www.w3.org/2000/svg"
   xmlns="http://www.w3.org/2000/svg"
   xmlns:sodipodi="http://sodipodi.sourceforge.net/DTD/sodipodi-0.dtd"
   xmlns:inkscape="http://www.inkscape.org/namespaces/inkscape"
   version="1.1"
   id="Layer_1"
   width="274.077"
   height="516.22589"
   viewBox="0 0 274.07699 516.22589"
   overflow="visible"
   enable-background="new 0 0 595.275 841.89"
   xml:space="preserve"
   inkscape:version="0.48.1 "
   sodipodi:docname="Aorta_no_tags.svg"
   style="overflow:visible"><metadata
   id="metadata2393"><rdf:RDF><cc:Work
       rdf:about=""><dc:format>image/svg+xml</dc:format><dc:type
         rdf:resource="http://purl.org/dc/dcmitype/StillImage" /><dc:title></dc:title></cc:Work></rdf:RDF></metadata><defs
   id="defs2391"><inkscape:perspective
   sodipodi:type="inkscape:persp3d"
   inkscape:vp_x="0 : 420.94501 : 1"
   inkscape:vp_y="0 : 1000 : 0"
   inkscape:vp_z="595.27502 : 420.94501 : 1"
   inkscape:persp3d-origin="297.63751 : 280.63 : 1"
   id="perspective2395" />
	
	
	
	
	
	
	
	
	
	
	
	
	
	
	
	
	
	
	
	
	
	
	
	
	
	
	
	
	
	
	
	
	
	
	
	
	
	
	
	
	
	
	
	
	
	
	
	
	
	
	
	
	
	
	
	
	
	
	
	
	
	
	
	
	
	
	
	
	
	
	
	
	
	
	
	
	
	
	
	
	
	
	
	
	
	
	
	
	
	
	
	
	
	
	
	
	
	
	
	
	
	
	
	
	
	
	
	
	
	
	
	
	
	
	
	
	
	
	
	
	
	
	
	
	
	
	
	
	
	
	
	
	
	
	
	
	
	
	
	
	
	
	
	
	
	
	
	
	
	
	
	
	
	
	
	
	
	
	
	
	
	
<inkscape:perspective
   id="perspective6405"
   inkscape:persp3d-origin="0.5 : 0.33333333 : 1"
   inkscape:vp_z="1 : 0.5 : 1"
   inkscape:vp_y="0 : 1000 : 0"
   inkscape:vp_x="0 : 0.5 : 1"
   sodipodi:type="inkscape:persp3d" /><inkscape:perspective
   id="perspective6405-4"
   inkscape:persp3d-origin="0.5 : 0.33333333 : 1"
   inkscape:vp_z="1 : 0.5 : 1"
   inkscape:vp_y="0 : 1000 : 0"
   inkscape:vp_x="0 : 0.5 : 1"
   sodipodi:type="inkscape:persp3d" /><inkscape:perspective
   id="perspective6405-48"
   inkscape:persp3d-origin="0.5 : 0.33333333 : 1"
   inkscape:vp_z="1 : 0.5 : 1"
   inkscape:vp_y="0 : 1000 : 0"
   inkscape:vp_x="0 : 0.5 : 1"
   sodipodi:type="inkscape:persp3d" /><inkscape:perspective
   id="perspective6405-45"
   inkscape:persp3d-origin="0.5 : 0.33333333 : 1"
   inkscape:vp_z="1 : 0.5 : 1"
   inkscape:vp_y="0 : 1000 : 0"
   inkscape:vp_x="0 : 0.5 : 1"
   sodipodi:type="inkscape:persp3d" /><inkscape:perspective
   id="perspective6405-7"
   inkscape:persp3d-origin="0.5 : 0.33333333 : 1"
   inkscape:vp_z="1 : 0.5 : 1"
   inkscape:vp_y="0 : 1000 : 0"
   inkscape:vp_x="0 : 0.5 : 1"
   sodipodi:type="inkscape:persp3d" /><inkscape:perspective
   id="perspective6405-2"
   inkscape:persp3d-origin="0.5 : 0.33333333 : 1"
   inkscape:vp_z="1 : 0.5 : 1"
   inkscape:vp_y="0 : 1000 : 0"
   inkscape:vp_x="0 : 0.5 : 1"
   sodipodi:type="inkscape:persp3d" /><inkscape:perspective
   id="perspective3882"
   inkscape:persp3d-origin="0.5 : 0.33333333 : 1"
   inkscape:vp_z="1 : 0.5 : 1"
   inkscape:vp_y="0 : 1000 : 0"
   inkscape:vp_x="0 : 0.5 : 1"
   sodipodi:type="inkscape:persp3d" /><inkscape:perspective
   id="perspective3882-4"
   inkscape:persp3d-origin="0.5 : 0.33333333 : 1"
   inkscape:vp_z="1 : 0.5 : 1"
   inkscape:vp_y="0 : 1000 : 0"
   inkscape:vp_x="0 : 0.5 : 1"
   sodipodi:type="inkscape:persp3d" /><inkscape:perspective
   id="perspective3882-48"
   inkscape:persp3d-origin="0.5 : 0.33333333 : 1"
   inkscape:vp_z="1 : 0.5 : 1"
   inkscape:vp_y="0 : 1000 : 0"
   inkscape:vp_x="0 : 0.5 : 1"
   sodipodi:type="inkscape:persp3d" /><inkscape:perspective
   id="perspective3882-45"
   inkscape:persp3d-origin="0.5 : 0.33333333 : 1"
   inkscape:vp_z="1 : 0.5 : 1"
   inkscape:vp_y="0 : 1000 : 0"
   inkscape:vp_x="0 : 0.5 : 1"
   sodipodi:type="inkscape:persp3d" /><inkscape:perspective
   id="perspective3882-7"
   inkscape:persp3d-origin="0.5 : 0.33333333 : 1"
   inkscape:vp_z="1 : 0.5 : 1"
   inkscape:vp_y="0 : 1000 : 0"
   inkscape:vp_x="0 : 0.5 : 1"
   sodipodi:type="inkscape:persp3d" /><inkscape:perspective
   id="perspective3882-2"
   inkscape:persp3d-origin="0.5 : 0.33333333 : 1"
   inkscape:vp_z="1 : 0.5 : 1"
   inkscape:vp_y="0 : 1000 : 0"
   inkscape:vp_x="0 : 0.5 : 1"
   sodipodi:type="inkscape:persp3d" /><inkscape:perspective
   id="perspective3882-1"
   inkscape:persp3d-origin="0.5 : 0.33333333 : 1"
   inkscape:vp_z="1 : 0.5 : 1"
   inkscape:vp_y="0 : 1000 : 0"
   inkscape:vp_x="0 : 0.5 : 1"
   sodipodi:type="inkscape:persp3d" /><inkscape:perspective
   id="perspective3882-22"
   inkscape:persp3d-origin="0.5 : 0.33333333 : 1"
   inkscape:vp_z="1 : 0.5 : 1"
   inkscape:vp_y="0 : 1000 : 0"
   inkscape:vp_x="0 : 0.5 : 1"
   sodipodi:type="inkscape:persp3d" /><inkscape:perspective
   id="perspective3882-5"
   inkscape:persp3d-origin="0.5 : 0.33333333 : 1"
   inkscape:vp_z="1 : 0.5 : 1"
   inkscape:vp_y="0 : 1000 : 0"
   inkscape:vp_x="0 : 0.5 : 1"
   sodipodi:type="inkscape:persp3d" /><inkscape:perspective
   id="perspective3882-9"
   inkscape:persp3d-origin="0.5 : 0.33333333 : 1"
   inkscape:vp_z="1 : 0.5 : 1"
   inkscape:vp_y="0 : 1000 : 0"
   inkscape:vp_x="0 : 0.5 : 1"
   sodipodi:type="inkscape:persp3d" /><inkscape:perspective
   id="perspective3882-54"
   inkscape:persp3d-origin="0.5 : 0.33333333 : 1"
   inkscape:vp_z="1 : 0.5 : 1"
   inkscape:vp_y="0 : 1000 : 0"
   inkscape:vp_x="0 : 0.5 : 1"
   sodipodi:type="inkscape:persp3d" /><inkscape:perspective
   id="perspective3882-3"
   inkscape:persp3d-origin="0.5 : 0.33333333 : 1"
   inkscape:vp_z="1 : 0.5 : 1"
   inkscape:vp_y="0 : 1000 : 0"
   inkscape:vp_x="0 : 0.5 : 1"
   sodipodi:type="inkscape:persp3d" /><inkscape:perspective
   id="perspective3882-38"
   inkscape:persp3d-origin="0.5 : 0.33333333 : 1"
   inkscape:vp_z="1 : 0.5 : 1"
   inkscape:vp_y="0 : 1000 : 0"
   inkscape:vp_x="0 : 0.5 : 1"
   sodipodi:type="inkscape:persp3d" /><inkscape:perspective
   id="perspective3882-79"
   inkscape:persp3d-origin="0.5 : 0.33333333 : 1"
   inkscape:vp_z="1 : 0.5 : 1"
   inkscape:vp_y="0 : 1000 : 0"
   inkscape:vp_x="0 : 0.5 : 1"
   sodipodi:type="inkscape:persp3d" /><inkscape:perspective
   id="perspective3882-6"
   inkscape:persp3d-origin="0.5 : 0.33333333 : 1"
   inkscape:vp_z="1 : 0.5 : 1"
   inkscape:vp_y="0 : 1000 : 0"
   inkscape:vp_x="0 : 0.5 : 1"
   sodipodi:type="inkscape:persp3d" /><inkscape:perspective
   id="perspective3882-60"
   inkscape:persp3d-origin="0.5 : 0.33333333 : 1"
   inkscape:vp_z="1 : 0.5 : 1"
   inkscape:vp_y="0 : 1000 : 0"
   inkscape:vp_x="0 : 0.5 : 1"
   sodipodi:type="inkscape:persp3d" /><inkscape:perspective
   id="perspective4072"
   inkscape:persp3d-origin="0.5 : 0.33333333 : 1"
   inkscape:vp_z="1 : 0.5 : 1"
   inkscape:vp_y="0 : 1000 : 0"
   inkscape:vp_x="0 : 0.5 : 1"
   sodipodi:type="inkscape:persp3d" /><inkscape:perspective
   id="perspective4072-9"
   inkscape:persp3d-origin="0.5 : 0.33333333 : 1"
   inkscape:vp_z="1 : 0.5 : 1"
   inkscape:vp_y="0 : 1000 : 0"
   inkscape:vp_x="0 : 0.5 : 1"
   sodipodi:type="inkscape:persp3d" /><inkscape:perspective
   id="perspective4072-1"
   inkscape:persp3d-origin="0.5 : 0.33333333 : 1"
   inkscape:vp_z="1 : 0.5 : 1"
   inkscape:vp_y="0 : 1000 : 0"
   inkscape:vp_x="0 : 0.5 : 1"
   sodipodi:type="inkscape:persp3d" /><inkscape:perspective
   id="perspective4072-93"
   inkscape:persp3d-origin="0.5 : 0.33333333 : 1"
   inkscape:vp_z="1 : 0.5 : 1"
   inkscape:vp_y="0 : 1000 : 0"
   inkscape:vp_x="0 : 0.5 : 1"
   sodipodi:type="inkscape:persp3d" /><inkscape:perspective
   id="perspective4130"
   inkscape:persp3d-origin="0.5 : 0.33333333 : 1"
   inkscape:vp_z="1 : 0.5 : 1"
   inkscape:vp_y="0 : 1000 : 0"
   inkscape:vp_x="0 : 0.5 : 1"
   sodipodi:type="inkscape:persp3d" /><inkscape:perspective
   id="perspective4155"
   inkscape:persp3d-origin="0.5 : 0.33333333 : 1"
   inkscape:vp_z="1 : 0.5 : 1"
   inkscape:vp_y="0 : 1000 : 0"
   inkscape:vp_x="0 : 0.5 : 1"
   sodipodi:type="inkscape:persp3d" /><inkscape:perspective
   id="perspective4180"
   inkscape:persp3d-origin="0.5 : 0.33333333 : 1"
   inkscape:vp_z="1 : 0.5 : 1"
   inkscape:vp_y="0 : 1000 : 0"
   inkscape:vp_x="0 : 0.5 : 1"
   sodipodi:type="inkscape:persp3d" /><inkscape:perspective
   id="perspective4205"
   inkscape:persp3d-origin="0.5 : 0.33333333 : 1"
   inkscape:vp_z="1 : 0.5 : 1"
   inkscape:vp_y="0 : 1000 : 0"
   inkscape:vp_x="0 : 0.5 : 1"
   sodipodi:type="inkscape:persp3d" /><inkscape:perspective
   id="perspective4205-6"
   inkscape:persp3d-origin="0.5 : 0.33333333 : 1"
   inkscape:vp_z="1 : 0.5 : 1"
   inkscape:vp_y="0 : 1000 : 0"
   inkscape:vp_x="0 : 0.5 : 1"
   sodipodi:type="inkscape:persp3d" /><inkscape:perspective
   id="perspective4241"
   inkscape:persp3d-origin="0.5 : 0.33333333 : 1"
   inkscape:vp_z="1 : 0.5 : 1"
   inkscape:vp_y="0 : 1000 : 0"
   inkscape:vp_x="0 : 0.5 : 1"
   sodipodi:type="inkscape:persp3d" /><inkscape:perspective
   id="perspective4241-2"
   inkscape:persp3d-origin="0.5 : 0.33333333 : 1"
   inkscape:vp_z="1 : 0.5 : 1"
   inkscape:vp_y="0 : 1000 : 0"
   inkscape:vp_x="0 : 0.5 : 1"
   sodipodi:type="inkscape:persp3d" /><inkscape:perspective
   id="perspective4277"
   inkscape:persp3d-origin="0.5 : 0.33333333 : 1"
   inkscape:vp_z="1 : 0.5 : 1"
   inkscape:vp_y="0 : 1000 : 0"
   inkscape:vp_x="0 : 0.5 : 1"
   sodipodi:type="inkscape:persp3d" /><inkscape:perspective
   id="perspective4277-9"
   inkscape:persp3d-origin="0.5 : 0.33333333 : 1"
   inkscape:vp_z="1 : 0.5 : 1"
   inkscape:vp_y="0 : 1000 : 0"
   inkscape:vp_x="0 : 0.5 : 1"
   sodipodi:type="inkscape:persp3d" /><inkscape:perspective
   id="perspective4277-0"
   inkscape:persp3d-origin="0.5 : 0.33333333 : 1"
   inkscape:vp_z="1 : 0.5 : 1"
   inkscape:vp_y="0 : 1000 : 0"
   inkscape:vp_x="0 : 0.5 : 1"
   sodipodi:type="inkscape:persp3d" /><inkscape:perspective
   id="perspective4324"
   inkscape:persp3d-origin="0.5 : 0.33333333 : 1"
   inkscape:vp_z="1 : 0.5 : 1"
   inkscape:vp_y="0 : 1000 : 0"
   inkscape:vp_x="0 : 0.5 : 1"
   sodipodi:type="inkscape:persp3d" /><inkscape:perspective
   id="perspective4351"
   inkscape:persp3d-origin="0.5 : 0.33333333 : 1"
   inkscape:vp_z="1 : 0.5 : 1"
   inkscape:vp_y="0 : 1000 : 0"
   inkscape:vp_x="0 : 0.5 : 1"
   sodipodi:type="inkscape:persp3d" /><inkscape:perspective
   id="perspective4351-0"
   inkscape:persp3d-origin="0.5 : 0.33333333 : 1"
   inkscape:vp_z="1 : 0.5 : 1"
   inkscape:vp_y="0 : 1000 : 0"
   inkscape:vp_x="0 : 0.5 : 1"
   sodipodi:type="inkscape:persp3d" /><inkscape:perspective
   id="perspective4351-3"
   inkscape:persp3d-origin="0.5 : 0.33333333 : 1"
   inkscape:vp_z="1 : 0.5 : 1"
   inkscape:vp_y="0 : 1000 : 0"
   inkscape:vp_x="0 : 0.5 : 1"
   sodipodi:type="inkscape:persp3d" /><inkscape:perspective
   id="perspective4351-1"
   inkscape:persp3d-origin="0.5 : 0.33333333 : 1"
   inkscape:vp_z="1 : 0.5 : 1"
   inkscape:vp_y="0 : 1000 : 0"
   inkscape:vp_x="0 : 0.5 : 1"
   sodipodi:type="inkscape:persp3d" /><inkscape:perspective
   id="perspective4409"
   inkscape:persp3d-origin="0.5 : 0.33333333 : 1"
   inkscape:vp_z="1 : 0.5 : 1"
   inkscape:vp_y="0 : 1000 : 0"
   inkscape:vp_x="0 : 0.5 : 1"
   sodipodi:type="inkscape:persp3d" /><inkscape:perspective
   id="perspective4409-1"
   inkscape:persp3d-origin="0.5 : 0.33333333 : 1"
   inkscape:vp_z="1 : 0.5 : 1"
   inkscape:vp_y="0 : 1000 : 0"
   inkscape:vp_x="0 : 0.5 : 1"
   sodipodi:type="inkscape:persp3d" /><inkscape:perspective
   id="perspective4409-0"
   inkscape:persp3d-origin="0.5 : 0.33333333 : 1"
   inkscape:vp_z="1 : 0.5 : 1"
   inkscape:vp_y="0 : 1000 : 0"
   inkscape:vp_x="0 : 0.5 : 1"
   sodipodi:type="inkscape:persp3d" /><inkscape:perspective
   id="perspective4409-07"
   inkscape:persp3d-origin="0.5 : 0.33333333 : 1"
   inkscape:vp_z="1 : 0.5 : 1"
   inkscape:vp_y="0 : 1000 : 0"
   inkscape:vp_x="0 : 0.5 : 1"
   sodipodi:type="inkscape:persp3d" /><inkscape:perspective
   id="perspective4409-7"
   inkscape:persp3d-origin="0.5 : 0.33333333 : 1"
   inkscape:vp_z="1 : 0.5 : 1"
   inkscape:vp_y="0 : 1000 : 0"
   inkscape:vp_x="0 : 0.5 : 1"
   sodipodi:type="inkscape:persp3d" /><inkscape:perspective
   id="perspective4409-3"
   inkscape:persp3d-origin="0.5 : 0.33333333 : 1"
   inkscape:vp_z="1 : 0.5 : 1"
   inkscape:vp_y="0 : 1000 : 0"
   inkscape:vp_x="0 : 0.5 : 1"
   sodipodi:type="inkscape:persp3d" /><inkscape:perspective
   id="perspective4503"
   inkscape:persp3d-origin="0.5 : 0.33333333 : 1"
   inkscape:vp_z="1 : 0.5 : 1"
   inkscape:vp_y="0 : 1000 : 0"
   inkscape:vp_x="0 : 0.5 : 1"
   sodipodi:type="inkscape:persp3d" /><inkscape:perspective
   id="perspective4503-8"
   inkscape:persp3d-origin="0.5 : 0.33333333 : 1"
   inkscape:vp_z="1 : 0.5 : 1"
   inkscape:vp_y="0 : 1000 : 0"
   inkscape:vp_x="0 : 0.5 : 1"
   sodipodi:type="inkscape:persp3d" /><inkscape:perspective
   id="perspective4503-6"
   inkscape:persp3d-origin="0.5 : 0.33333333 : 1"
   inkscape:vp_z="1 : 0.5 : 1"
   inkscape:vp_y="0 : 1000 : 0"
   inkscape:vp_x="0 : 0.5 : 1"
   sodipodi:type="inkscape:persp3d" /><inkscape:perspective
   id="perspective4503-80"
   inkscape:persp3d-origin="0.5 : 0.33333333 : 1"
   inkscape:vp_z="1 : 0.5 : 1"
   inkscape:vp_y="0 : 1000 : 0"
   inkscape:vp_x="0 : 0.5 : 1"
   sodipodi:type="inkscape:persp3d" /><inkscape:perspective
   id="perspective4503-5"
   inkscape:persp3d-origin="0.5 : 0.33333333 : 1"
   inkscape:vp_z="1 : 0.5 : 1"
   inkscape:vp_y="0 : 1000 : 0"
   inkscape:vp_x="0 : 0.5 : 1"
   sodipodi:type="inkscape:persp3d" /><inkscape:perspective
   id="perspective4503-7"
   inkscape:persp3d-origin="0.5 : 0.33333333 : 1"
   inkscape:vp_z="1 : 0.5 : 1"
   inkscape:vp_y="0 : 1000 : 0"
   inkscape:vp_x="0 : 0.5 : 1"
   sodipodi:type="inkscape:persp3d" /><inkscape:perspective
   id="perspective4503-1"
   inkscape:persp3d-origin="0.5 : 0.33333333 : 1"
   inkscape:vp_z="1 : 0.5 : 1"
   inkscape:vp_y="0 : 1000 : 0"
   inkscape:vp_x="0 : 0.5 : 1"
   sodipodi:type="inkscape:persp3d" />
		
		
		
		
		
		
		
	<inkscape:perspective
   id="perspective3327"
   inkscape:persp3d-origin="415.4895 : 304.776 : 1"
   inkscape:vp_z="830.979 : 457.164 : 1"
   inkscape:vp_y="0 : 1000 : 0"
   inkscape:vp_x="0 : 457.164 : 1"
   sodipodi:type="inkscape:persp3d" /></defs><sodipodi:namedview
   pagecolor="#ffffff"
   bordercolor="#666666"
   borderopacity="1"
   objecttolerance="10"
   gridtolerance="10"
   guidetolerance="10"
   inkscape:pageopacity="0"
   inkscape:pageshadow="2"
   inkscape:window-width="1680"
   inkscape:window-height="998"
   id="namedview2389"
   showgrid="false"
   inkscape:zoom="1.5865148"
   inkscape:cx="249.70397"
   inkscape:cy="258.11295"
   inkscape:window-x="-8"
   inkscape:window-y="-8"
   inkscape:window-maximized="1"
   inkscape:current-layer="Layer_1"
   inkscape:snap-smooth-nodes="false"
   inkscape:object-nodes="true"
   units="cm"
   fit-margin-top="0.5"
   fit-margin-left="0.5"
   fit-margin-right="0.5"
   fit-margin-bottom="0.5"
   inkscape:snap-global="false"
   inkscape:object-paths="true"
   showguides="true"
   inkscape:guide-bbox="true" />
<path
   style="fill:#f2f2f2;stroke:#979a9b;stroke-width:0.63200003;overflow:visible"
   d="m 136.13821,18.032535 c -9.601,0 -17.46875,3.65625 -17.46875,3.65625 0,0 -14.47375,8.55075 -17.09375,21.46875 0,0 -3.849249,14.49775 -1.40625,25.84375 0,0 -3.836249,-2.4375 -6.281249,-2.4375 0,0 -5.58475,2.43525 -2.09375,14.65625 l 7.15625,13.8125 c 0,0 4.874999,4.1695 4.874999,-2.8125 0,0 2.448,16.238505 1.75,16.937505 0,0 2.10525,13.97925 1.40625,23.40625 0,0 1.56175,7.8285 -11.531249,13.9375 0,0 -14.477,6.63775 -25.125,13.96875 -10.648,7.332 -13.26325,4.3735 -25.65625,9.4375 0,0 -14.8325,2.63275 -22.6875,28.46875 0,0 -7.70275,19.8975 -1.59375,34.5625 0,0 0.71274,4.80971 0.78125,10.71875 l 33.53125,55.09375 c 1.58029,-4.41011 3.06533,-9.42345 3.5625,-13.96875 l 1.40625,-4.03125 c 0,0 4.71025,21.4805 6.28125,28.8125 0,0 2.1075,18.506 0.1875,31.25 0,0 -2.43975,28.95275 -1.21875,32.09375 1.222,3.143 0,0.71875 0,0.71875 0,0 -4.53325,24.6155 -5.40625,36.3125 0,0 -2.2985,47.46775 3.8125,67.71875 0,0 1.01327,4.54619 2.1875,9.78125 24.38465,6.59388 48.644129,10.51173 72.718749,10.75 l 0,-17.03125 0.875,17.03125 c 25.87298,0.16091 51.53804,-3.92251 76.9375,-13.46875 1.14711,-5.59372 1.87568,-10.40649 1.625,-12.8125 l 2.25,-53.40625 -1.375,-1.59375 c 0,0 -1.75,-8.187 -1.75,-13.25 l 0,-15.03125 c 0,0 -5.40625,-12.5445 -5.40625,-15.6875 0,-3.142 1.21875,-4.375 1.21875,-4.375 0,0 1.02125,-8.03325 -3.34375,-19.03125 -4.364,-10.997 -3.46875,-16.21875 -3.46875,-16.21875 l 0.34375,-16.4375 4.53125,-18.5 0,-26.1875 c 0,0 6.2955,6.46725 9.4375,20.78125 0.43578,1.98464 0.98747,3.87358 1.59375,5.6875 l 34.34375,-56.4375 0,-4.21875 c 0,0 -3.65625,-4.8915 -3.65625,-6.8125 0,-1.919 1.22525,-32.839 -21.46875,-57.625 0,0 -4.534,-6.986 -28.625,-11.875 l -30.1875,-20.75 -1.59375,-0.875 c 0,0 -0.875,-1.91975 -0.875,-2.96875 0,-1.047 -3.3125,-4.375 -3.3125,-4.375 l 0,-24.4375 c -0.003,0 4.90625,-2.08725 4.90625,-13.781255 l 3.65625,0 c 0,0 8.21675,-4.19275 7.34375,-24.09375 0,0 -0.01,-4.90625 -3.5,-4.90625 0,0 -3.49,-0.525 -4.625,4.625 0,0 2.6865,-11.0825 1.8125,-18.9375 0,0 -2.09325,-10.28875 -7.15625,-17.96875 -5.062,-7.682001 -17.28125,-12.03125 -17.28125,-12.03125 0,0 -5.74275,-3.15625 -15.34375,-3.15625 z"
   id="path57-2"
   inkscape:connector-curvature="0" /><path
   style="color:#000000;fill:#f2f2f2;fill-opacity:1;fill-rule:nonzero;stroke:#a9b5bf;stroke-width:0.9896;stroke-linecap:butt;stroke-linejoin:miter;stroke-miterlimit:4;stroke-opacity:1;stroke-dasharray:none;stroke-dashoffset:0;marker:none;visibility:visible;display:inline;overflow:visible;enable-background:accumulate"
   id="path99"
   d="m 153.37922,233.58182 c -0.007,2.549 -0.025,5.099 -0.059,7.646 -0.103,7.824 -2.2,10.996 3.813,16.313 9.721,8.595 20.479,19.635 33.117,23.912 16.299,5.517 14.022,-29.397 13.221,-37.252 -1.875,-18.336 -9.871,-36.603 -22.587,-50.016 -4.726,-4.986 -13.524,-16.507 -21.258,-15.207 -11.636,1.953 -6.307,22.257 -6.307,29.851 0.001,8.249 0.084,16.503 0.06,24.753 z"
   inkscape:connector-curvature="0" /><path
   style="color:#000000;fill:#f2f2f2;fill-opacity:1;fill-rule:nonzero;stroke:#979a9b;stroke-width:0.31600001;stroke-linecap:butt;stroke-linejoin:miter;stroke-miterlimit:4;stroke-opacity:0.5;stroke-dasharray:none;stroke-dashoffset:0;marker:none;visibility:visible;display:inline;overflow:visible;enable-background:accumulate"
   d="m 169.32571,56.626291 c -1.698,1.866 -3.04575,3.956 -5.21875,5.5 -1.142,0.813 -2.3535,1.47575 -3.5625,2.21875 -2.536,1.556 -5.0955,2.77225 -8.0625,3.28125 -1.354,0.232 -2.123,0.07825 -3.25,0.90625 -0.846,0.621 -1.635,1.288 -2.75,1.25 -1.627,-0.06 -2.8515,-0.915 -3.8125,-2.125 -0.967,-1.218 -2.6125,-2.37525 -2.8125,-4.03125 -0.965,0.792 -1.259,0.9845 -0.625,2.1875 0.428,0.813 3.5705,5.02975 4.8125,4.34375 -2.11,1.165 -4.6015,1.3395 -7.0625,1.1875 -1.843,-0.112 -5.12875,-0.797 -6.34375,-2.375 0.184,0.239 1.96625,-1.137 2.15625,-1.375 0.536,-0.672 0.91325,-1.5395 1.28125,-2.3125 0.569,-1.193 0.078,-1.5105 -0.625,-2.5625 -0.646,2.586 -3.054,5.395 -5.625,6.125 -1.928,0.548 -3.3255,-1.1255 -5.0625,-0.8125 -0.364,0.06 -0.6015,0.33025 -0.9375,0.40625 -0.692,0.154 -1.56875,-0.076 -2.21875,-0.25 -1.991,-0.541 -4.06075,-1.57375 -5.59375,-2.96875 -1.484,-1.349 -3.46125,-2.42625 -4.40625,-4.28125 -0.396,-0.776 -0.4745,-1.908 -0.9375,-2.625 -0.515,-0.798 -0.5065,-0.44825 -1.4375,-0.78125 -0.235,-0.08 0.90925,3.77925 1.15625,4.15625 1.242,1.895 3.3975,3.869 5.1875,5.25 1.58349,1.221013 5.05585,3.814434 7.3125,3.09375 -1.44183,1.948586 -0.93441,5.455148 -0.875,7.5625 0.087,3.116 0.42725,6.304 0.90625,9.375 0.49,3.145 0.0822,6.338 0.28125,9.5 0.182,2.885 0.508,5.789499 0.5,8.687499 -0.011,3.695 0.089,7.3685 0.125,11.0625 -0.424,-1.257 -0.048,-2.8555 -0.125,-4.1875 -0.112,-1.911 -0.9675,-3.66275 -1.4375,-5.46875 -0.559,-2.148 -1.3335,-4.234 -1.9375,-6.375 -0.283,-1.004003 -0.19975,-2.054499 0.0312,-3.062499 0.184,-0.802 0.69775,-1.64275 0.71875,-2.46875 0.014,-0.545 -0.31025,-1.147 -0.53125,-1.625 -0.163,1.096 -0.52275,1.9545 -1.09375,2.9375 -1.008,-1.018 -0.535,-3.3025 -0.5,-4.5625 0.057,-2.071 0.0292,-4.0955 0.28125,-6.1875 0.158,-1.309 0.0387,-1.313 -0.78125,-2.125 -0.122,1.155 -0.35425,2.513 -0.65625,3.625 -0.865,-0.577 -1.52025,-1.69225 -2.40625,-2.40625 -0.006,0.421 -0.0768,0.69375 -0.0937,1.09375 2.814,1.701 2.43,5.42625 2.5,8.28125 -0.99,-1.018 -1.662,-2.23175 -2.75,-3.09375 -0.045,0.478 0.004,0.95425 -0.15625,1.40625 1.122,1.431 2.46025,2.627 2.90625,4.5 0.492,2.066 0.76225,4.256499 1.28125,6.312499 -0.798,-0.845 -1.858,-1.5435 -2.625,-2.4375 0.025,0.597 0.0305,1.49825 0.3125,2.03125 0.259,0.491 1.02925,0.7825 1.40625,1.1875 0.853,0.916 1.2265,2.02775 1.4375,3.21875 0.483,2.73 1.502,5.2565 2.125,7.9375 0.51,2.201 0.6145,4.613 1.0625,6.875 0.427,2.16 0.82975,4.14775 0.96875,6.34375 0.125,1.973 0.0978,3.9565 0.21875,5.9375 0.104,1.711 0.35125,3.44125 0.53125,5.15625 0.376,3.584 0.56075,7.14425 1.34375,10.65625 0.855,3.823 1.90325,7.5915 2.65625,11.4375 0.541,2.757 0.999,5.566 1.125,8.375 0.011,0.252 -0.24075,5.676 -0.59375,5.5 -1.542,-0.768 -2.77475,-1.8925 -4.46875,-2.5625 -1.393,-0.551 -2.843,-0.95775 -4.25,-1.46875 -2.077,-0.755 -1.5545,-0.935 -0.9375,-2.75 0.841,-2.473 1.681,-4.4305 3.125,-6.6875 1.312,-2.05 2.66325,-4.0835 4.03125,-6.0625 0.448,-0.649 0.28775,-0.9265 0.0937,-1.6875 -0.157,-0.62 -0.15275,-1.31125 -0.34375,-1.90625 -0.329,1.156 -1.6245,2.27375 -2.3125,3.21875 -1.522,2.092 -3.22475,4.04725 -4.71875,6.15625 -1.013,1.428 -2.1755,2.89175 -3.3125,4.21875 -0.704,0.823 -1.4375,1.416 -2.1875,2.125 -2.238,2.114 -2.6025,-0.93525 -3.3125,-2.65625 -0.469,-1.14 -1.084,-2.002 -2.125,-2.625 0.025,0.919 1.0275,1.509 1.4375,2.375 0.427,0.9 0.45675,1.87325 0.71875,2.78125 -0.08,-0.276 -2.4705,-1.45775 -2.8125,-1.71875 -1.481,-1.128 -2.7285,-2.648 -3.4375,-4.375 -0.318,-0.772 -0.44975,-1.7725 -1.21875,-2.1875 0.44,1.96 1.1295,4.3455 2.6875,5.6875 -1.185,-0.117 -2.3645,-0.35675 -3.5625,-0.34375 0.348,1.162 3.3825,1.0125 4.4375,1.4375 1.353,0.546 2.9875,1.82425 3.9375,2.90625 -1.355,0.07 -2.5695,0.46275 -3.9375,0.46875 -1.014,0 -2.0505,-0.181 -3.0625,-0.125 -5.05,0.278 -10.3395,1.70775 -15.1875,3.09375 -3.229,0.923 -6.356,2.152 -9.375,3.625 -4.519,2.206 -8.46725,5.73 -13.03125,7.75 -1.225,0.542 -8.108,1.83 -7.625,3.875 1.43,-0.35 2.78325,-1.08525 4.15625,-1.53125 -0.073,0.911 -0.65775,1.1495 -1.21875,1.8125 -2.643,3.123 -3.91425,6.33025 -5.90625,9.78125 -2.554,4.428 -4.5235,9.175 -6.1875,14 -0.828,2.401 -1.43475,4.8625 -2.09375,7.3125 -0.581999,2.161 -1.392499,3.6295 -2.437499,5.5625 -1.789,3.312 -4.2045,6.94 -6.5625,9.875 -0.88911,1.10824 -1.60336,1.99833 -0.78125,3.28125 -0.3218,-1.6513 7.13372,-10.22484 8.09375,-11.34375 -0.456,2.638 -1.0825,5.409 -1.5625,8.125 -0.791,4.473 -0.85875,8.92 -1.59375,13.375 -0.931,5.644 -2.44575,11.1855 -3.46875,16.8125 -0.21295,1.17167 -0.44105,2.33 -0.65625,3.5 l 3.75,6.125 c 0.29165,-1.26314 0.56498,-2.51529 0.875,-3.78125 1.151,-4.698 1.50675,-9.54625 2.46875,-14.28125 0.882,-4.348 0.4505,-9.3535 2.687499,-13.3125 1.255,1.68 1.7525,4.95975 2.3125,7.09375 0.993,3.786 1.145,7.362 1.375,11.25 0.264,4.451 1.10125,8.85425 0.78125,13.28125 -0.33308,4.60331 -1.06537,9.17706 -2.03125,13.6875 l 1.15625,1.875 c 0.62494,-3.06662 1.19486,-6.14626 1.6875,-9.21875 0.581,-3.624 0.77375,-7.144 0.71875,-10.875 -0.165,-11.375 -3.05125,-22.2955 -3.53125,-33.5625 -0.166,-3.901 0.752,-7.539 1.125,-11.375 0.258,-2.651 1.22675,-5.449 2.09375,-8 1.125,-3.306 2.38025,-6.58125 3.78125,-9.78125 0.65,-1.484 1.6255,-2.7895 2.1875,-4.3125 0.56,-1.521 0.69125,-3.72375 2.15625,-4.71875 0.269,3.484 0.46225,7.123 1.28125,10.5 1.574,-0.917 0.0738,-4.6645 -0.0312,-6.3125 -0.366,-5.755 2.794,-9.60375 6.875,-13.21875 4.595,-4.07 9.95225,-7.249 15.65625,-9.5 4.091,-1.614 8.1965,-3.039 12.5625,-3.75 5.21,-0.848 10.33875,-1.609 15.59375,-0.625 3.503,0.657 6.071,1.42975 8.875,3.59375 2.818,2.173 6.07482,4.4783 8.50282,7.0543 2.533,2.688 3.96543,5.9102 6.15343,8.8832 1.412,1.917 4.40425,4.69 4.40625,7.25 0,1.441 -0.95675,3.13125 -1.09375,4.65625 -0.155,1.708 -0.0913,3.437 0.21875,5.125 0.734,3.999 2.45325,7.75075 4.03125,11.46875 0.964,2.271 1.40075,2.47325 3.84375,2.65625 1.97,0.147 3.743,0.0705 5.625,-0.6875 0.664,-0.27 0.32577,-1.35301 -0.57123,-2.33401 -1.793,-1.963 -4.74566,-4.07748 -5.55866,-6.50948 -0.84,-2.516 2.49828,-10.30595 1.88628,-12.86195 -0.448,-1.888 6.21561,-1.56281 7.36861,0.67419 l 9.97793,-3.7952 c -0.90594,-2.1017 -3.15643,-4.6098 -3.54043,-5.0798 -1.337,-1.636 -3.43122,-2.12671 -5.43622,-2.55571 0.452,0.1 2.10267,-6.56019 2.39267,-7.12519 3.754,-7.36 14.33314,-11.01965 22.44414,-12.01265 11.832,-1.45 21.54066,4.77555 29.50566,13.06855 5.786,6.026 9.517,13.38475 11.875,21.34375 1.094,3.695 2.4825,7.7985 2.4375,11.6875 -0.053,4.63 -2.078,8.9905 -3.5,13.3125 -1.534,4.664 -2.146,9.39025 -1.875,14.28125 0.549,9.973 4.36625,19.16925 6.28125,28.90625 -0.701,-3.563 -0.96675,-7.05725 -1.96875,-10.65625 -0.875,-3.138 -1.4815,-6.524 -2.0625,-9.75 -1.345,-7.466 -0.6995,-15.2485 1.1875,-22.5625 0.463,-1.795 1.8665,-9.2675 4.3125,-5.3125 1.85,2.993 1.5745,8.265 2.3125,11.625 1.275,5.818 2.53825,11.64375 3.78125,17.46875 1.17956,5.53054 2.18845,11.24958 3.21875,16.96875 l 3.34375,-5.5 c -0.9055,-5.30088 -1.89023,-10.59356 -3,-15.9375 -1.943,-9.354 -2.98175,-19.07725 -5.09375,-28.28125 -1.168,-5.087 -2.6175,-10.10675 -4.1875,-15.09375 -3.719,-11.821 -6.81125,-21.45825 -17.03125,-29.40625 -7.051,-5.484 -15.94125,-8.77975 -24.78125,-9.84375 -3.512,-0.423 -7.79956,0.33333 -11.16156,1.37633 -3.557,1.104 -5.95952,3.63094 -9.18352,1.40094 -3.028,-2.095 -4.09917,-5.91227 -5.68617,-9.02727 -0.853,-1.675 -1.86425,-3.2255 -2.65625,-4.9375 -0.625,-1.353 -1.4065,-2.6005 -2.0625,-3.9375 -0.405,-0.826 -0.88725,-2.5025 -1.78125,-2.9375 0.222,0.697 0.044,1.44425 0,2.15625 -0.007,0.12126 -0.0439,0.24835 -0.0625,0.375 0.0804,-4.27916 -0.14219,-8.54453 -0.40625,-12.8125 -0.248,-4.029 -1.08375,-8.65025 -0.46875,-12.65625 0.575,-3.752 1.5725,-7.397 2.3125,-11.125 0.46,-2.31799 0.9295,-4.54925 1.6875,-6.78125 0.467,-1.374 0.65875,-2.91625 1.46875,-4.15625 1.024,-1.575 3.5245,-2.4515 3.5625,-4.4375 -0.91,0.5 -2.165,1.06125 -2.875,1.78125 1.223,-2.973 1.8445,-6.153249 3.0625,-9.156249 0.427,-1.048 0.95325,-2.0355 1.40625,-3.0625 0.419,-0.951 1.1765,-2.39925 1.3125,-3.40625 0.093,-0.69 -0.21325,-1.20725 -0.53125,-1.90625 -0.408,0.893 -0.74425,2.42975 -1.40625,3.09375 -0.165,-0.954 -0.2585,-2.06675 -0.6875,-2.96875 -0.43,1.172 -0.957,1.19075 -0.625,2.59375 0.178,0.749 0.922,1.89475 0,2.34375 -0.479,-0.852 -1.02075,-1.68475 -1.71875,-2.34375 -0.259,0.946 -0.2355,1.21975 0.1875,2.09375 0.312,0.645 0.85275,1.527 0.84375,2.25 -0.022,1.704 -1.52675,3.37375 -1.59375,5.09375 -0.66,-0.568 -1.27175,-1.5625 -1.71875,-2.3125 -0.885,1.999 0.7775,2.689746 0.6875,4.468749 -0.04,0.801 -0.6985,2.40725 -1.1875,3.03125 -0.673,0.86 -0.5575,0.42075 -1.4375,-0.15625 -1.052,1.197 0.469,2.3695 0.375,3.6875 -0.089,1.221 -1.0605,2.71675 -1.5625,3.84375 -0.40575,0.91425 -0.61868,1.86271 -0.75,2.8125 -0.007,-2.51993 -0.18824,-5.01847 -0.0312,-7.5625 0.218,-3.534 0.18725,-7.113249 0.40625,-10.656249 0.14,-2.256 0.229,-4.495 0.375,-6.75 0.288,-4.462 0.92,-8.87425 1.75,-13.28125 0.41213,-2.18225 0.78803,-6.324451 -1.6875,-7.5 -0.35365,-0.167936 -0.74025,-0.248875 -1.21875,-0.28125 0.40497,-0.104301 0.79983,0.113209 1.21875,0.28125 0.23174,0.09296 0.49187,0.155894 0.71875,0.15625 2.074,0 4.6995,-1.8325 6.4375,-2.8125 2.862,-1.617 5.089,-3.5865 7.5,-5.8125 0.278,-0.257 0.82975,-0.628 0.96875,-1 0.288,-0.766 -0.38575,-1.655 -0.34375,-2.5 z m -18.625,12.34375 c 3.783,2.383 3.51175,5.37275 2.46875,9.34375 -0.661,2.514 -1.5345,5.15825 -1.6875,7.78125 -0.169,2.893 -0.1735,5.76525 -0.3125,8.65625 -0.362,7.534999 -1.0415,14.966999 -1.4375,22.499999 -0.003,0.06 0.002,0.1285 0,0.1875 -0.206,3.73999 -0.48675,7.5605 -0.34375,11.3125 0.094,2.391 0.0308,4.74975 -0.0312,7.09375 -0.058,2.211 -0.13075,4.41425 -0.0937,6.65625 0.084,4.941 0.2525,9.8725 0.3125,14.8125 0.054,4.539 -0.423,9.06475 -0.625,13.59375 -0.172,3.883 -0.66161,7.65096 -0.42661,11.58696 0.146,2.438 -0.14664,4.83679 -0.47964,7.25679 -0.176,1.279 0.5494,6.04889 -0.6086,6.91189 -1.946,1.451 -7.9754,-9.39514 -9.2664,-10.94314 -1.815,-2.18 -4.16825,-4.233 -5.65625,-6.625 -1.405,-2.256 -1.207,-5.66375 -1.625,-8.21875 -0.483,-2.95 -0.93625,-5.912 -1.40625,-8.875 -1.033,-6.51 -1.968,-13.01 -3.125,-19.5 -0.773,-4.337 -1.37525,-8.72075 -1.90625,-13.09375 -0.737,-6.082 -0.24575,-12.48075 -0.0937,-18.59375 0.229,-9.226 -0.78575,-18.509749 -1.34375,-27.718749 -0.184,-3.051 -0.80125,-6.208 -0.65625,-9.25 0.042,-0.876 0.2815,-1.87575 0.8125,-2.59375 0.45197,-0.609978 1.04875,-0.78365 1.65625,-1.03125 -0.20975,0.12525 -0.42775,0.2595 -0.59375,0.4375 0.252,-0.27 2.52625,0.352 3.03125,0.25 0.64,-0.127 1.54425,-0.53975 2.03125,-0.96875 1.726,1.823 4.79525,1.2795 7.03125,1.6875 1.578,0.287 3.06725,0.778 4.65625,0.5 1.274,-0.224 2.496,-0.96225 3.75,-1.15625 1.072,-0.165 2.12225,0.62575 3.15625,0.21875 1.052,-0.413 2.77175,-1.9545 3.96875,-0.9375 -0.315,-0.441 -0.74025,-0.91125 -1.15625,-1.28125 z m 2.59375,86.718749 c 0.13385,0.48962 0.48953,0.98765 0.6875,1.4375 0.3,0.679 0.6835,1.2965 1.0625,1.9375 0.834,1.415 1.66,2.86275 2.375,4.34375 1.256,2.597 2.52625,5.168 3.53125,7.875 0.738,1.99 2.2775,4.599 0.5625,6.5 -1.895,2.101 -4.7511,3.34341 -5.7459,5.99321 -0.64527,1.71878 -1.60713,7.5336 -2.15894,8.958 -0.42402,1.09452 -1.68255,0.59535 -1.37641,-1.51371 0.344,-3.388 0.6875,-6.777 0.6875,-10.25 0,-8.40949 0.12907,-16.91666 0.375,-25.28125 z"
   id="path129-9"
   inkscape:connector-curvature="0"
   sodipodi:nodetypes="ccccccccccccccccccccccccccccccccsccccccccccccccccccccccccccccccccccccccccccccccccccccccccccccccccccccccccccccccccccccccccccccccccccccccccccccccccccccccccccccccccccccccccccccccccccccccccccccccccccccccccscscccccccccccccccccsccccccccccccccccccccccccccccssscsc" /><path
   style="fill:none;stroke:#a9b5bf;stroke-width:1.05330002"
   id="path73"
   d="m 124.79722,340.10582 c 1.22,-11.396 -10.402,-11.768 -17.303,-6.25 -9.543999,7.63 -15.296999,24.959 -6.667,35.565 3.762,4.621 10.706,5.477 15.2,1.384 2.128,-1.938 3.606,-4.956 3.782,-7.972 0.193,-3.319 -2.136,-4.656 -2.498,-7.538 -0.71,-5.659 6.887,-9.592 7.486,-15.189 z"
   inkscape:connector-curvature="0" /><path
   style="fill:none;stroke:#a9b5bf;stroke-width:1.05330002"
   id="path77"
   d="m 161.52922,340.11682 c -0.344,-11.456 11.272,-10.936 17.729,-4.906 8.933,8.339 13.343,26.058 3.924,35.97 -4.105,4.321 -11.094,4.641 -15.261,0.217 -1.976,-2.095 -3.218,-5.219 -3.161,-8.238 0.061,-3.325 2.486,-4.481 3.068,-7.324 1.144,-5.589 -6.13,-10.093 -6.299,-15.719 z"
   inkscape:connector-curvature="0" /><path
   inkscape:connector-curvature="0"
   id="path3952"
   d="m 161.48196,197.93879 c -1.56862,0.16659 -3.17756,1.30775 -4.5,2.46875 -1.314,1.154 -2.156,2.45675 -1.75,4.09375 0.482,1.945 0.9395,3.7365 0.8125,5.8125 -0.408,6.705 -0.27125,13.35625 -1.28125,20.03125 -0.684,4.516 -0.841,9.16275 -1.25,13.71875 -0.411,4.582 -1.244,9.1025 -1.625,13.6875 -0.315,3.787 -1.15175,7.53375 -1.34375,11.34375 -0.215,4.255 -0.4865,8.52125 -0.5625,12.78125 -0.197,10.917 -1.5335,21.755 -2.4375,32.625 -0.786,9.467 -1.659,18.93425 -2.375,28.40625 -0.079,1.063 -0.14075,2.1245 -0.21875,3.1875 -0.692,0.625 -1.873,0.79725 -2.75,1.03125 -2.63,0.705 -5.31975,1.2815 -7.84375,2.1875 -3.998,1.437 -8.1875,2.54875 -12.3125,3.59375 -1.516,0.386 -3.0905,1.11025 -4.6875,0.90625 -3.843,-0.495 -2.18725,-3.8635 -1.40625,-6.4375 0.634,-2.094 1.8775,-3.91275 3.0625,-5.71875 0.688,-1.049 1.19625,-1.86925 1.40625,-3.15625 0.192,-1.179 0.74525,-2.7435 0.53125,-3.9375 -0.448,0.1 -0.26225,1.25425 -0.53125,1.65625 -0.704,-0.385 -1.3135,-1.88375 -1.8125,-2.59375 -0.147,0.636 0.74525,1.61125 1.03125,2.15625 0.288,0.551 0.5075,1.104 0.4375,1.75 -0.084,0.781 -0.3345,1.919 -0.6875,2.625 -0.145,0.29 -0.79525,1.272 -1.15625,1.25 -0.556,-0.04 -1.297,-2.299 -1.5,-2.75 -0.418,-0.931 -0.7955,-1.812 -1.1875,-2.75 -0.36,-0.86 -0.9655,-2.50375 -1.6875,-3.09375 -0.16,1.05 1.174,1.873 1.125,2.875 -0.838,0.158 -1.87075,-0.46 -2.71875,-0.5 0.324,0.618 1.50175,0.582 2.09375,0.875 1.073,0.531 1.4535,2.10625 1.9375,3.15625 0.383,0.827 1.06475,1.77175 0.96875,2.71875 -0.107,1.067 -1.13225,2.38075 -1.78125,3.21875 -0.457,-0.137 -0.719,-0.66325 -1,-1.03125 -0.314,-0.413 -0.98625,-1.001 -1.15625,-1.5 -0.248,-0.73 1.033,-3.5415 0.375,-3.9375 -0.615,1.037 -0.6705,2.337 -0.8125,3.5 -0.125,1.028 -0.22475,1.5045 0.40625,2.3125 0.525,0.671 1.3515,1.356 1.4375,2.25 0.067,0.704 0.104,2.102 -0.5,2.625 -0.827,0.717 -0.75625,-0.1575 -1.03125,-0.5625 -0.33,-0.487 -0.85075,-0.617 -1.09375,-1.25 -0.43,-1.122 -0.1095,-2.386 -0.5625,-3.5 -0.732,0.738 0.569,2.527 -0.25,3 -0.399,0.231 -2.4645,-0.4655 -2.9375,-0.5625 -0.707,-0.144 -1.5325,-0.11575 -2.1875,-0.34375 0.328,1.005 2.37125,0.8915 3.28125,1.1875 1.174,0.382 2.2775,1.446 3.0625,2.375 0.783,0.927 2.014,1.975 1.25,3 -0.545,0.73 -2.73375,1.35675 -2.71875,2.21875 0.004,0.23 2.112,-0.855 2.25,-0.875 1.057,-0.154 1.64225,0.991 1.15625,1.875 -0.411,0.75 -1.5315,1.11925 -2.3125,1.28125 -1.268,0.262 -2.996,-0.1695 -3.625,-1.4375 -0.342,-0.688 -0.349,-1.59 -0.75,-2.25 -0.085,0.913 0.165,1.7815 0.125,2.6875 -1.421,-0.284 -3.09975,-0.56575 -4.46875,-0.96875 -0.036,0.04 -0.0568,0.085 -0.0937,0.125 1.157,0.918 2.81125,0.98675 4.15625,1.59375 1.416,0.638 2.9565,1.06375 4.3125,1.71875 0.019,1.106 -1.56075,2.74825 -2.21875,3.65625 -0.586,0.808 -3.14675,3.67025 -2.71875,4.40625 1.111,-0.461 1.40275,-2.1605 2.34375,-2.6875 0.368,0.879 0.6185,3.8655 1.6875,4.0625 0.311,-1.509 -1.40725,-2.80575 -1.03125,-4.21875 0.2,-0.755 1.23375,-2.85375 2.09375,-1.84375 0.553,0.648 0.459,2.0175 0.5,2.8125 0.092,1.75 -0.51925,3.277 -1.15625,4.875 0.667,-0.918 1.47075,-2.2105 1.59375,-3.3125 0.147,-1.324 -0.0937,-2.70225 -0.0937,-4.03125 0,-0.823 -0.1925,-2.237 0.1875,-3 0.48,-0.966 1.87,-1.17675 2.75,-1.59375 1.184,-0.561 2.26425,-1.1735 3.53125,-1.5625 2.504,-0.769 5.1055,-1.08675 7.6875,-1.46875 3.328,-0.492 6.6915,-0.85475 10.0625,-0.84375 1.672,0 3.74175,-0.712 5.34375,-0.125 0.787,0.289 1.498,0.946 2,1.75 -0.026,0.491 -0.0677,0.97875 -0.0937,1.46875 -0.133,2.529 -0.8435,4.768 -1.0625,7.25 -0.362,4.065 -0.17025,8.1305 -0.40625,12.1875 -0.407,7.002 -0.62825,14.006 -1.15625,21 -0.616,8.169 -2.16225,16.39 -6.90625,23.25 -6.114,8.847 -11.0155,18.50725 -16.4375,27.78125 -2.64,4.516 -4.8605,9.2995 -7.4375,13.8125 -2.035,3.564 -3.2235,7.22775 -7.1875,9.09375 -2.318,1.091 -5.078999,2.60425 -7.624999,2.90625 -2.636,0.314 -5.37825,-0.117 -7.90625,-0.875 -1.299,-0.389 -2.7565,-0.94975 -3.9375,-1.59375 -2.613,-1.427 -5.12975,-4.3225 -6.21875,-7.0625 -1.646,-4.149 -2.231,-8.4585 -3.25,-12.8125 -0.75,-3.207 -1.35825,-7.26175 -3.53125,-9.84375 0.924,1.1 1.2315,3.59575 1.5625,4.96875 0.409,1.695 0.7,3.407 1,5.125 0.279,1.594 0.81025,3.13475 1.15625,4.71875 0.239,1.087 0.383,4.16525 1.25,4.90625 -1.592,-1.362 -3.047,-2.96475 -4.75,-4.21875 -0.638,-0.47 -5.41425,-2.95725 -5.15625,-0.78125 1.09,-1.702 4.45025,0.44475 5.53125,1.34375 2.987,2.48 4.63175,5.7065 6.34375,9.0625 1.517,2.974 4.43375,5.48325 7.46875,6.78125 3.57,1.528 7.944,2.2495 11.75,1.5625 3.250999,-0.589 5.689249,-1.64575 8.656249,-3.09375 -7.609999,4.4 -12.120249,11.08125 -13.281249,19.78125 -0.0597,0.44731 -0.11878,0.89505 -0.15625,1.34375 0.69734,0.12825 1.39666,0.25181 2.09375,0.375 0.38807,-4.59895 1.69088,-9.13572 4.46875,-12.875 0.658,-0.886 7.138499,-6.31825 7.687499,-5.28125 0.351,0.663 -0.20825,2.64075 -0.28125,3.46875 -0.142,1.598 -0.382,3.18125 -0.5,4.78125 -0.237,3.212 -0.2825,6.44025 -0.1875,9.65625 0.02,0.66997 0.031,1.33069 0.0625,2 1.33681,0.18288 2.66416,0.36821 4,0.53125 -0.19457,-1.42853 -0.3917,-2.84648 -0.4375,-4.21875 -0.238,-7.12 0.52575,-14.32425 2.59375,-21.15625 1.418,-4.68 3.60425,-9.2245 6.03125,-13.5625 2.189,-3.915 4.01775,-8.28475 7.09375,-11.59375 1.25,-1.344 1.38375,-1.1665 2.96875,-0.3125 1.126,0.605 2.008,1.0515 2.875,2.0625 1.001,1.171 1.7185,2.55675 2.3125,3.96875 0.221,0.527 1.62975,3.3565 1.34375,3.8125 0.39,-0.622 1.16275,-0.95525 1.84375,-1.28125 -0.237,-1.128 -1.1905,-3.79 -0.8125,-4.875 0.247,-0.708 1.80125,-1.5815 2.40625,-1.9375 -1.019,-2.531 -1.4555,-0.32725 -3.3125,-0.40625 -1.073,-0.05 -1.924,-1.55625 -2.625,-2.40625 -1.122,-1.354 -3.1495,-3.46025 -3.1875,-5.28125 -0.036,-1.783 1.39425,-3.38775 2.40625,-4.71875 1.09,-1.436 1.927,-3.01675 3,-4.46875 1.218,-1.654 2.4025,-3.39475 3.6875,-4.96875 1.336,-1.637 3.27875,-3.6405 5.59375,-3.4375 4.376,0.385 6.74325,6.3955 8.78125,9.5625 2.921,4.542 2.151,9.0855 -2.25,12.5625 -1.984,1.567 -4.05825,0.0785 -5.03125,2.4375 1.479,1.279 2.71275,0.80625 2.21875,3.03125 -0.127,0.569 -0.78525,1.75625 -0.65625,2.28125 0.179,0.734 1.52175,1.47325 2.09375,1.90625 -0.222,-4.825 3.7275,-8.29375 7.4375,-10.59375 2.098,-1.301 3.08025,-0.869 4.40625,1.25 1.021,1.631 1.65475,3.49425 2.34375,5.28125 0.965,2.505 1.46475,5.2545 2.59375,7.6875 1.095,2.355 1.062,4.88975 1.75,7.34375 0.705,2.506 1.4585,4.95325 1.9375,7.53125 1.48962,8.00033 2.25633,16.11636 2.40625,24.25 1.66141,-0.23528 3.30929,-0.50583 4.96875,-0.78125 -0.035,-1.10511 -0.062,-2.22332 -0.125,-3.3125 -0.285,-4.99 -0.7515,-9.84 -1.6875,-14.75 -0.408,-2.136 -1.39325,-4.59425 -1.40625,-6.65625 1.983,1.014 3.39975,2.84075 4.84375,4.46875 4.536,5.11 7.9705,10.57275 8.3125,17.59375 0.012,0.2478 -0.006,0.50199 0,0.75 0.52077,-0.11253 1.04193,-0.22708 1.5625,-0.34375 -0.36963,-4.71885 -1.82078,-9.30561 -4.75,-13.71875 -1.556,-2.344 -2.919,-4.75075 -4.625,-6.96875 -0.561,-0.729 -1.1575,-1.445 -1.8125,-2.125 2.169,0.837 4.04675,1.21775 6.34375,1.34375 4.049,0.222 7.95,-1.949 10.25,-5.25 1.87,-2.68 3.091,-5.6405 5.25,-8.1875 1.487,-1.755 3.633,-2.782 5.125,-4.5 -3.475,1.025 -6.52825,4.2915 -8.15625,7.4375 0.259,-0.882 0.38575,-1.796 0.46875,-2.75 0.133,-1.556 0.1105,-3.15825 0.1875,-4.65625 0.077,-1.489 0.19825,-3.05325 0.40625,-4.53125 0.476,-3.393 1.21725,-8.231 4.28125,-10.375 -0.892,0.624 -1.8105,1.18675 -2.4375,2.09375 -1.476,2.137 -2.22225,5.2695 -2.53125,7.8125 -0.657,5.415 -0.18775,11.049 -2.84375,16 -1.625,3.025 -5.04,4.693 -8.375,5.125 -3.848,0.499 -7.48875,-1.5135 -10.21875,-4.1875 -2.869,-2.812 -4.3245,-6.9015 -5.6875,-10.5625 -2.296,-6.168 -3.9435,-12.71225 -6.4375,-18.78125 -2.123,-5.166 -5.0205,-10.3175 -6.3125,-15.8125 -2.491,-10.599 -2.187,-22.11225 -2.125,-32.90625 0.033,-5.623 0.19575,-11.22775 0.46875,-16.84375 0.145,-2.985 -0.008,-5.9775 0,-8.9375 0.004,-1.713 0.45,-3.42875 1.625,-4.71875 1.419,-1.557 3.56425,-1.2075 5.53125,-1.4375 1.788,-0.209 4.4485,-0.98875 6.1875,-0.71875 1.648,0.257 2.834,1.9795 2.25,3.4375 -0.721,1.794 -3.24575,2.92075 -3.09375,4.96875 1.787,-0.124 2.9275,-5.8525 4.6875,-4.5625 2.5,1.833 -3.187,6.7755 -2.75,8.9375 0.974,-0.59 1.724,-3.68275 2.75,-3.84375 1.028,-0.16 1.9325,3.97425 2.6875,4.90625 1.321,-0.867 -2.65875,-5.55675 -1.09375,-7.46875 1.389,-1.694 3.53575,2.678 4.71875,3.625 -0.114,-1.484 -1.79525,-3.17475 -2.78125,-4.21875 -0.441,-0.468 -2.62575,-2.2115 -2.46875,-2.8125 0.128,-0.499 0.9085,-0.6565 1.9375,-0.6875 -1.434,-0.08 -2.68975,-0.52225 -3.34375,-1.78125 -0.628,-1.214 -0.4645,-2.15625 1.0625,-2.28125 1.283,-0.105 1.945,1.4075 3.125,1.9375 -0.009,-0.962 -1.62925,-1.7195 -1.53125,-2.4375 0.109,-0.811 3.14375,-1.794 3.84375,-2.25 1.51,-0.985 2.6625,-3.11125 3.3125,-4.78125 -0.716,0.432 -1.57425,1.50575 -2.03125,2.21875 -0.637,-1.033 0.39675,-2.33925 -0.53125,-3.40625 -0.452,1.08 0.14575,2.084 -0.0312,3.125 -0.188,1.111 -0.9385,1.32025 -1.9375,1.90625 -1.918,1.124 -3.8385,2.1605 -5.9375,2.6875 -2.471,0.621 -3.60975,-0.26775 -1.96875,-2.71875 0.621,-0.928 1.4035,-2.181 2.3125,-2.75 1.142,-0.716 2.7515,-1.00925 3.9375,-1.78125 -0.837,-0.52 -2.288,0.32975 -3.25,0.34375 0.877,-2.24 3.83925,-4.201 4.15625,-6.625 -4.331,2.174 -5.448,8.61125 -9.75,11.03125 -2.756,1.551 -6.488,1.00975 -9.5,0.84375 -0.113,0 -0.0935,-5.5235 -0.0625,-6.0625 0.262,-4.769 0.4455,-9.5495 0.8125,-14.3125 0.759,-9.812 1.052,-19.27525 2.25,-29.03125 1.026,-8.367 1.7665,-16.76425 2.5625,-25.15625 0.324,-3.411 0.43,-6.73425 0.625,-10.15625 0.104,-1.836 0.2205,-3.667 0.3125,-5.5 0.188,-3.761 0.341,-7.51925 0.5,-11.28125 0.25,-5.935 1.30175,-11.84225 1.46875,-17.78125 0.116,-4.207 0.15375,-8.418 0.21875,-12.625 0.031,-2.057 0.23675,-4.1325 0.21875,-6.1875 -0.017,-2.063 -0.237,-4.04475 -0.125,-6.09375 0.111,-2.046 0.4955,-4.6335 -0.6875,-6.4375 -0.98175,-1.49581 -2.18621,-1.97332 -3.40625,-1.84375 z m 19.09375,158.6875 c -1.244,0.06 -2.94875,0.419 -4.59375,0.5 1.83,0.04 3.90175,0.191 4.59375,-0.5 z"
   style="color:#000000;fill:#f2f2f2;fill-opacity:1;fill-rule:nonzero;stroke:#979a9b;stroke-width:0.31600001;stroke-linecap:butt;stroke-linejoin:miter;stroke-miterlimit:4;stroke-opacity:0.5;stroke-dasharray:none;stroke-dashoffset:0;marker:none;visibility:visible;display:inline;overflow:visible;enable-background:accumulate" /><path
   style="color:#000000;fill:none;stroke:#a9b5bf;stroke-width:0.9896;stroke-linecap:butt;stroke-linejoin:miter;stroke-miterlimit:4;stroke-opacity:1;stroke-dasharray:none;stroke-dashoffset:0;marker:none;visibility:visible;display:inline;overflow:visible;enable-background:accumulate"
   d="M 75.726011,294.20364 C 123.42573,257.10919 161.5962,263.74066 195.59869,290.01455"
   id="path3903"
   inkscape:connector-curvature="0"
   sodipodi:nodetypes="cc" /><path
   style="fill:none;stroke:#a9b5bf;stroke-width:1.28699994"
   id="path69"
   d="m 139.44222,105.38683 c 0.179,2.297 0.341,4.547 0.217,6.573 -1.469,0.169 -2.714,0.332 -4.056,0.526 0.341,-0.05 -0.714,-16.350004 -0.965,-17.850004 -0.694,-4.14 -5.079,-6.728 -5.43,-10.351 -0.052,1.482 0.625,2.707 1.891,3.527 -2.889,1.425 -10.224,0.01 -9.188,-4.541 3.033,1.194 9.22,-0.829 9.689,-4.371 -3.902,6.998 -14.147,5.323 -19.651,1.954 -2.15,-1.318 -4.069,-3.171 -4.681,-5.703 -0.247,-1.022 1.17,-6.85 1.315,-6.681 -1.499,-1.743 -5.641,-8.735 -2.449,-10.835 2.855,-1.878 5.549,4.026 8.823,3.449 -2.973,0.525 -7.356,-4.052 -8.581,-6.643 -2.352,-4.971 0.5,-7.079 1.528,-11.181 0.581,-2.315 1.242,-4.771 2.34,-6.949 0.532,-1.053 1.288,-2.97 2.51,-3.408 1.18,-0.423 1.863,0.634 2.888,0.32 1.505,-0.462 3.52,-3.006 5.132,-3.804 1.878,-0.929 3.978,-1.445 6.057,-0.685 0.706,-3.455001 7.966,-2.965001 10.056,-1.310001 3.24,2.568001 1.584,9.457001 1.584,12.926001 0,4.742 -0.323,9.325 -0.323,14.076 0,-4.987 0,-9.974 0,-14.96 0,-4.148 -1.717,-11.29 3.535,-12.952001 4.299,-1.362 4.975,0.91 8.364,1.939001 1.396,0.424 3.283,-0.04 4.752,0.235 1.843,0.347 2.687,1.094 4.192,2 1.908,1.151 5.39,1.536 6.214,4.192 0.31,0.994 -0.541,1.992 0.041,3.226 0.581,1.228 2,1.512 2.84,2.496 1.281,1.498 1.999,4.704 0.758,6.424 3.608,3.379 3.211,6.825 0.224,10.393 1.01,2.04 -3.886,4.692 -5.41,5.474 2.479,-0.357 4.967,-6.811 7.066,-3.197 1.752,3.018 -0.202,7.132 -2.7,9.067 0.544,-0.396 1.228,-0.599 1.79,-0.952 -2.055,1.29 -1.464,10.217 -4.687,12.819 -2.919,2.356 -9.674,3.385 -11.759,-0.527 2.912,4.154 -4.43,11.454 -7.966,6.74 -1.684,1.138 -3.2,3.006 -4.558,4.5 2.241,-3.122 4.06,-7.329 3.635,-11.265 0.65,4.555 -2.605,8.581 -3.963,12.677 -1.372,4.135 -1.413,8.307004 -1.074,12.632004 z"
   inkscape:connector-curvature="0" /><path
   style="color:#000000;fill:#f2f2f2;fill-opacity:1;fill-rule:nonzero;stroke:#979a9b;stroke-width:0.31600001;stroke-linecap:butt;stroke-linejoin:miter;stroke-miterlimit:4;stroke-opacity:0.5;stroke-dasharray:none;stroke-dashoffset:0;marker:none;visibility:visible;display:inline;overflow:visible;enable-background:accumulate"
   id="path71"
   d="m 146.41422,149.36982 c 0.802,0.748 2.568,3.74 3.876,3.411 0.761,-0.191 0.548,-1.512 0.42,-2.045 -0.186,-0.769 -0.493,-1.042 -1.143,-1.42 -1.626,-0.944 -2.715,-2.4 -3.414,-4.144 -0.813,-2.028 -1.589,-3.94 -1.891,-6.136 -0.233,-1.692 -0.262,-3.367 -0.539,-5.053 -0.322,-1.951 -0.563,-3.921 -0.563,-5.901 0,-7.368 -0.253,-14.74099 -0.438,-22.08099 -0.043,-1.75 -0.148,-3.541 -0.327,-5.284 -0.278,-2.732004 -0.335,-5.542004 -1.21,-8.170004 -0.401,-1.208 -1.075,-2.243 -1.662,-3.359 -0.49,-0.928 -1.552,-1.653 -1.608,-2.755 -0.07,-1.326 0.045,-2.641 -0.023,-3.958 -0.048,-0.958 -0.055,-1.499 0.792,-1.971 0.718,-0.399 1.86,-1.007 2.643,-0.622 -0.084,-0.42 -0.175,-0.847 -0.197,-1.272 -1.668,-0.458 -2.823,0.907 -4.268,1.417 -0.538,0.19 -1,-0.07 -1.532,-0.222 -0.826,-0.233 -1.768,-0.182 -2.598,-0.227 -0.125,0.348 -0.212,0.751 -0.268,1.112 1.093,0.125 2.154,-0.174 3.241,0.296 0.925,0.4 0.974,1.11 1.028,2 0.083,1.318 0.217,2.912 0.021,4.219 -0.144,0.958 -0.95,1.633 -1.49,2.373 -0.523,0.718 -0.877,1.571 -1.036,2.451 -0.448,2.483 -0.576,5.013 -0.618,7.532 -0.04,2.416004 -0.261,4.799004 -0.387,7.211004 -0.315,6.031 -0.127,12.05399 0.188,18.06999 0.124,2.372 0.13,4.691 -0.022,7.051 -0.324,5.011 -1.662,9.32 -4.09,13.699 -0.645,1.164 -1.698,2.263 -2.065,3.54 -0.326,1.128 -0.112,2.413 0.218,3.524 -0.012,-0.04 -0.008,-0.09 0.011,-0.13 0.627,-0.254 1.108,-1.458 1.499,-2.016 0.769,-1.099 1.534,-2.071 2.153,-3.287 0.906,-1.78 1.67,-3.699 2.303,-5.6 0.673,-2.014 1.204,-3.875 1.445,-5.985 0.392,-3.439 0.779,-6.714 0.633,-10.197 -0.13,-3.103 -0.51,-6.169 -0.323,-9.27399 0.085,-1.424 0.001,-2.875 -0.091,-4.306 -0.238,-3.754 -0.245,-7.551 -0.259,-11.301 -0.003,-0.915004 0.154,-1.828004 0.09,-2.741004 -0.14,-1.978 0.029,-7.384 2.458,-8.247 0.737,-0.263 1.204,0.633 1.469,1.161 0.371,0.747 0.835,1.463 1.147,2.245 0.846,2.11 0.861,4.408 0.893,6.646 0.031,2.273004 0.056,4.518004 0.177,6.793004 0.093,1.683 -0.002,3.396 -0.002,5.08 0,3.48 0.106,6.97199 0.088,10.44399 -0.014,2.866 0.153,5.759 0.176,8.626 0.009,0.985 0.017,2.012 0.193,2.979 0.55,3.016 0.802,5.936 1.563,8.941 0.617,2.436 1.441,5.109 3.339,6.883 z"
   inkscape:connector-curvature="0" /><path
   style="fill:#b62717;stroke:#ffbf00;stroke-width:0.31600001"
   d="m 161.48196,197.93879 c -1.56862,0.16659 -3.17756,1.30775 -4.5,2.46875 -1.314,1.154 -2.156,2.45675 -1.75,4.09375 0.482,1.945 0.9395,3.7365 0.8125,5.8125 -0.408,6.705 -0.27125,13.35625 -1.28125,20.03125 -0.684,4.516 -0.841,9.16275 -1.25,13.71875 -0.411,4.582 -1.244,9.1025 -1.625,13.6875 -0.315,3.787 -1.15175,7.53375 -1.34375,11.34375 -0.215,4.255 -0.4865,8.52125 -0.5625,12.78125 -0.197,10.917 -1.5335,21.755 -2.4375,32.625 -0.786,9.467 -1.659,18.93425 -2.375,28.40625 -0.079,1.063 -0.14075,2.1245 -0.21875,3.1875 -0.692,0.625 -1.873,0.79725 -2.75,1.03125 -2.63,0.705 -4.05911,1.02752 -6.89828,1.39961 -2.67916,0.35111 -3.51664,5.81143 1.71088,5.41289 1.66716,-0.1271 3.74175,-0.712 5.34375,-0.125 0.787,0.289 1.498,0.946 2,1.75 -0.026,0.491 -0.0677,0.97875 -0.0937,1.46875 -0.133,2.529 -0.8435,4.768 -1.0625,7.25 -0.362,4.065 -0.17025,8.1305 -0.40625,12.1875 -0.407,7.002 -0.62825,14.006 -1.15625,21 -0.616,8.169 -2.16225,16.39 -6.90625,23.25 -2.61187,4.08989 -5.06239,7.4531 -7.58044,10.77756 -1.67708,2.21418 1.58775,6.38091 4.26794,2.87869 1.09565,-1.43169 1.927,-3.01675 3,-4.46875 1.218,-1.654 2.4025,-3.39475 3.6875,-4.96875 1.336,-1.637 3.27875,-3.6405 5.59375,-3.4375 4.376,0.385 8.05026,8.59559 9.95121,11.8467 2.25136,3.85042 7.57608,0.6525 6.14988,-2.48561 -2.31088,-5.08473 -2.18409,-4.95984 -3.47609,-10.45484 -2.491,-10.599 -2.187,-22.11225 -2.125,-32.90625 0.033,-5.623 0.19575,-11.22775 0.46875,-16.84375 0.145,-2.985 -0.008,-5.9775 0,-8.9375 0.004,-1.713 0.45,-3.42875 1.625,-4.71875 1.419,-1.557 3.56425,-1.2075 5.53125,-1.4375 4.28295,-0.41779 2.96285,-6.1696 -0.52726,-5.6048 -1.35879,0.21989 -2.92222,0.54082 -4.50394,0.44855 -0.113,0 -0.0935,-5.5235 -0.0625,-6.0625 0.262,-4.769 0.4455,-9.5495 0.8125,-14.3125 0.759,-9.812 1.052,-19.27525 2.25,-29.03125 1.026,-8.367 1.7665,-16.76425 2.5625,-25.15625 0.324,-3.411 0.43,-6.73425 0.625,-10.15625 0.104,-1.836 0.2205,-3.667 0.3125,-5.5 0.188,-3.761 0.341,-7.51925 0.5,-11.28125 0.25,-5.935 1.30175,-11.84225 1.46875,-17.78125 0.116,-4.207 0.15375,-8.418 0.21875,-12.625 0.031,-2.057 0.23675,-4.1325 0.21875,-6.1875 -0.017,-2.063 -0.237,-4.04475 -0.125,-6.09375 0.111,-2.046 0.4955,-4.6335 -0.6875,-6.4375 -0.98175,-1.49581 -2.18621,-1.97332 -3.40625,-1.84375 z"
   id="path79"
   inkscape:connector-curvature="0"
   sodipodi:nodetypes="cccccccccccccsscccccccsscccssccccccsccccccccccccccc" /><g
   id="g3936"
   transform="translate(11.581993,-0.70910066)"><path
     sodipodi:nodetypes="ccccccc"
     inkscape:connector-curvature="0"
     id="path3141"
     d="m 144.88738,285.51852 c -0.29294,0.80508 -0.17065,1.71656 -0.15427,2.41433 0.23017,0.6657 0.0635,1.34692 0.36269,2.03996 0.16361,0.44868 0.40436,0.99485 0.0769,1.50714 -0.3647,0.72357 -1.40842,1.03636 -2.11228,0.56839 -0.62293,-0.36003 -0.73124,-1.09941 -0.92967,-1.6607 -0.76216,-1.96266 -0.89621,-3.70558 -0.59211,-5.34982"
     style="color:#000000;fill:#b62717;fill-opacity:1;fill-rule:nonzero;stroke:#ffbf00;stroke-width:0.31600001;stroke-linecap:butt;stroke-linejoin:miter;stroke-miterlimit:4;stroke-opacity:1;stroke-dasharray:none;stroke-dashoffset:0;marker:none;visibility:visible;display:inline;overflow:visible;enable-background:accumulate" /><path
     transform="matrix(0.66666667,0,0,0.59090909,50.937112,117.78785)"
     d="m 140.87482,293.17407 c 0,0.71798 -0.63495,1.30002 -1.4182,1.30002 -0.78325,0 -1.4182,-0.58204 -1.4182,-1.30002 0,-0.71798 0.63495,-1.30002 1.4182,-1.30002 0.78325,0 1.4182,0.58204 1.4182,1.30002 z"
     sodipodi:ry="1.3000194"
     sodipodi:rx="1.418203"
     sodipodi:cy="293.17407"
     sodipodi:cx="139.45662"
     id="path3934"
     style="opacity:0.5;color:#000000;fill:#000000;stroke:none;stroke-width:0.1;marker:none;visibility:visible;display:inline;overflow:visible;enable-background:accumulate"
     sodipodi:type="arc" /></g><path
   style="fill:#f2f2f2;stroke:#a9b5bf;stroke-width:0.9896"
   id="path97"
   d="m 121.13022,234.07082 c 0.008,2.55 0.026,5.097 0.059,7.646 0.102,7.823 2.201,10.998 -3.812,16.313 -9.722,8.595 -20.481999,19.635 -33.117999,23.914 -16.299,5.517 -14.023,-29.399 -13.221,-37.253 1.874,-18.338 9.871,-36.603 22.586,-50.016 4.726,-4.987 13.524999,-16.507 21.257999,-15.208 11.636,1.955 6.307,22.257 6.307,29.852 0,8.247 -0.082,16.502 -0.059,24.752 z"
   inkscape:connector-curvature="0" /><path
   d="m 134.28828,224.23881 c -0.27479,0.75151 -0.74905,1.56346 -1.06677,2.25612 -0.31769,0.69284 -0.70101,1.16825 -0.7944,1.7319 -0.0935,0.56367 -0.29404,2.0818 -0.45777,2.8822 -0.1638,0.8005 -0.27715,0.9785 -0.55196,1.72982 -0.27478,0.7515 -0.54255,1.30748 -0.58389,1.99353 -0.0414,0.68568 0.0148,1.32546 -0.10117,1.7305 -0.11578,0.4052 -0.40697,1.77408 -0.40534,2.51859 0.002,0.74442 0.36038,2.53933 0.42592,2.75678 0.0655,0.21737 -0.10483,0.72739 -0.14825,1.15445 -0.0433,0.42715 -0.17599,1.93565 0.0225,2.84627 0.19863,0.91098 0.5443,2.12493 1.02631,2.83358 0.62952,0.92567 0.79204,1.18283 1.05202,1.79369 0.26004,0.61067 0.52214,1.48013 0.88666,1.84958 0.36448,0.36918 1.55737,1.68946 1.94232,1.95857 0.38486,0.26911 0.57734,0.40371 1.0213,0.59989 0.44381,0.19581 0.97623,0.28236 1.21162,0.47561 0.23549,0.19325 0.70399,0.80675 1.22483,1.05666 0.52084,0.24992 1.54665,0.88159 2.40053,1.27848 0.8538,0.397 2.36439,1.02452 3.26569,1.51185 0.90132,0.48752 1.55117,0.91346 2.35753,1.21984 0.80635,0.30637 2.48888,1.16867 3.54909,1.30972 1.0602,0.14104 2.77505,0.25373 3.95573,0.0213 3.85688,0.27997 8.58411,0.33171 13.11901,0.28274 10.85474,-0.11724 19.9424,-2.14988 6.49976,-27.94636 -0.51009,-1.04992 -0.92328,-2.09334 -1.1269,-2.5501 -0.20365,-0.45694 -1.07699,-1.72531 -1.71995,-2.34638 -0.64299,-0.62125 -1.44895,-1.41352 -1.44895,-1.41352 -9.26866,-14.22156 -27.52371,-17.30665 -35.55548,-3.53534 z"
   id="path4"
   inkscape:connector-curvature="0"
   style="opacity:0.3;color:#000000;fill:#b62717;fill-opacity:1;fill-rule:nonzero;stroke:#ffbf00;stroke-width:0.31600001;stroke-linecap:butt;stroke-linejoin:miter;stroke-miterlimit:4;stroke-opacity:1;stroke-dasharray:none;stroke-dashoffset:0;marker:none;visibility:visible;display:inline;overflow:visible;enable-background:accumulate"
   sodipodi:nodetypes="cccccccccccccccccsccsscsccccc" /><g
   id="g4218"
   transform="translate(1.8606408e-6,8.1881467e-7)"><path
     sodipodi:nodetypes="ssss"
     transform="translate(-8.6948925e-6,0)"
     inkscape:connector-curvature="0"
     id="path4199"
     d="m 148.20221,230.77314 c 3.86067,0.39395 5.67282,-0.94547 5.98797,-4.72734 0.31516,-3.78188 -3.93945,-1.33941 -4.88492,-0.39395 -0.94547,0.94547 -3.63295,4.86313 -1.10305,5.12129 z"
     style="color:#000000;fill:#b62717;fill-opacity:1;fill-rule:nonzero;stroke:#ffbf00;stroke-width:0.31600001;stroke-linecap:butt;stroke-linejoin:miter;stroke-miterlimit:4;stroke-opacity:1;stroke-dasharray:none;stroke-dashoffset:0;marker:none;visibility:visible;display:inline;overflow:visible;enable-background:accumulate" /><path
     sodipodi:nodetypes="sscscccsscsssssscssccscccsss"
     inkscape:connector-curvature="0"
     id="path129"
     d="m 155.54446,183.72004 c -0.63753,2.09389 -1.66284,7.03219 -2.21465,8.45659 -0.42402,1.09452 -1.014,0.70677 -0.93071,-0.12091 0.344,-3.388 0.50514,-6.436 0.63178,-10.25 0.0945,-2.84626 -4.8435,-3.16614 -4.67382,0.63307 0.16555,4.10315 -0.62209,7.05103 -0.27288,11.2063 0.0516,0.55924 -1.62961,1.13734 -1.98532,1.40244 -1.0546,0.94959 -7.0618,-8.14214 -8.31929,-9.71748 -3.96363,-4.9655 -10.08628,0.0802 -7.56912,2.83582 2.67358,2.92682 2.73976,3.73742 4.92776,6.71042 1.412,1.917 3.9528,5.80144 3.61836,7.32879 -0.36525,1.66807 -1.03481,3.76163 -1.17254,5.28656 -0.15427,1.70807 0.0142,4.72699 0.45512,6.38563 1.15651,4.35051 1.74408,6.25378 3.32215,9.97175 0.96393,2.27103 0.76594,4.318 2.50433,6.04418 0.54588,0.54204 2.09893,2.47014 4.42432,1.05197 0.60711,-0.37026 1.79536,-2.05915 1.99909,-3.75807 0.7418,-0.0318 1.60638,-0.1181 2.19257,-0.24541 2.55618,-0.55514 2.978,-2.12508 2.28789,-4.43306 -0.39137,-1.30886 -3.00616,-2.95118 -3.90316,-3.93218 -1.793,-1.963 -2.01181,-1.8905 -2.82481,-4.3225 -0.84,-2.516 -0.63073,-5.78301 0.94777,-8.49168 0.97701,-1.67652 5.15216,-3.68548 6.30516,-1.44848 l 9.97793,-3.7952 c -0.90594,-2.1017 -3.15643,-4.6098 -3.54043,-5.0798 -1.337,-1.636 -2.66146,-2.0258 -4.65625,-2.5 -0.56334,-0.13392 1.32836,-5.98723 1.77587,-7.02332 1.78884,-4.14156 -2.67542,-4.27019 -3.30712,-2.19543 z"
     style="fill:#b62717;stroke:#ffbf00;stroke-width:0.31600001" /><path
     style="color:#000000;fill:#b62717;fill-opacity:1;fill-rule:nonzero;stroke:#ffbf00;stroke-width:0.31600001;stroke-linecap:butt;stroke-linejoin:miter;stroke-miterlimit:4;stroke-opacity:1;stroke-dasharray:none;stroke-dashoffset:0;marker:none;visibility:visible;display:inline;overflow:visible;enable-background:accumulate"
     d="m 150.28905,227.1871 c -0.0635,-1.18848 -1.13611,-2.1601 -2.40175,-2.31608"
     id="path4222"
     inkscape:connector-curvature="0"
     transform="translate(-8.6948925e-6,0)"
     sodipodi:nodetypes="cc" /></g><path
   style="opacity:0.27999998;fill:#0060b6;stroke:#3ac6dd;stroke-width:0.31600001"
   id="path131"
   d="m 182.81222,338.52282 c -0.164,0.08 -0.326,0.153 -0.491,0.233 0.156,-0.04 0.322,-0.125 0.491,-0.233 z"
   inkscape:connector-curvature="0" /><g
   id="g3948"
   transform="translate(1.8606408e-6,8.1881467e-7)"><path
     sodipodi:nodetypes="cccc"
     style="fill:#b62717;stroke:#ffbf00;stroke-width:0.31600001"
     id="path89"
     d="m 147.43115,377.57566 c 0.44192,4.49318 5.24314,9.39946 7.56214,11.53746 0.77948,0.67913 2.04802,-0.52859 0.59145,-1.47749 -3.51041,-2.52415 -5.76904,-6.47755 -6.51018,-10.35309"
     inkscape:connector-curvature="0" /><path
     transform="translate(-0.82729378,-4.2940035)"
     d="m 156.75083,392.84222 c 0,0.23933 -0.17637,0.43334 -0.39394,0.43334 -0.21757,0 -0.39395,-0.19401 -0.39395,-0.43334 0,-0.23932 0.17638,-0.43334 0.39395,-0.43334 0.21757,0 0.39394,0.19402 0.39394,0.43334 z"
     sodipodi:ry="0.4333398"
     sodipodi:rx="0.39394528"
     sodipodi:cy="392.84222"
     sodipodi:cx="156.35689"
     id="path3946"
     style="opacity:0.5;color:#000000;fill:#000000;fill-opacity:1;fill-rule:nonzero;stroke:none;stroke-width:3;marker:none;visibility:visible;display:inline;overflow:visible;enable-background:accumulate"
     sodipodi:type="arc" /></g>







































































































































































<path
   d="m 147.27822,371.32983 c -0.84,0.942 -2.522,1.524 -3.617,2.257 -1.622,1.088 -3.289,2.172 -4.842,3.371 -4.024,3.109 -6.294,6.691 -7.999,11.433 -1.736,4.833 -3.16,9.755 -5.252,14.432 -2.142,4.793 -4.953,9.375 -8.083,13.583 -2.256,3.032 -4.68,5.814 -6.739,8.993 -1.975,3.048 -5.654,6.571 -6.474,10.155 -0.719,3.145 3.34,6.641 5.501,8.416 3.801,3.121 7.491,6.517 10.626,10.317 2.431,2.947 2.338,6.521 2.832,10.141 0.452,3.316 1.005,6.669 1.634,9.954 0.466,2.439 0.866,4.396 2.588,6.192 1.875,1.952 3.495,2.341 6.126,2.635 -1.711,1.349 -5.251,-1.127 -6.525,-2.317 -1.891,-1.768 -3.05,-4.706 -3.599,-7.195 -0.697,-3.148 -1.18,-6.426 -1.492,-9.638 -0.258,-2.657 -0.25,-5.133 -1.878,-7.376 -2.021,-2.784 -4.709,-5.06 -7.041,-7.57 -1.642,-1.77 -3.476,-3.278 -5.305,-4.843 -2.19,-1.876 -7.574,-6.101 -5.305,-9.421 1.357,-1.984 2.755,-4.031 4.132,-6.037 2.783,-4.053 5.763,-7.974 8.644,-11.986 3.966,-5.521 7.296,-11.498 9.799,-17.822 1.115,-2.815 2.47,-5.559 3.372,-8.451 0.923,-2.958 1.535,-6.101 3.217,-8.752 1.713,-2.703 5.091,-5.199 7.68,-7.039 1.218,-0.866 2.352,-1.923 3.58,-2.711 1.353,-0.868 2.945,-1.204 4.116,-2.381 m 3.328,1.961 c 3.488,2.75 7.034,4.354 9.059,8.574 1.461,3.046 2.134,6.248 3.226,9.411 1.019,2.951 2.246,5.902 3.267,8.891 0.992,2.904 2.188,5.652 3.322,8.489 0.713,1.784 1.192,3.627 1.967,5.375 0.843,1.905 1.632,3.803 2.435,5.719 1.231,2.932 3.028,5.532 4.478,8.368 0.914,1.787 2.536,4.188 1.639,6.279 -0.571,1.33 -1.758,3.238 -2.731,4.305 -1.557,1.706 -3.347,2.609 -5.269,3.746 -1.982,1.171 -3.882,2.848 -5.616,4.359 -3.416,2.977 -6.404,6.538 -7.913,10.868 -1.888,5.424 -2.393,11.077 -3.958,16.535 -0.662,2.308 -1.677,4.521 -3.071,6.479 -0.923,1.298 -3.313,4.605 -5.03,4.823 9.979,-1.266 9.798,-18.276 12.274,-25.078 2.527,-6.941 7.806,-12.661 13.873,-16.683 2.068,-1.369 4.474,-2.523 6.296,-4.219 1.102,-1.025 2.385,-2.425 2.803,-3.865 0.647,-2.227 -0.35,-4.896 -1.521,-6.777 -0.945,-1.517 -1.523,-3.148 -2.259,-4.756 -0.823,-1.801 -1.986,-3.426 -2.802,-5.231 -1.523,-3.377 -2.699,-6.783 -3.899,-10.283 -2.179,-6.352 -4.722,-12.548 -6.56,-18.994 -1.05,-3.681 -2.104,-7.679 -4.225,-10.901 -1.143,-1.737 -2.755,-2.961 -4.315,-4.261 -1.667,-1.389 -3.327,-2.921 -5.167,-4.042"
   style="color:#000000;fill:#f2f2f2;fill-opacity:1;fill-rule:nonzero;stroke:#979a9b;stroke-width:0.31600001;stroke-linecap:butt;stroke-linejoin:miter;stroke-miterlimit:4;stroke-opacity:0.5;stroke-dasharray:none;stroke-dashoffset:0;marker:none;visibility:visible;display:inline;overflow:visible;enable-background:accumulate"
   id="path4367"
   inkscape:connector-curvature="0" /><path
   style="fill:#b62717;stroke:none"
   d="m 158.95071,193.65754 -4.53125,9.75 c 0.31824,0.10242 0.63746,0.2345 0.875,0.59375 l 0.0312,0.0312 0,0.0312 c 0.0175,0.13942 0.0315,0.28125 0.0625,0.40625 0.48183,1.94433 0.94125,3.73914 0.8125,5.84375 -0.008,0.13454 -0.0242,0.2705 -0.0312,0.40625 l 9.34375,0.65625 c -0.0554,-1.72461 -0.18935,-3.40782 -0.0937,-5.15625 0.0972,-1.79099 0.36692,-3.95468 -0.3125,-5.625 -4.5e-4,-0.001 0.002,-0.0186 0,-0.0312 -0.002,-0.0127 -3.4e-4,-0.0232 0,-0.0312 -0.0293,-0.065 -0.0848,-0.13645 -0.125,-0.21875 -0.47728,-1.00199 -1.2256,-2.08145 -1.90625,-2.96875 -0.68065,-0.8873 -1.27747,-1.57838 -1.46875,-1.8125 -0.83178,-1.01779 -1.66201,-1.50857 -2.65625,-1.875 z"
   id="path4105"
   inkscape:connector-curvature="0" />

















<g
   id="g3942"
   transform="translate(1.8606408e-6,8.1881467e-7)"><path
     sodipodi:nodetypes="ccccc"
     style="fill:#b62717;stroke:#ffbf00;stroke-width:0.31600001"
     id="path83"
     d="m 148.62822,337.74983 c -0.924,2.573 -0.73599,6.67329 -0.74199,9.39529 -0.004,2.38 0.55199,4.58871 1.12299,6.92471 0.41789,3.12152 2.75823,2.42541 2.204,1.108 -1.721,-4.828 -2.031,-11.095 -1.005,-16.023"
     inkscape:connector-curvature="0" /><path
     transform="matrix(0.83275357,0.32586007,-0.32586007,0.83275357,144.31833,13.244786)"
     d="m 146.52328,353.88031 c 0,0.27692 -0.29932,0.50141 -0.66854,0.50141 -0.36923,0 -0.66855,-0.22449 -0.66855,-0.50141 0,-0.27692 0.29932,-0.50141 0.66855,-0.50141 0.36922,0 0.66854,0.22449 0.66854,0.50141 z"
     sodipodi:ry="0.50141048"
     sodipodi:rx="0.66854733"
     sodipodi:cy="353.88031"
     sodipodi:cx="145.85474"
     id="path3940"
     style="opacity:0.5;color:#000000;fill:#000000;stroke:none;stroke-width:3;marker:none;visibility:visible;display:inline;overflow:visible;enable-background:accumulate"
     sodipodi:type="arc" /></g>


<path
   sodipodi:type="arc"
   style="opacity:0.5;color:#000000;fill:#000000;fill-opacity:1;fill-rule:nonzero;stroke:none;stroke-width:3;marker:none;visibility:visible;display:inline;overflow:visible;enable-background:accumulate"
   id="path3954"
   sodipodi:cx="131.22318"
   sodipodi:cy="359.35687"
   sodipodi:rx="1.2212304"
   sodipodi:ry="1.8909373"
   d="m 132.44441,359.35687 a 1.2212304,1.8909373 0 1 1 -2.44247,0 1.2212304,1.8909373 0 1 1 2.44247,0 z"
   transform="translate(3.9394459,-8.0364828)" /><path
   transform="matrix(0.97530248,-0.22087341,0.22087341,0.97530248,-44.931033,31.083073)"
   d="m 132.44441,359.35687 a 1.2212304,1.8909373 0 1 1 -2.44247,0 1.2212304,1.8909373 0 1 1 2.44247,0 z"
   sodipodi:ry="1.8909373"
   sodipodi:rx="1.2212304"
   sodipodi:cy="359.35687"
   sodipodi:cx="131.22318"
   id="path3956"
   style="opacity:0.5;color:#000000;fill:#000000;fill-opacity:1;fill-rule:nonzero;stroke:none;stroke-width:3;marker:none;visibility:visible;display:inline;overflow:visible;enable-background:accumulate"
   sodipodi:type="arc" /><path
   sodipodi:type="arc"
   style="opacity:0.5;color:#000000;fill:#000000;fill-opacity:1;fill-rule:nonzero;stroke:none;stroke-width:3;marker:none;visibility:visible;display:inline;overflow:visible;enable-background:accumulate"
   id="path3958"
   sodipodi:cx="128.55608"
   sodipodi:cy="439.06439"
   sodipodi:rx="2.033498"
   sodipodi:ry="1.3928069"
   d="m 130.58957,439.06439 a 2.033498,1.3928069 0 1 1 -4.06699,0 2.033498,1.3928069 0 1 1 4.06699,0 z"
   transform="matrix(0.61186078,0.66790178,-0.66790178,0.61186078,343.48219,79.047373)" /><path
   transform="matrix(-0.84973606,0.63001123,0.63001123,0.84973606,-9.9633573,-21.387612)"
   d="m 130.58957,439.06439 a 2.033498,1.3928069 0 1 1 -4.06699,0 2.033498,1.3928069 0 1 1 4.06699,0 z"
   sodipodi:ry="1.3928069"
   sodipodi:rx="2.033498"
   sodipodi:cy="439.06439"
   sodipodi:cx="128.55608"
   id="path3960"
   style="opacity:0.5;color:#000000;fill:#000000;fill-opacity:1;fill-rule:nonzero;stroke:none;stroke-width:3;marker:none;visibility:visible;display:inline;overflow:visible;enable-background:accumulate"
   sodipodi:type="arc" /><path
   sodipodi:type="arc"
   style="opacity:0.5;color:#000000;fill:#000000;fill-opacity:1;fill-rule:nonzero;stroke:none;stroke-width:3;marker:none;visibility:visible;display:inline;overflow:visible;enable-background:accumulate"
   id="path4002"
   sodipodi:cx="131.28598"
   sodipodi:cy="182.06366"
   sodipodi:rx="2.646333"
   sodipodi:ry="1.1142455"
   d="m 133.93231,182.06366 a 2.646333,1.1142455 0 1 1 -5.29266,0 2.646333,1.1142455 0 1 1 5.29266,0 z"
   transform="matrix(0.79904003,-0.49936682,0.49545516,1.1209424,-62.289076,47.07838)" /><path
   transform="matrix(0.6047592,0.04769437,-0.16073643,0.96475369,100.62287,-0.66536746)"
   d="m 133.93231,182.06366 a 2.646333,1.1142455 0 1 1 -5.29266,0 2.646333,1.1142455 0 1 1 5.29266,0 z"
   sodipodi:ry="1.1142455"
   sodipodi:rx="2.646333"
   sodipodi:cy="182.06366"
   sodipodi:cx="131.28598"
   id="path4004"
   style="opacity:0.5;color:#000000;fill:#000000;fill-opacity:1;fill-rule:nonzero;stroke:none;stroke-width:3;marker:none;visibility:visible;display:inline;overflow:visible;enable-background:accumulate"
   sodipodi:type="arc" /><path
   sodipodi:type="arc"
   style="opacity:0.5;color:#000000;fill:#000000;fill-opacity:1;fill-rule:nonzero;stroke:none;stroke-width:3;marker:none;visibility:visible;display:inline;overflow:visible;enable-background:accumulate"
   id="path4006"
   sodipodi:cx="131.28598"
   sodipodi:cy="182.06366"
   sodipodi:rx="2.646333"
   sodipodi:ry="1.1142455"
   d="m 133.93231,182.06366 a 2.646333,1.1142455 0 1 1 -5.29266,0 2.646333,1.1142455 0 1 1 5.29266,0 z"
   transform="matrix(0.4467218,0.14208072,-0.2712672,0.76328524,148.33863,26.171946)" /><path
   inkscape:connector-curvature="0"
   d="m 151.18749,231.28125 c -0.0643,-0.01 -0.31991,0.0712 -0.5,0.21875 -0.24018,0.19704 -0.39872,0.34196 -0.5,0.5625 -0.10138,0.22038 -0.0572,0.43592 -0.34375,0.625 -0.28656,0.18908 -0.563,0.23832 -0.78125,0.34375 -0.2183,0.10569 -0.52237,0.28299 -0.6875,0.46875 -0.16532,0.18599 -0.30228,0.45477 -0.375,0.65625 -0.0726,0.20163 -0.37374,0.60116 -0.625,0.84375 -0.25113,0.24261 -0.77183,0.58326 -1.09375,0.71875 -0.32187,0.13557 -0.69908,0.22136 -0.90625,0.28125 -0.20729,0.0599 -0.38046,0.16506 -0.46875,0.0312 -0.0883,-0.13381 -0.18113,-0.31846 -0.21875,-0.5625 -0.0376,-0.24404 -0.12099,-0.56848 -0.34375,-0.84375 -0.22296,-0.27558 -0.61207,-0.69704 -0.75,-0.875 -0.13801,-0.17791 -0.35284,-0.43548 -0.375,-0.59375 -0.0222,-0.15835 -0.0625,-0.53125 -0.0625,-0.53125 0,0 -0.0567,0.33671 -0.0312,0.53125 0.0255,0.19454 0.0775,0.41089 0.21875,0.625 0.14122,0.21403 0.34035,0.38401 0.4375,0.53125 0.0971,0.14724 0.28012,0.2626 0.375,0.46875 0.095,0.2063 0.2245,0.46184 0.25,0.65625 0.0255,0.19454 0.0608,0.32676 0.0312,0.5 -0.0297,0.17322 0.055,0.28892 -0.0937,0.40625 -0.14876,0.11732 -0.57367,0.43831 -0.65625,0.53125 -0.0827,0.0929 -0.53484,0.34284 -0.71875,0.65625 -0.18391,0.31341 -0.44775,0.78441 -0.53125,1.28125 -0.0833,0.49695 -0.11454,0.92534 -0.25,1.1875 -0.13546,0.26216 -0.51552,0.81223 -0.84375,1.125 -0.28667,0.27295 -1.02524,1.07216 -1.4375,1.53125 -0.0599,0.0667 -0.17977,0.17107 -0.21875,0.21875 -0.3074,0.3756 -0.67177,0.86492 -1.28125,1.34375 -0.60948,0.47883 -1.24195,0.92898 -1.75,1.1875 -0.50815,0.25837 -1.22124,0.60116 -1.78125,0.625 -0.56014,0.0238 -1.4342,0.0921 -1.90625,0 -0.47182,-0.0919 -1.1056,-0.2252 -1.71875,-0.53125 -1.28937,-0.1436 -0.42036,1.44318 0.21875,1.21875 0.69038,0.23592 1.76392,0.52133 2.53125,0.4375 0.76733,-0.0838 1.9515,-0.31939 2.53125,-0.625 0.57983,-0.30566 2.63034,-1.8219 3.375,-2.8125 0.17346,-0.23075 0.24688,-0.31113 0.375,-0.46875 0.0331,-0.004 0.057,0.007 0.0937,0 0.54687,-0.32802 1.19385,-0.4746 1.625,-0.59375 0.43135,-0.11933 1.13485,-0.10683 1.65625,-0.125 0.52128,-0.0181 1.38498,0.39057 1.875,0.59375 0.48994,0.20334 1.05637,0.69331 1.65625,1.09375 0.59988,0.40044 0.9378,0.82987 1.25,1.15625 0.31204,0.32649 1.3604,1.23356 1.6875,1.5 0.32701,0.26659 0.69923,0.76651 0.84375,1 0.14452,0.23349 0.23073,0.63868 0.34375,1.09375 0.11318,0.45496 0.36935,0.84745 0.5625,1.125 0.19316,0.27755 0.63533,0.48224 0.71875,0.5625 0.0833,0.0803 0.5098,0.33934 0.65625,0.4375 0.14645,0.0982 0.085,0.21643 0.125,0.375 0.0399,0.15861 0.01,0.28643 0,0.46875 -0.01,0.1822 -0.1142,0.42677 -0.1875,0.625 -0.0732,0.19808 -0.23295,0.32516 -0.3125,0.46875 -0.0796,0.14359 -0.25936,0.32252 -0.375,0.53125 -0.11568,0.2088 -0.1466,0.41143 -0.15625,0.59375 -0.01,0.18232 0.0625,0.5 0.0625,0.5 0,0 0.022,-0.35149 0.0312,-0.5 0.009,-0.14843 0.16599,-0.41877 0.28125,-0.59375 0.11518,-0.17503 0.4692,-0.57205 0.65625,-0.84375 0.18688,-0.2714 0.23264,-0.58338 0.25,-0.8125 0.0174,-0.22912 0.084,-0.43201 0.15625,-0.5625 0.0723,-0.13049 0.24087,-0.0406 0.4375,0 0.19651,0.0407 0.56663,0.1161 0.875,0.21875 0.30841,0.10257 0.81207,0.38671 1.0625,0.59375 0.25055,0.20701 0.54313,0.5369 0.625,0.71875 0.082,0.1817 0.2395,0.43307 0.40625,0.59375 0.16656,0.16048 0.44612,0.29263 0.65625,0.375 0.21006,0.0821 0.50179,0.12642 0.78125,0.28125 0.27946,0.15483 0.23385,0.33407 0.34375,0.53125 0.10981,0.19734 0.263,0.3032 0.5,0.46875 0.23692,0.16532 0.60848,0.23366 0.46875,0.15625 -0.13973,-0.0774 -0.26975,-0.18831 -0.4375,-0.28125 -0.16753,-0.0928 -0.18494,-0.18814 -0.28125,-0.34375 -0.0963,-0.1558 -0.13358,-0.23988 -0.1875,-0.40625 -0.0539,-0.16644 -0.18598,-0.36065 -0.4375,-0.5 -0.25143,-0.1393 -0.4384,-0.19413 -0.71875,-0.28125 -0.28042,-0.0872 -0.32207,-0.10016 -0.53125,-0.25 -0.20921,-0.14996 -0.19909,-0.40218 -0.40625,-0.6875 -0.20721,-0.28524 -0.31198,-0.54311 -0.5625,-0.75 -0.25051,-0.20708 -0.46617,-0.44986 -0.84375,-0.625 -0.37766,-0.17518 -0.87561,-0.23724 -1.4375,-0.34375 -0.56178,-0.10654 -0.93936,-0.31397 -1.21875,-0.46875 -0.27946,-0.15483 -0.58403,-0.6371 -0.875,-0.96875 -0.29104,-0.33169 -0.30857,-0.91186 -0.375,-1.1875 -0.3279,-0.98374 -0.51163,-1.03965 -0.65625,-1.5 -0.36427,-0.13342 -0.77061,-0.54845 -1.0625,-0.8125 -0.29197,-0.2641 -0.55042,-0.41571 -1.3125,-1.28125 -0.76208,-0.86554 -2.78383,-2.13309 -3.34375,-2.375 -0.55985,-0.24187 -1.68831,-0.38363 -2.40625,-0.40625 -0.48052,-0.0151 -1.03777,0.12891 -1.5625,0.3125 0.59349,-0.5961 0.53704,-0.58794 1.5625,-2.53125 0.0483,-0.30084 0.0282,-0.90172 0.3125,-1.28125 0.28422,-0.37948 0.58844,-0.93592 0.875,-1.125 0.28649,-0.18903 0.65695,-0.43297 1.25,-0.59375 0.59318,-0.16075 1.14117,-0.28097 1.53125,-0.5 0.39001,-0.21898 0.56129,-0.47609 0.8125,-0.71875 0.25123,-0.24246 0.36417,-0.55219 0.5625,-0.875 0.19828,-0.32289 0.1633,-0.57197 0.375,-0.75 0.21168,-0.1779 0.23804,-0.19584 0.53125,-0.3125 0.29313,-0.11661 0.49217,-0.20488 0.75,-0.375 0.25791,-0.17017 0.39359,-0.3797 0.4375,-0.5625 0.044,-0.18272 0.0973,-0.29383 0.1875,-0.46875 0.0903,-0.17471 0.10947,-0.26166 0.28125,-0.375 0.17202,-0.1135 0.29422,-0.21796 0.4375,-0.3125 0.0358,-0.0236 0.0214,-0.0592 0,-0.0625 z m 26.67582,12.04494 c 0.0967,0.64904 0.0392,1.57911 0.0861,2.29356 0.047,0.71444 0.0941,0.93724 0.27452,1.70866 0.18048,0.77152 0.18549,1.67063 0.0731,2.2592 -0.11253,0.58841 -0.20145,1.04239 -0.23292,1.54966 -0.0313,0.50768 -0.1569,1.06139 -0.33476,1.47729 -0.17781,0.41576 -0.319,0.7317 -0.27718,1.03894 0.0417,0.30718 -0.0523,0.35366 -0.089,0.94573 -0.0366,0.59203 -0.11522,0.87676 -0.2432,1.22707 -0.12823,0.35043 0.45238,-1.1664 0.46024,-1.53924 0.008,-0.37285 0.0654,-0.81107 0.18048,-1.19616 0.11521,-0.38456 0.49443,-1.3511 0.60683,-1.93932 0.11254,-0.58841 0.40017,-1.30483 0.42904,-2.01576 0.0288,-0.71099 0.0654,-1.30287 -0.0939,-1.92085 -0.15942,-0.61779 -0.26916,-1.3012 -0.27959,-2.11592 -0.0104,-0.81447 0.003,-1.76348 -0.20121,-2.40065 -0.22737,-0.33755 -0.25296,0.50784 -0.35855,0.62779 z m -15.54464,18.89535 c -0.48479,0.004 -1.11919,-0.068 -1.51426,-0.28719 -0.39506,-0.21918 -0.82302,-0.54693 -1.07879,-0.88314 -0.25576,-0.33612 -0.3583,-0.93681 -0.39658,-1.20654 -0.0383,-0.26972 -0.1331,-0.69352 -0.34254,-0.8258 -0.20944,-0.1322 -0.88553,-0.37624 -1.14696,-0.63046 -0.26145,-0.2544 -0.46735,-0.72718 -0.53277,-0.94447 -0.0655,-0.21745 -0.14234,-0.51432 -0.26006,-0.61075 -0.11764,-0.0966 -0.34745,-0.37169 -0.52515,-0.52465 -0.17769,-0.15286 -0.17426,-0.25052 0.093,-0.0779 0.26712,0.1725 0.48908,0.27049 0.60566,0.48071 0.11647,0.21022 0.28952,0.57406 0.40833,0.80002 0.11882,0.22606 0.25676,0.46566 0.52398,0.63824 0.26722,0.17248 0.62507,0.25129 0.85605,0.41284 0.23099,0.16156 0.52986,0.31348 0.58742,0.59653 0.0576,0.28333 0.0706,0.86449 0.21323,1.13567 0.14243,0.2712 0.29629,0.62168 0.62573,0.86643 0.32943,0.24476 0.71783,0.4163 1.02474,0.50233 0.3069,0.0859 0.81998,0.15869 1.11466,0.036 0.29467,-0.12273 0.58482,-0.27724 0.70717,-0.39187 0.12237,-0.11444 0.22786,-0.22658 0.22786,-0.22658 0,0 -0.12707,0.32561 -0.22582,0.48529 -0.0987,0.15985 -0.44101,0.43509 -0.57025,0.50183 -0.12953,0.0673 -0.39448,0.15372 -0.39448,0.15372 z m 8.20182,-32.94764 c -0.29073,0.36864 -1.32614,1.25173 -1.92925,1.5959 -0.60306,0.34428 -2.24795,0.88439 -2.78405,1.2167 -0.53623,0.33244 -1.66765,0.74272 -2.34554,1.36455 -0.67794,0.62198 -1.6722,1.76258 -2.07519,2.13774 -0.29808,0.27717 -0.83066,0.71488 -1.12849,0.87297 -0.52115,0.27676 -1.26534,0.43395 -1.71206,0.67101 -0.44679,0.23729 -0.94531,0.31159 -1.39965,0.69574 -0.45439,0.38398 -1.02028,0.70843 -1.16986,1.14501 -0.14945,0.43644 -0.26169,0.85316 -0.52249,1.11072 -0.26079,0.25747 -0.68527,0.53043 -0.88641,0.68491 -0.20106,0.15449 -0.34997,0.23354 -0.4246,0.39216 -0.0746,0.15871 -0.0227,0.32168 -0.0974,0.48031 -0.0747,0.15868 -0.21627,0.32912 -0.343,0.44397 -0.1265,0.11491 -0.34289,0.44383 -0.38783,0.61072 -0.0449,0.16656 -0.17171,0.40061 -0.14216,0.52781 0.0296,0.1272 0.11936,-0.20624 0.28343,-0.46002 0.16389,-0.25374 0.31313,-0.45185 0.48444,-0.61435 0.17131,-0.16251 0.23881,-0.53162 0.3357,-0.65442 0.0969,-0.12288 0.29822,-0.39646 0.71521,-0.64161 0.417,-0.24514 0.67802,-0.62196 0.89416,-0.95095 0.21627,-0.32913 0.70074,-0.94356 1.00623,-1.24857 0.30559,-0.30507 0.73753,-0.60602 1.26595,-0.79133 0.52844,-0.18539 1.10916,-0.4461 1.3101,-0.48139 0.20093,-0.0352 0.59553,-0.19723 0.46858,0.0369 -0.12693,0.23404 -0.29117,0.60692 -0.36601,1.00388 -0.075,0.39692 -0.1877,1.05199 -0.17317,1.35379 0.0145,0.30179 0.0807,0.76656 0.0209,0.98875 -0.0599,0.22226 -0.24648,0.67853 -0.41061,0.9322 -0.16392,0.2539 -0.64089,0.72138 -0.79746,0.94734 -0.15658,0.22597 -0.33552,0.41616 -0.40287,0.66624 -0.0673,0.25 -0.11971,0.44446 -0.10529,0.74631 0.0144,0.30175 0.0514,0.40113 -0.0904,0.69081 -0.14181,0.28961 -0.29097,0.6068 -0.55934,0.89215 -0.26822,0.28539 -0.43207,0.4199 -0.46951,0.55889 -0.0374,0.13891 -0.0303,0.34946 -0.10485,0.50811 -0.0747,0.15853 -0.21625,0.32905 -0.44706,0.47553 -0.23092,0.14628 0.21576,0.0282 0.40198,-0.1897 0.18635,-0.21803 0.22385,-0.47607 0.38051,-0.70201 0.15652,-0.22606 0.32067,-0.47982 0.5293,-0.66211 0.20852,-0.18223 0.48415,-0.37604 0.6259,-0.66574 0.14179,-0.28953 0.24688,-0.91665 0.28451,-1.17482 0.0376,-0.25809 0.13484,-0.61911 0.28394,-0.81734 0.14914,-0.19831 0.71541,-0.76079 0.85695,-0.93123 0.14162,-0.17042 0.45497,-0.74153 0.55224,-1.1027 0.0973,-0.36118 0.0619,-1.53281 0.10692,-1.81858 0.0451,-0.2858 0.29955,-1.23034 0.63508,-1.64658 0.33544,-0.41618 0.92495,-1.26173 1.34532,-1.67864 0.4135,-0.41003 1.13642,-1.25812 1.65775,-1.65407 0.52134,-0.39594 1.68317,-1.15574 2.39027,-1.41216 0.70713,-0.2565 1.53334,-0.60008 2.00236,-0.80147 0.46913,-0.20144 2.17431,-1.32143 2.46492,-1.57087 0.29055,-0.24954 0.61841,-0.63793 0.61841,-0.63793 0.0113,-0.58837 0.0778,-1.31242 -0.64648,-0.44251 z"
   style="opacity:0.3;color:#000000;fill:#b62717;fill-opacity:1;fill-rule:nonzero;stroke:#ffbf00;stroke-width:0.31600001;stroke-linecap:butt;stroke-linejoin:miter;stroke-miterlimit:4;stroke-opacity:1;stroke-dasharray:none;stroke-dashoffset:0;marker:none;visibility:visible;display:inline;overflow:visible;enable-background:accumulate"
   id="path6-6-1" /><path
   inkscape:connector-curvature="0"
   d="m 141.46874,224.71875 c -0.0279,0.0498 -0.77292,1.38222 -1.09375,2 -0.32673,0.62919 -0.89763,1.59338 -1,2.09375 -0.10094,0.49364 -0.55056,2.14295 -0.5625,2.1875 -1.6e-4,6e-4 0,0.0312 0,0.0312 l 0,0.3125 c 0,0 -0.29289,1.38395 -0.65625,2 -0.36326,0.61613 -0.80487,1.34708 -1.25,1.875 -0.44511,0.52801 -0.82777,0.92296 -1.21875,1.34375 -0.39098,0.42079 -0.61717,0.84358 -0.90625,1.25 -0.28902,0.40622 -0.45251,1.07608 -0.6875,1.375 -0.23499,0.29892 -0.67676,0.86689 -0.84375,1.15625 -0.16691,0.28926 -0.35148,1.08047 -0.5,1.5 -0.1485,0.41962 -0.83218,1.4579 -0.9375,1.9375 -0.1052,0.47977 -0.92156,1.51577 -1.21875,1.875 -0.19295,0.45369 0.28125,0.9375 0.28125,0.9375 -0.0969,-0.15211 0.17282,-0.25517 0.5625,-0.65625 0.48347,0.72761 1.09844,1.41069 1.75,2 0.76475,0.69171 1.68586,1.44587 2.53125,2.125 0.84522,0.67904 1.55616,1.50655 1.96875,2.125 0.41259,0.61845 1.19248,1.50045 1.875,1.90625 0.68241,0.40582 2.19574,1.0948 3.28125,1.4375 1.08564,0.34292 1.71354,0.63018 2.5,1.0625 0.78622,0.43211 2.01633,1.40339 2.53125,1.75 0.51478,0.34638 1.04975,0.85824 1.65625,1.0625 0.6065,0.20426 1.12875,0.37536 1.625,0.46875 0.49635,0.0934 0.74124,0.0816 1.25,0.34375 0.50869,0.262 1.06223,0.54399 1.4375,0.65625 0.37538,0.11224 0.57056,0.19399 0.8125,0.15625 0.24194,-0.0377 0.0508,-0.11764 -0.46875,-0.25 -0.51947,-0.13237 -0.70993,-0.30028 -1.21875,-0.5625 -0.50869,-0.262 -0.706,-0.29574 -1.3125,-0.5 -0.6065,-0.20426 -0.8768,-0.12088 -1.75,-0.625 -0.873,-0.50379 -1.10335,-0.59882 -1.78125,-1.21875 -0.67783,-0.61981 -1.54618,-1.35245 -2.5,-1.84375 -0.95382,-0.4913 -3.32964,-1.29282 -4.15625,-1.71875 -0.82654,-0.42582 -1.7165,-0.90053 -2.25,-1.5 -0.5335,-0.59947 -1.80837,-2.36752 -2.3125,-2.84375 -0.50402,-0.47625 -2.18228,-1.7412 -2.75,-2.25 -0.56334,-0.50514 -1.64581,-1.69356 -2.15625,-2.46875 0.004,-0.007 -0.004,-0.0241 0,-0.0312 0.20614,-0.34961 0.41213,-0.80886 0.59375,-1.40625 0.1331,-0.28446 0.63814,-1.14465 0.84375,-1.40625 0.20561,-0.2616 0.59788,-0.87716 0.84375,-1.34375 0.24587,-0.46659 0.74036,-1.41234 1,-1.78125 0.25973,-0.36892 0.30763,-0.91431 0.71875,-1.4375 0.41112,-0.52319 0.88652,-1.09144 1.21875,-1.4375 0.33223,-0.34606 0.62231,-0.87347 0.8125,-1 0.1901,-0.12652 0.29495,-0.26148 0.53125,-0.0625 0.23628,0.19889 0.48683,0.33683 0.5625,0.625 0.0756,0.28828 0.18072,0.88684 0.25,1.375 0.0693,0.48825 0.22126,0.97988 0.4375,1.28125 0.21614,0.30129 0.73255,0.70726 0.96875,0.90625 0.2362,0.199 0.42906,0.4945 0.5,0.75 0.0709,0.2555 0.13771,0.53406 0.28125,0.8125 0.14347,0.27855 0.31713,0.5717 0.4375,0.6875 0.12034,0.11561 0.34375,0.25 0.34375,0.25 0,0 -0.3353,-0.3069 -0.40625,-0.5625 -0.0709,-0.2555 -0.21301,-0.61439 -0.25,-0.875 -0.0369,-0.26033 -0.1461,-0.76647 -0.34375,-0.9375 -0.19768,-0.17122 -0.73343,-0.72771 -0.90625,-0.96875 -0.17292,-0.24112 -0.41792,-0.61057 -0.46875,-0.96875 -0.0508,-0.35799 -0.077,-0.73103 -0.0937,-1.09375 -0.0168,-0.36291 -0.12847,-0.65648 -0.28125,-1 -0.1527,-0.34363 -0.49155,-0.4944 -0.5625,-0.75 -0.0709,-0.2555 -0.0989,-0.68895 0,-0.96875 0.0991,-0.27943 0.64739,-1.42322 0.84375,-1.75 0.19636,-0.32678 0.36787,-1.22635 0.4375,-1.46875 0.0502,-0.17495 0.0888,-0.4456 0.125,-0.65625 0.13896,-0.25791 0.25,-0.5 0.25,-0.5 0,0 0.0314,-0.50438 0.28125,-1.1875 0.24972,-0.6831 1.18201,-2.10322 1.18201,-2.10322 0.70754,-0.95008 0.002,-2.20607 -0.44564,-1.75815 z m 9.50133,-6.20379 c -0.54166,0.051 -0.13454,1.48702 1.19715,1.35606 1.49118,-0.14665 2.91084,0.41225 4.33277,0.81653 0.75877,0.21605 1.82211,0.85955 2.25,1.1875 0.42797,0.32784 0.5,0.75 0.5,0.75 0,0 -0.001,0.0803 0,0.125 -0.0128,0.002 -0.0182,-0.002 -0.0312,0 -0.13208,0.74137 -0.10681,0.5658 -0.15625,1.375 0.005,0.30045 0.0713,0.93056 0.21875,1.34375 0.14747,0.41301 1.04015,2.00354 1.4375,2.53125 0.39737,0.52762 0.80918,1.26658 0.96875,1.75 0.1596,0.48362 -0.0457,0.90694 -0.28125,1.59375 -0.23558,0.68689 -0.36455,1.69775 -0.4375,2.4375 -0.0728,0.7397 -0.008,1.43241 0.0312,1.84375 0.0397,0.41134 0.39206,1.07149 0.28125,1.5 -0.11084,0.4286 -0.69553,0.79296 -0.875,1 -0.17944,0.20725 -0.20189,0.64626 -0.21875,0.90625 -0.0169,0.26017 0.32357,0.68282 0.5,0.90625 0.17649,0.22354 0.13548,0.489 0.0312,0.6875 -0.10432,0.19847 -0.33333,0.36417 -0.4375,0.5625 -0.10411,0.19845 -0.11183,0.48943 -0.0312,0.78125 0.0807,0.29176 0.16442,0.73671 0.0312,1.125 -0.0666,0.1941 -0.21255,0.34966 -0.34375,0.46875 0.11418,-0.0672 0.17891,-0.0718 0.28125,-0.15625 0.2017,-0.16676 0.42069,-0.45864 0.4375,-0.71875 0.0169,-0.25999 -0.10042,-0.76973 -0.0937,-1 0.007,-0.2301 0.21477,-0.39458 0.40625,-0.53125 0.19163,-0.1371 0.44984,-0.359 0.5625,-0.6875 0.15899,-0.46359 -0.57746,-1.02712 -0.65625,-1.21875 -0.0789,-0.19166 -9.8e-4,-0.62739 0.15625,-0.875 0.15705,-0.24738 0.64493,-0.66002 0.8125,-0.9375 0.16739,-0.27725 -0.0311,-1.2523 -0.15625,-1.625 -0.12526,-0.37264 -0.19509,-1.5122 -0.0625,-2.53125 0.13271,-1.01911 0.58564,-2.17438 0.71875,-2.5625 0.13311,-0.38812 0.21315,-0.35071 0.3125,-0.21875 0.0993,0.13184 0.22747,0.64937 0.375,1.0625 0.14741,0.41319 0.63434,1.21811 1.0625,1.65625 0.42816,0.43814 1.48023,1.49338 1.8125,2 0.33233,0.50644 0.39065,0.91674 0.40625,1.1875 0.0157,0.27061 -0.29235,0.65093 -0.4375,0.96875 -0.14518,0.31791 -0.14958,0.95723 -0.15625,1.1875 -0.007,0.23027 -0.14629,0.68065 -0.28125,0.96875 -0.13481,0.28796 -0.35049,0.39721 -0.5625,0.59375 -0.21198,0.19646 -0.32171,0.92784 -0.25,0.71875 0.0717,-0.20901 0.18401,-0.33615 0.40625,-0.5625 0.22215,-0.22638 0.53088,-0.38151 0.71875,-0.71875 0.18787,-0.33724 0.30641,-0.8053 0.34375,-1.125 0.0374,-0.31987 0.16683,-0.83427 0.28125,-1.0625 0.11451,-0.22819 0.26898,-0.33919 0.375,-0.4375 0.10599,-0.0982 0.3458,0.34839 0.5,0.53125 0.15411,0.18283 0.42578,0.83399 0.59375,1.1875 0.16797,0.35322 -0.0481,1.18749 0,1.46875 0.0482,0.28117 -0.17936,1.14305 -0.3125,1.53125 -0.13308,0.38803 -0.48372,0.63993 -0.78125,0.875 -0.29753,0.23507 -0.6654,0.20568 -1.5,0.53125 -0.83463,0.32566 -0.96064,0.83064 -1.09375,1.21875 -0.13314,0.3882 -0.15625,0.78125 -0.15625,0.78125 0,0 0.005,0.0134 0,0.34375 -0.005,0.33031 -0.2371,0.66648 -0.40625,0.84375 -0.16924,0.17724 -0.81797,0.4078 -1.0625,0.59375 -0.24453,0.18595 -0.43014,0.72214 -0.5,1.03125 -0.0699,0.30928 0.14261,0.8485 0.0625,1.1875 -0.0801,0.33909 -0.3677,0.61792 -0.6875,0.8125 -0.3198,0.19458 -0.4263,0.44132 -0.59375,0.71875 -0.16742,0.27734 -0.27909,0.70045 -0.46875,0.9375 -0.15417,0.19258 -0.62877,0.44211 -0.6875,0.5 0.23607,-0.0559 0.5967,-0.21031 0.90625,-0.375 0.30957,-0.16477 0.46717,-0.64227 0.6875,-0.96875 0.22054,-0.32651 0.58772,-0.48233 0.875,-0.6875 0.28731,-0.20526 0.42881,-0.57631 0.53125,-0.875 0.10238,-0.29852 -0.0284,-1.00195 0.0312,-1.28125 0.0597,-0.27947 0.26315,-0.58378 0.5625,-0.71875 0.29926,-0.13499 0.9998,-0.55023 1.09375,-0.71875 0.0941,-0.16867 0.25477,-0.72656 0.21875,-0.9375 -0.0361,-0.21088 0.14635,-0.86832 0.28125,-1.15625 0.13505,-0.28807 0.51393,-0.44413 0.75,-0.5 0.23619,-0.0559 1.48522,-0.36045 1.65625,-0.4375 0.17097,-0.0772 0.35871,-0.0354 0.4375,0.15625 0.0788,0.19163 0.20914,1.0156 0.28125,1.4375 0.0723,0.42176 -0.28492,1.27915 -0.5,1.90625 -0.21507,0.6271 -0.20801,1.6122 -0.15625,2.09375 0.0517,0.48143 0.2809,1.54438 0.1875,2.34375 -0.0934,0.79937 -0.57643,1.34029 -0.78125,1.9375 -0.20485,0.59729 -0.10999,0.86926 -0.34375,1.65625 -0.23385,0.78696 -0.46821,1.27557 -0.75,1.78125 -0.28188,0.50565 -0.4722,0.82929 -0.78125,1.625 -0.30908,0.79551 -0.62946,1.91009 -1.03125,2.34375 -0.4017,0.43339 -0.78101,0.8087 -1.21875,1.03125 -0.43778,0.22263 -1.03125,0.0937 -1.03125,0.0937 0,0 0.5784,0.32272 1.0625,0.28125 0.4841,-0.0415 1.55945,-0.79684 1.90625,-1.28125 0.34686,-0.48458 0.55543,-1.33894 0.75,-1.90625 0.1946,-0.5674 0.55035,-1.3188 0.875,-1.84375 0.32459,-0.52478 0.61735,-1.42836 0.78125,-1.90625 0.16384,-0.47771 0.29264,-1.23647 0.5625,-1.8125 0.26989,-0.57612 0.62099,-1.50941 0.78125,-2.1875 0.16026,-0.67809 -0.009,-1.51204 -0.0625,-2.09375 -0.0536,-0.58156 -0.0187,-1.53832 0.21875,-2.125 0.2374,-0.5865 0.48672,-1.57088 0.5,-2.03125 0.0132,-0.46028 -0.40194,-1.30596 -0.5,-1.96875 -0.0981,-0.66233 0.002,-1.08794 0.1875,-2.15625 0.18559,-1.06816 0.0607,-1.80885 0.0312,-2.25 -0.0295,-0.44098 -0.57819,-1.23981 -0.84375,-1.625 -0.0355,-0.0515 -0.0589,-0.12976 -0.0937,-0.1875 0.22879,0.32654 0.46129,0.64486 0.65625,0.84375 0.40599,0.41425 1.24218,0.88641 1.46875,1.25 0.65825,0.4153 1,0.625 1,0.625 0,0 0.24703,0.13769 0.375,0.1875 0.12797,0.0499 0.70658,0.74435 0.78125,0.9375 0.0745,0.19329 0.10206,0.57033 0.15625,0.8125 0.0969,0.43383 0.30468,1.10517 0.53125,1.46875 0.2265,0.36352 0.56576,0.99379 0.6875,1.5 0.12167,0.50628 0.20742,1.27301 0.125,1.65625 -0.0823,0.38345 -0.1822,0.64702 -0.1875,1.03125 -0.005,0.38437 0.0816,0.78254 0,1.09375 -0.0814,0.31122 -0.35667,0.76814 -0.4375,1.03125 -0.0808,0.26318 -0.15094,0.42813 -0.15625,0.8125 -0.005,0.38451 0.0117,0.64793 -0.0312,0.9375 -0.0709,0.47963 -0.20793,0.59997 -0.3125,0.71875 -0.10457,0.11871 -0.15813,0.14243 -0.1875,0.40625 -0.0293,0.26389 0.0182,0.36778 -0.0312,0.53125 -0.14826,0.49049 0.13951,-0.54438 0.21875,-0.6875 0.0791,-0.14305 0.41398,-0.38545 0.46875,-0.625 0.0548,-0.23948 0.13229,-0.86248 0.1875,-1.25 0.0854,-0.59966 0.30529,-0.98753 0.4375,-1.25 0.13222,-0.26247 0.24536,-0.72623 0.25,-1.0625 0.002,-0.1126 -0.0115,-0.62399 0.0312,-0.875 0.085,-0.49861 0.26448,-1.06868 0.21875,-1.46875 -0.0689,-0.60172 -0.20706,-1.36053 -0.40625,-1.84375 -0.19911,-0.48336 -0.44057,-0.79896 -0.5625,-1.28125 -0.11818,-0.4821 -0.17147,-0.65568 -0.21875,-0.96875 l 0,-0.0312 c -0.0791,-0.52564 -0.1566,-1.14839 -0.5625,-1.5625 -0.40586,-0.41411 -0.96397,-0.83644 -1.5,-1.15625 -0.53589,-0.31974 -1.31382,-0.95137 -1.71875,-1.4375 -0.40493,-0.48613 -1.125,-1.4375 -1.125,-1.4375 0,0 -0.60865,-0.51012 -1.09375,-0.78125 -0.0103,-0.006 -0.0212,0.006 -0.0312,0 -0.32068,-0.47073 -0.76365,-0.97798 -1.0625,-1.3125 -0.41788,-0.46812 -1.11963,-1.14759 -1.375,-1.5625 -0.25516,-0.41523 -0.21763,-0.77108 -0.53125,-1.4375 -0.31374,-0.66636 -0.66903,-1.20204 -1.21875,-1.8125 -0.54972,-0.61047 -1.0645,-1.36108 -1.59375,-2.03125 -0.52916,-0.67014 -0.61287,-1.48209 -0.65625,-2.09375 -0.0343,-0.48568 0.19692,-0.94844 0.3125,-1.34375 0.62387,0.81242 1.74498,2.04545 2.3125,2.59375 0.35802,0.3259 0.49018,0.21553 0.96875,0.59375 0.47838,0.37795 1.80698,1.34898 2.53125,1.6875 0.72443,0.33867 1.95897,0.71563 2.4375,1.09375 0.47841,0.37806 1.67116,1.95678 1.875,2.59375 0.20397,0.63703 0.72233,0.68766 1.125,1.0625 0.40268,0.3746 1.24605,0.97543 1.53125,1.53125 0.28499,0.5558 0.33939,1.25633 0.75,1.75 0.41044,0.49375 0.60318,1.13497 0.875,1.65625 0.27198,0.52144 0.57261,1.54177 0.65625,2.15625 0.0837,0.61448 0.74304,1.19326 1.1875,1.875 0.44446,0.68174 0.84294,1.31391 1.375,1.5625 0.2289,0.45293 0.18395,0.19386 0.0312,-0.5625 -0.20385,-0.63674 -0.87937,-1.18851 -1.09375,-1.65625 -0.21434,-0.46764 -0.75213,-0.84444 -0.875,-1.5625 -0.12288,-0.71782 -0.37601,-1.5781 -0.78125,-2.15625 -0.4054,-0.57831 -0.374,-1.148 -0.59375,-1.53125 -0.21975,-0.38325 -0.57168,-1.19759 -0.84375,-1.71875 -0.27182,-0.52128 -0.94098,-1.32828 -1.375,-1.6875 -0.43382,-0.35896 -0.89228,-0.551 -1.125,-0.96875 -0.23259,-0.4177 -0.70783,-1.33294 -0.84375,-1.59375 -0.13602,-0.26053 -0.65625,-0.8125 -0.65625,-0.8125 0,0 0.7232,0.16484 0.90625,0.15625 0.4593,-0.30357 -0.19609,-1.15187 -1.25,-1.3125 -0.82887,-0.12275 -2.0803,-0.52675 -2.84375,-0.96875 -0.76345,-0.442 -2.1875,-1.375 -2.1875,-1.375 0,0 -0.83985,-0.60615 -1.25,-0.96875 -0.58026,-0.4767 -0.59356,-0.64039 -0.84375,-1.03125 0.004,-0.002 0.0312,0 0.0312,0 0,0 -0.94624,-1.25037 -1.28125,-1.65625 -0.3351,-0.40586 -1.98053,-1.43377 -2.71875,-1.75 -0.73822,-0.31623 -2.33952,-1.15733 -4,-1.375 -1.48251,-0.35803 -2.1825,-0.4704 -3.68612,-0.32884 z"
   style="color:#000000;fill:#b62717;fill-opacity:1;fill-rule:nonzero;stroke:#ffbf00;stroke-width:0.31600001;stroke-linecap:butt;stroke-linejoin:miter;stroke-miterlimit:4;stroke-opacity:1;stroke-dasharray:none;stroke-dashoffset:0;marker:none;visibility:visible;display:inline;overflow:visible;enable-background:accumulate"
   id="path78-9"
   sodipodi:nodetypes="ccccccccscsccccccccsccccsccccccsccscscccccsscssccccccccccccccsccccscccccscsscccccccccscccccccccccccccscccccsccsccccccccsccccccsscscscsscsccccccscccccscccccssccccccccscscsccccccccccccccccccccccccccccccccccccccsccccccscccccccccccccsccsccscccccccscccccscs" /><g
   id="g4415"
   transform="translate(1.8606408e-6,8.1881467e-7)"><path
     id="path4399"
     d="m 147.51459,371.25104 c -0.84,0.942 -2.71898,1.76037 -3.81398,2.49337 -1.622,1.088 -3.32839,2.01442 -4.88139,3.21342 -4.024,3.109 -6.23294,6.96408 -7.84142,11.66937 -0.5386,1.57556 -2.75917,1.50032 -2.32082,-0.47744 0.67052,-3.02524 1.29863,-3.73732 2.98063,-6.38832 1.713,-2.703 5.05161,-5.15961 7.64061,-6.99961 1.218,-0.866 2.352,-1.923 3.58,-2.711 1.353,-0.868 3.10258,-1.71613 4.27358,-2.89313"
     style="fill:#b62717;stroke:#ffbf00;stroke-width:0.31600001"
     inkscape:connector-curvature="0"
     sodipodi:nodetypes="cccsscccc" /><path
     sodipodi:type="arc"
     style="opacity:0.5;color:#000000;fill:#000000;fill-opacity:1;fill-rule:nonzero;stroke:none;stroke-width:3;marker:none;visibility:visible;display:inline;overflow:visible;enable-background:accumulate"
     id="path3946-6"
     sodipodi:cx="156.35689"
     sodipodi:cy="392.84222"
     sodipodi:rx="0.39394528"
     sodipodi:ry="0.4333398"
     d="m 156.75083,392.84222 c 0,0.23933 -0.17637,0.43334 -0.39394,0.43334 -0.21757,0 -0.39395,-0.19401 -0.39395,-0.43334 0,-0.23932 0.17638,-0.43334 0.39395,-0.43334 0.21757,0 0.39394,0.19402 0.39394,0.43334 z"
     transform="matrix(1.6993942,0.51252754,-0.35437243,1.1749972,3.0986067,-152.92145)" /></g><g
   id="g4419"
   transform="translate(1.8606408e-6,8.1881467e-7)"><path
     id="path87"
     d="m 150.10525,371.51265 c 3.488,2.75 7.23097,4.47218 9.25597,8.69218 1.461,3.046 1.97411,5.85579 2.95024,9.05645 0.40759,1.33645 3.03071,1.3415 2.19773,-1.29545 -1.153,-3.65005 -2.30097,-7.679 -4.42197,-10.901 -1.143,-1.737 -2.755,-2.961 -4.315,-4.261 -1.667,-1.389 -3.52397,-3.03918 -5.36397,-4.16018"
     style="fill:#b62717;stroke:#ffbf00;stroke-width:0.31600001"
     inkscape:connector-curvature="0"
     sodipodi:nodetypes="ccssccc" /><path
     sodipodi:type="arc"
     style="opacity:0.5;color:#000000;fill:#000000;fill-opacity:1;fill-rule:nonzero;stroke:none;stroke-width:3;marker:none;visibility:visible;display:inline;overflow:visible;enable-background:accumulate"
     id="path3946-2"
     sodipodi:cx="156.35689"
     sodipodi:cy="392.84222"
     sodipodi:rx="0.39394528"
     sodipodi:ry="0.4333398"
     d="m 156.75083,392.84222 c 0,0.23933 -0.17637,0.43334 -0.39394,0.43334 -0.21757,0 -0.39395,-0.19401 -0.39395,-0.43334 0,-0.23932 0.17638,-0.43334 0.39395,-0.43334 0.21757,0 0.39394,0.19402 0.39394,0.43334 z"
     transform="matrix(1.9618374,-0.50181552,0.34918701,1.3651394,-280.36598,-68.742043)" /></g></svg>