<?xml version="1.0" encoding="UTF-8" standalone="no"?>
<!-- Created with Inkscape (http://www.inkscape.org/) -->
<svg
   xmlns:svg="http://www.w3.org/2000/svg"
   xmlns="http://www.w3.org/2000/svg"
   xmlns:xlink="http://www.w3.org/1999/xlink"
   xmlns:inkscape="http://www.inkscape.org/namespaces/inkscape"
   version="1.0"
   width="199.72279"
   height="360.3179"
   id="svg2">
  <defs
     id="defs4">
    <linearGradient
       id="linearGradient3289">
      <stop
         id="stop3291"
         style="stop-color:#6e4bd4;stop-opacity:0"
         offset="0" />
      <stop
         id="stop3293"
         style="stop-color:#5555ff;stop-opacity:1"
         offset="1" />
    </linearGradient>
    <linearGradient
       id="linearGradient5810">
      <stop
         id="stop5812"
         style="stop-color:#585858;stop-opacity:1"
         offset="0" />
      <stop
         id="stop5816"
         style="stop-color:#c4c4c4;stop-opacity:1"
         offset="0.5" />
      <stop
         id="stop5814"
         style="stop-color:#585858;stop-opacity:1"
         offset="1" />
    </linearGradient>
    <marker
       refX="0"
       refY="0"
       orient="auto"
       id="Arrow2Mend"
       style="overflow:visible">
      <path
         d="M 8.7185878,4.0337352 L -2.2072895,0.016013256 L 8.7185884,-4.0017078 C 6.97309,-1.6296469 6.9831476,1.6157441 8.7185878,4.0337352 z"
         transform="scale(-0.6,-0.6)"
         id="path3464"
         style="font-size:12px;fill-rule:evenodd;stroke-width:0.625;stroke-linejoin:round" />
    </marker>
    <linearGradient
       id="linearGradient3357">
      <stop
         id="stop3359"
         style="stop-color:#5555ff;stop-opacity:1"
         offset="0" />
      <stop
         id="stop3361"
         style="stop-color:#0000ff;stop-opacity:0"
         offset="1" />
    </linearGradient>
    <linearGradient
       id="linearGradient3330">
      <stop
         id="stop3332"
         style="stop-color:#e91616;stop-opacity:1"
         offset="0" />
      <stop
         id="stop3334"
         style="stop-color:#d22727;stop-opacity:0"
         offset="1" />
    </linearGradient>
    <clipPath
       id="clipPath3339">
      <path
         d="M 234.71153,200.29692 C 234.86245,204.94165 239.55187,279.82981 243.01561,278.94439 C 244.4481,280.52772 244.19972,296.69267 241.28143,299.62924 C 241.68831,301.46021 241.28143,301.25677 241.68831,302.8843 C 242.09519,304.51183 240.6711,314.88734 238.02636,324.85596 C 235.95704,325.47402 236.68865,324.58869 236.19539,324.44908 C 237.2126,322.00779 238.84013,302.68086 238.84013,302.68086 C 238.84013,302.68086 238.63669,301.86709 237.2126,301.46021 C 236.39883,301.46021 232.33001,304.51183 227.24397,306.95313 C 222.76826,307.97033 219.30976,310.61507 214.83405,313.66669 C 214.74591,313.76929 213.30736,314.86864 213.40996,313.87013 C 214.51954,312.36813 223.58203,306.74968 225.81988,305.52904 C 227.65086,304.91871 234.7713,298.81547 236.80572,297.59482 C 237.31432,297.28966 240.71734,295.60843 239.97893,285.86966 C 237.39677,285.69338 231.23425,212.83223 231.29925,201.60506 C 235.88368,199.97899 231.99954,200.45064 234.71153,200.29692 z"
         id="path3341"
         style="fill:#5555ff;fill-opacity:1;fill-rule:evenodd;stroke:none;stroke-width:0.69999999;stroke-linecap:butt;stroke-linejoin:miter;stroke-miterlimit:4;stroke-dasharray:none;stroke-opacity:1" />
    </clipPath>
    <filter
       id="filter3395"
       x="-0.10605063"
       width="1.2121013"
       y="-0.017471153"
       height="1.0349423">
      <feGaussianBlur
         inkscape:collect="always"
         stdDeviation="0.8997196"
         id="feGaussianBlur3397" />
    </filter>
    <clipPath
       id="clipPath3410">
      <path
         d="M 324.53265,226.59968 C 324.68357,231.24441 329.37299,306.13257 332.83673,305.24715 C 334.26922,306.83048 334.02084,322.99543 331.10255,325.932 C 331.50943,327.76297 331.10255,327.55953 331.50943,329.18706 C 331.91631,330.81459 330.49222,341.1901 327.84748,351.15872 C 325.77816,351.77678 326.50977,350.89145 326.01651,350.75184 C 327.03372,348.31055 328.66125,328.98362 328.66125,328.98362 C 328.66125,328.98362 328.45781,328.16985 327.03372,327.76297 C 326.21995,327.76297 322.15113,330.81459 317.06509,333.25589 C 312.58938,334.27309 309.13088,336.91783 304.65517,339.96945 C 304.56703,340.07205 303.12848,341.1714 303.23108,340.17289 C 304.34066,338.67089 313.40315,333.05244 315.641,331.8318 C 317.47198,331.22147 324.59242,325.11823 326.62684,323.89758 C 327.13544,323.59242 330.53846,321.91119 329.80005,312.17242 C 327.21789,311.99614 321.05537,239.13499 321.12037,227.90782 C 325.7048,226.28175 321.82066,226.7534 324.53265,226.59968 z"
         id="path3412"
         style="fill:#5555ff;fill-opacity:1;fill-rule:evenodd;stroke:none;stroke-width:0.69999999;stroke-linecap:butt;stroke-linejoin:miter;stroke-miterlimit:4;stroke-dasharray:none;stroke-opacity:1" />
    </clipPath>
    <filter
       id="filter3422">
      <feGaussianBlur
         inkscape:collect="always"
         stdDeviation="0.35068755"
         id="feGaussianBlur3424" />
    </filter>
    <filter
       id="filter3431"
       x="-0.10240797"
       width="1.2048159"
       y="-0.01359278"
       height="1.0271856">
      <feGaussianBlur
         inkscape:collect="always"
         stdDeviation="0.7013751"
         id="feGaussianBlur3433" />
    </filter>
    <clipPath
       id="clipPath3467">
      <path
         d="M 247.34529,318.98168 C 246.11491,316.12115 242.05549,295.46812 243.36926,292.58749 C 243.6945,289.75446 243.59259,286.87188 243.92458,284.05073 C 243.8159,281.51836 243.72329,281.41937 243.178,278.94199 C 243.47023,278.22783 245.25838,211.46601 249.07328,201.49254 C 250.73944,202.3662 250.62638,202.23637 251.31289,202.46977 C 247.34648,213.29325 246.63444,275.97653 246.0146,279.38571 C 246.16846,281.77028 246.67181,283.67027 246.2211,286.12499 C 246.48623,288.52302 245.80027,291.08737 245.88788,293.52622 C 245.83787,296.14026 247.84285,312.67811 248.80611,315.21544 C 248.65338,316.36376 248.60166,316.72946 247.34529,318.98168 z"
         id="path3469"
         style="opacity:1;fill:#ff0000;fill-opacity:1;fill-rule:nonzero;stroke:none;stroke-width:0.2;stroke-linecap:butt;stroke-linejoin:miter;marker:none;marker-start:none;marker-mid:none;marker-end:none;stroke-miterlimit:4;stroke-dasharray:none;stroke-dashoffset:0;stroke-opacity:1;visibility:visible;display:inline;overflow:visible;enable-background:accumulate" />
    </clipPath>
    <filter
       id="filter3471"
       x="-0.2696375"
       width="1.5392751"
       y="-0.01588361"
       height="1.0317672">
      <feGaussianBlur
         inkscape:collect="always"
         stdDeviation="0.75860779"
         id="feGaussianBlur3473" />
    </filter>
    <clipPath
       id="clipPath3482">
      <path
         d="M 247.34529,318.98168 C 246.11491,316.12115 242.05549,295.46812 243.36926,292.58749 C 243.6945,289.75446 243.59259,286.87188 243.92458,284.05073 C 243.8159,281.51836 243.72329,281.41937 243.178,278.94199 C 243.47023,278.22783 245.25838,211.46601 249.07328,201.49254 C 250.73944,202.3662 250.62638,202.23637 251.31289,202.46977 C 247.34648,213.29325 246.63444,275.97653 246.0146,279.38571 C 246.16846,281.77028 246.67181,283.67027 246.2211,286.12499 C 246.48623,288.52302 245.80027,291.08737 245.88788,293.52622 C 245.83787,296.14026 247.84285,312.67811 248.80611,315.21544 C 248.65338,316.36376 248.60166,316.72946 247.34529,318.98168 z"
         id="path3484"
         style="opacity:1;fill:#ff0000;fill-opacity:1;fill-rule:nonzero;stroke:none;stroke-width:0.2;stroke-linecap:butt;stroke-linejoin:miter;marker:none;marker-start:none;marker-mid:none;marker-end:none;stroke-miterlimit:4;stroke-dasharray:none;stroke-dashoffset:0;stroke-opacity:1;visibility:visible;display:inline;overflow:visible;enable-background:accumulate" />
    </clipPath>
    <filter
       id="filter3486"
       x="-0.28531989"
       width="1.5706398"
       y="-0.015832348"
       height="1.0316647">
      <feGaussianBlur
         inkscape:collect="always"
         stdDeviation="0.75224264"
         id="feGaussianBlur3488" />
    </filter>
    <clipPath
       id="clipPath3681">
      <path
         d="M 151.49934,209.13278 L 149.18684,210.38278 C 149.18684,210.38278 163.75004,237.66242 183.90559,254.69528 C 193.93909,263.1743 203.73678,268.96542 212.59309,268.13278 C 217.02124,267.71646 221.12371,265.52706 224.56184,261.35153 C 227.99997,257.176 230.83199,251.04973 233.03059,242.53903 L 230.49934,241.88278 C 228.36078,250.16107 225.64694,255.97975 222.56184,259.72653 C 219.47674,263.47331 216.09957,265.18586 212.34309,265.53903 C 204.83013,266.24538 195.42657,261.00526 185.59309,252.69528 C 166.01469,236.15015 151.49934,209.13278 151.49934,209.13278 z"
         id="path3683"
         style="fill:#ff0000;fill-opacity:1;fill-rule:evenodd;stroke:none;stroke-width:0.30000001;stroke-linecap:butt;stroke-linejoin:miter;stroke-miterlimit:4;stroke-dasharray:none;stroke-opacity:1" />
    </clipPath>
    <filter
       id="filter3697">
      <feGaussianBlur
         inkscape:collect="always"
         stdDeviation="0.51636965"
         id="feGaussianBlur3699" />
    </filter>
    <linearGradient
       x1="224.25728"
       y1="217.60904"
       x2="224.56955"
       y2="218.1485"
       id="linearGradient3725"
       xlink:href="#linearGradient5810"
       gradientUnits="userSpaceOnUse"
       gradientTransform="matrix(0.9751342,-0.2216153,0.2216153,0.9751342,-37.812982,66.894751)" />
    <linearGradient
       x1="210.31564"
       y1="217.53711"
       x2="211.07088"
       y2="217.57307"
       id="linearGradient3727"
       xlink:href="#linearGradient5810"
       gradientUnits="userSpaceOnUse"
       gradientTransform="matrix(1.2707739,-3.7469144e-8,3.7650632e-8,1.2769291,54.221241,-314.92637)" />
    <linearGradient
       x1="210.31564"
       y1="217.53711"
       x2="211.07088"
       y2="217.57307"
       id="linearGradient3729"
       xlink:href="#linearGradient5810"
       gradientUnits="userSpaceOnUse"
       gradientTransform="matrix(2.0662177,1.1523649e-7,1.9887102e-7,1.943817,-112.61477,-449.93708)" />
    <linearGradient
       x1="224.25728"
       y1="217.60904"
       x2="224.56955"
       y2="218.1485"
       id="linearGradient3786"
       xlink:href="#linearGradient5810"
       gradientUnits="userSpaceOnUse"
       gradientTransform="matrix(0.9751342,-0.2216153,0.2216153,0.9751342,-37.812982,66.894751)" />
    <linearGradient
       x1="210.31564"
       y1="217.53711"
       x2="211.07088"
       y2="217.57307"
       id="linearGradient3788"
       xlink:href="#linearGradient5810"
       gradientUnits="userSpaceOnUse"
       gradientTransform="matrix(1.2707739,-3.7469144e-8,3.7650632e-8,1.2769291,54.221241,-314.92637)" />
    <linearGradient
       x1="210.31564"
       y1="217.53711"
       x2="211.07088"
       y2="217.57307"
       id="linearGradient3790"
       xlink:href="#linearGradient5810"
       gradientUnits="userSpaceOnUse"
       gradientTransform="matrix(2.0662177,1.1523649e-7,1.9887102e-7,1.943817,-112.61477,-449.93708)" />
    <linearGradient
       x1="224.25728"
       y1="217.60904"
       x2="224.56955"
       y2="218.1485"
       id="linearGradient2624"
       xlink:href="#linearGradient5810"
       gradientUnits="userSpaceOnUse"
       gradientTransform="matrix(0.9751342,-0.2216153,0.2216153,0.9751342,-37.812982,66.894751)" />
    <linearGradient
       x1="210.31564"
       y1="217.53711"
       x2="211.07088"
       y2="217.57307"
       id="linearGradient2626"
       xlink:href="#linearGradient5810"
       gradientUnits="userSpaceOnUse"
       gradientTransform="matrix(1.2707739,-3.7469144e-8,3.7650632e-8,1.2769291,54.221241,-314.92637)" />
    <linearGradient
       x1="210.31564"
       y1="217.53711"
       x2="211.07088"
       y2="217.57307"
       id="linearGradient2628"
       xlink:href="#linearGradient5810"
       gradientUnits="userSpaceOnUse"
       gradientTransform="matrix(2.0662177,1.1523649e-7,1.9887102e-7,1.943817,-112.61477,-449.93708)" />
    <linearGradient
       x1="224.25728"
       y1="217.60904"
       x2="224.56955"
       y2="218.1485"
       id="linearGradient2630"
       xlink:href="#linearGradient5810"
       gradientUnits="userSpaceOnUse"
       gradientTransform="matrix(0.9751342,-0.2216153,0.2216153,0.9751342,-37.812982,66.894751)" />
    <linearGradient
       x1="210.31564"
       y1="217.53711"
       x2="211.07088"
       y2="217.57307"
       id="linearGradient2632"
       xlink:href="#linearGradient5810"
       gradientUnits="userSpaceOnUse"
       gradientTransform="matrix(1.2707739,-3.7469144e-8,3.7650632e-8,1.2769291,54.221241,-314.92637)" />
    <linearGradient
       x1="210.31564"
       y1="217.53711"
       x2="211.07088"
       y2="217.57307"
       id="linearGradient2634"
       xlink:href="#linearGradient5810"
       gradientUnits="userSpaceOnUse"
       gradientTransform="matrix(2.0662177,1.1523649e-7,1.9887102e-7,1.943817,-112.61477,-449.93708)" />
  </defs>
  <path
     d="M 105.29558,0.59948474 C 103.22585,33.370198 103.91576,30.955521 103.22585,33.370198 C 102.53594,35.784886 102.88089,38.889486 101.50107,45.443628 C 102.19098,52.687682 108.40017,72.005154 112.19468,83.733617 C 114.95431,95.807035 115.64422,115.12452 117.71396,114.77956"
     id="path2414"
     style="fill:none;fill-rule:evenodd;stroke:#6d6d6d;stroke-width:1.19896948px;stroke-linecap:round;stroke-linejoin:miter;stroke-opacity:1" />
  <path
     d="M 120.12863,103.39604 C 118.74882,114.08965 118.05891,117.19424 118.05891,117.19424 C 118.05891,117.19424 120.74698,113.13789 118.05891,117.19424 C 116.68106,119.27346 117.71396,163.07325 117.71396,163.07325 C 117.71396,163.07325 117.73573,159.08736 118.05891,163.07325 C 119.09378,175.83658 118.05891,180.32099 118.05891,180.32099 C 118.05891,180.32099 118.72043,172.82532 118.05891,180.32099 C 113.57449,188.59991 114.2644,195.84397 114.2644,202.74306 C 110.4699,208.95225 110.23137,208.57201 108.68235,213.15808"
     id="path2416"
     style="fill:none;fill-rule:evenodd;stroke:#6d6d6d;stroke-width:1.19896948px;stroke-linecap:round;stroke-linejoin:miter;stroke-opacity:1" />
  <path
     d="M 118.93356,204.34588 C 115.99636,203.63684 112.79489,204.79379 113.13984,204.79379"
     id="path2418"
     style="fill:none;fill-rule:evenodd;stroke:#6d6d6d;stroke-width:1.19896948px;stroke-linecap:round;stroke-linejoin:miter;stroke-opacity:1" />
  <path
     d="M 126.36951,209.05687 C 97.546346,209.20991 88.39279,235.85873 87.702879,237.92847 C 79.079003,244.13765 69.765229,252.76153 71.83495,262.0753 C 71.83495,271.73404 67.695496,276.90837 61.831264,287.25701 C 61.486309,300.3653 58.381709,310.02403 58.381709,310.02403 C 58.381709,310.02403 59.621144,305.80951 58.381709,310.02403 C 56.718619,315.67914 60.106487,316.92313 65.280807,315.54331 C 70.45514,314.1635 79.079003,313.81854 82.873514,288.29187 C 86.668012,283.11755 91.190693,278.67858 94.518277,269.31936 C 94.866817,261.43083 93.56711,256.21107 93.56711,256.21107"
     id="path2420"
     style="fill:none;fill-rule:evenodd;stroke:#6d6d6d;stroke-width:1.19896948px;stroke-linecap:round;stroke-linejoin:miter;stroke-opacity:1" />
  <path
     d="M 76.664327,283.35478 C 80.792894,286.24392 82.528558,289.32674 82.528558,289.32674"
     id="path2422"
     style="fill:none;fill-rule:evenodd;stroke:#6d6d6d;stroke-width:1.19896948px;stroke-linecap:round;stroke-linejoin:miter;stroke-opacity:1" />
  <path
     d="M 76.319371,281.04782 C 80.803781,283.80746 83.218469,287.25701 83.218469,287.25701"
     id="path2424"
     style="fill:none;fill-rule:evenodd;stroke:#6d6d6d;stroke-width:1.19896948px;stroke-linecap:round;stroke-linejoin:miter;stroke-opacity:1" />
  <path
     d="M 88.570717,264.08572 C 89.960263,265.84201 89.082701,264.80714 90.807478,266.55972 C 90.807478,272.42396 90.807478,277.25332 90.807478,277.25332"
     id="path2426"
     style="fill:none;fill-rule:evenodd;stroke:#6d6d6d;stroke-width:1.19896948px;stroke-linecap:round;stroke-linejoin:miter;stroke-opacity:1" />
  <path
     d="M 85.978101,266.21477 C 89.427656,270.35422 90.462523,270.00927 90.462523,270.00927"
     id="path2428"
     style="fill:none;fill-rule:evenodd;stroke:#6d6d6d;stroke-width:1.19896948px;stroke-linecap:round;stroke-linejoin:miter;stroke-opacity:1" />
  <path
     d="M 91.681323,249.2902 C 90.301501,239.63146 87.578498,238.49048 87.578498,238.49048"
     id="path2430"
     style="fill:none;fill-rule:evenodd;stroke:#6d6d6d;stroke-width:1.19896948px;stroke-linecap:round;stroke-linejoin:miter;stroke-opacity:1" />
  <path
     d="M 102.19098,334.86079 C 98.913915,338.65529 100.98365,343.48466 100.98365,343.48466 C 100.98365,343.48466 99.445166,337.74298 100.98365,343.48466 C 102.52212,349.22633 105.95717,354.47965 109.2091,357.73157 C 112.46102,360.9835 116.67909,354.52322 116.85156,354.52322 C 117.02405,354.52322 119.43872,346.93421 118.9213,343.82961 C 118.40387,340.72502 115.29927,336.06813 114.43689,334.17088 C 113.57449,332.27362 112.19468,331.92867 112.53962,331.58372 C 110.81486,331.58372 108.40017,331.06628 104.77814,333.13602"
     id="path2434"
     style="fill:none;fill-rule:evenodd;stroke:#6d6d6d;stroke-width:1.19896948px;stroke-linecap:round;stroke-linejoin:miter;stroke-opacity:1" />
  <path
     d="M 99.948781,339.17272 C 98.913915,338.31034 98.396487,334.51584 98.568959,332.10115 C 98.741431,329.68646 94.774461,323.47727 94.08455,322.61489 C 93.912066,318.30295 89.772612,292.60381 91.497389,291.56894 C 88.047834,286.56711 88.565262,280.87535 88.565262,280.87535"
     id="path2436"
     style="fill:none;fill-rule:evenodd;stroke:#6d6d6d;stroke-width:1.19896948px;stroke-linecap:round;stroke-linejoin:miter;stroke-opacity:1" />
  <path
     d="M 113.05706,331.58372 C 112.19468,322.26994 110.81486,316.92313 110.4699,315.88826 C 110.98733,314.33597 113.22954,301.57264 112.71211,299.15795 C 112.19468,296.74328 104.26072,294.67354 99.431342,296.05337"
     id="path2458"
     style="fill:none;fill-rule:evenodd;stroke:#6d6d6d;stroke-width:1.19896948px;stroke-linecap:round;stroke-linejoin:miter;stroke-opacity:1" />
  <path
     d="M 103.05337,316.75066 C 107.02035,316.64838 110.64238,317.21967 110.64238,317.21967"
     id="path2460"
     style="fill:none;fill-rule:evenodd;stroke:#6d6d6d;stroke-width:1.19896948px;stroke-linecap:round;stroke-linejoin:miter;stroke-opacity:1" />
  <path
     d="M 102.88089,314.8534 C 106.67539,314.68093 110.64238,315.37084 110.64238,315.37084"
     id="path2462"
     style="fill:none;fill-rule:evenodd;stroke:#6d6d6d;stroke-width:1.19896948px;stroke-linecap:round;stroke-linejoin:miter;stroke-opacity:1" />
  <path
     d="M 99.361142,293.84324 C 107.16074,291.95745 111.73111,295.09959 111.73111,295.09959"
     id="path2464"
     style="fill:none;fill-rule:evenodd;stroke:#6d6d6d;stroke-width:1.19896948px;stroke-linecap:round;stroke-linejoin:miter;stroke-opacity:1" />
  <path
     d="M 112.53962,303.64237 C 113.74698,308.47174 114.2644,315.37084 114.09193,318.47542 C 114.95431,321.40754 115.1268,322.78736 115.29927,325.02957 C 115.98918,327.0993 119.61121,332.96353 119.95616,335.03326 C 120.47359,336.2406 123.92314,346.07182 124.2681,351.93606 C 127.89013,356.76543 140.3085,368.14893 142.03328,349.00393 C 139.27363,340.38007 137.89381,337.62043 134.78922,337.79291"
     id="path2466"
     style="fill:none;fill-rule:evenodd;stroke:#6d6d6d;stroke-width:1.19896948px;stroke-linecap:round;stroke-linejoin:miter;stroke-opacity:1" />
  <path
     d="M 125.30297,341.75989 C 123.57819,342.96723 123.20753,345.30277 123.20753,345.30277"
     id="path2468"
     style="fill:none;fill-rule:evenodd;stroke:#6d6d6d;stroke-width:1.19896948px;stroke-linecap:round;stroke-linejoin:miter;stroke-opacity:1" />
  <path
     d="M 136.51399,337.79291 C 136.68647,332.10115 133.75436,319.68276 133.23692,317.09561 C 131.51215,316.06075 132.02958,314.33597 124.61306,313.99102"
     id="path2470"
     style="fill:none;fill-rule:evenodd;stroke:#6d6d6d;stroke-width:1.19896948px;stroke-linecap:round;stroke-linejoin:miter;stroke-opacity:1" />
  <path
     d="M 118.05891,299.50291 L 118.05891,299.50291 C 122.71579,297.08823 127.20022,297.95061 128.23508,298.12309"
     id="path2472"
     style="fill:none;fill-rule:evenodd;stroke:#6d6d6d;stroke-width:1.19896948px;stroke-linecap:round;stroke-linejoin:miter;stroke-opacity:1" />
  <path
     d="M 118.57634,296.91575 C 122.71579,295.36345 126.5103,295.70841 127.37269,295.88088"
     id="path2474"
     style="fill:none;fill-rule:evenodd;stroke:#6d6d6d;stroke-width:1.19896948px;stroke-linecap:round;stroke-linejoin:miter;stroke-opacity:1" />
  <path
     d="M 199.12331,23.021557 C 196.36367,47.858305 197.05358,65.106056 194.98385,71.315243 C 192.91412,77.52443 190.15448,94.772181 187.39485,98.911635 C 186.70494,104.43091 184.6352,156.86406 179.11593,167.90262 C 177.73611,180.32099 179.11593,194.11919 181.18565,195.49901 C 180.49575,198.94855 177.32791,213.45843 175.25817,215.52817"
     id="path2476"
     style="fill:none;fill-rule:evenodd;stroke:#6d6d6d;stroke-width:1.19896948px;stroke-linecap:round;stroke-linejoin:miter;stroke-opacity:1" />
  <path
     d="M 163.41705,215.56482 C 165.15364,215.06219 172.44209,214.83306 175.61306,216.05266 C 179.27185,221.66281 194.63881,248.25009 185.85769,256.54337 C 185.85769,267.51977 184.63809,268.25153 183.41849,271.42249 C 183.66241,274.83737 183.70165,281.63183 183.41849,283.8624 C 182.56143,285.39862 182.44282,285.81377 182.44282,285.81377 C 178.29617,284.83809 175.61306,286.30161 175.61306,286.30161"
     id="path2478"
     style="fill:none;fill-rule:evenodd;stroke:#6d6d6d;stroke-width:1.19896948px;stroke-linecap:round;stroke-linejoin:miter;stroke-opacity:1" />
  <path
     d="M 181.98364,285.68239 C 183.93499,292.99999 186.83337,303.376 180.49145,311.18143 C 173.17385,317.27944 165.61233,316.54767 163.66097,311.18143 C 161.70961,305.81519 157.31906,284.59417 159.27042,280.2036 C 165.85625,275.08129 172.44209,276.05696 173.90561,282.64281 C 174.39345,286.30161 176.34481,288.00905 175.36914,293.37529 C 178.78402,298.4976 179.75969,299.47328 179.51577,305.81519"
     id="path2480"
     style="fill:none;fill-rule:evenodd;stroke:#6d6d6d;stroke-width:1.19896948px;stroke-linecap:round;stroke-linejoin:miter;stroke-opacity:1" />
  <path
     d="M 167.56369,309.47399 C 171.71034,310.93752 172.92993,309.96184 173.17385,309.47399"
     id="path2482"
     style="fill:none;fill-rule:evenodd;stroke:#6d6d6d;stroke-width:1.19896948px;stroke-linecap:round;stroke-linejoin:miter;stroke-opacity:1" />
  <path
     d="M 167.31977,311.18143 C 170.0029,312.15712 172.86394,312.15712 173.59571,311.18143"
     id="path2484"
     style="fill:none;fill-rule:evenodd;stroke:#6d6d6d;stroke-width:1.19896948px;stroke-linecap:round;stroke-linejoin:miter;stroke-opacity:1" />
  <path
     d="M 125.60946,335.81735 C 129.51219,334.10991 131.21962,334.35383 132.68314,334.59775"
     id="path2486"
     style="fill:none;fill-rule:evenodd;stroke:#6d6d6d;stroke-width:1.19896948px;stroke-linecap:round;stroke-linejoin:miter;stroke-opacity:1" />
  <path
     d="M 125.12162,334.10991 C 129.186,332.62343 131.74381,332.43212 132.68314,332.64639"
     id="path2488"
     style="fill:none;fill-rule:evenodd;stroke:#6d6d6d;stroke-width:1.19896948px;stroke-linecap:round;stroke-linejoin:miter;stroke-opacity:1" />
  <path
     d="M 162.28892,284.44172 C 166.77677,284.29508 167.89908,283.46603 169.85045,283.22211 C 170.82612,287.36875 171.22249,291.91177 170.49073,293.37529 C 168.29546,294.59488 166.10018,294.10704 164.88058,293.37529 C 163.17314,289.96041 162.16696,284.92955 162.28892,284.44172 z"
     id="path2490"
     style="fill:none;fill-rule:evenodd;stroke:#6d6d6d;stroke-width:1.19896948px;stroke-linecap:round;stroke-linejoin:miter;stroke-opacity:1" />
  <path
     d="M 160.24609,297.278 C 160.8559,310.93752 157.44102,324.10919 155.9775,325.08488 C 154.51397,326.06056 152.19674,328.62172 149.51361,328.49976 C 146.8305,328.3778 140.36661,324.35312 138.9031,321.66999 C 137.43958,318.98688 136.4639,305.08344 136.09802,302.40033 C 135.61018,299.83916 135.73214,291.30197 136.09802,289.59453 C 137.07371,288.13101 139.63486,285.082 143.1717,285.20396 C 146.70854,285.32592 151.34301,288.37493 151.95282,294.59488 C 152.56262,300.81484 153.41634,303.49796 153.90418,305.08344 C 154.51397,307.64459 154.75789,309.47399 154.75789,310.0838"
     id="path2492"
     style="fill:none;fill-rule:evenodd;stroke:#6d6d6d;stroke-width:1.19896948px;stroke-linecap:round;stroke-linejoin:miter;stroke-opacity:1" />
  <path
     d="M 139.39094,295.93644 L 139.39094,295.93644 C 143.53758,293.0094 147.19638,294.59488 148.41598,296.30232 C 148.53794,297.76584 148.90382,302.03444 148.29402,303.376 C 147.44029,304.10777 146.2207,305.93717 145.0011,305.57128 C 142.31799,305.81519 140.1227,303.86384 139.5129,302.7662 C 139.14702,300.327 139.5129,296.0584 139.39094,295.93644 z"
     id="path2494"
     style="fill:none;fill-rule:evenodd;stroke:#6d6d6d;stroke-width:1.19896948px;stroke-linecap:round;stroke-linejoin:miter;stroke-opacity:1" />
  <path
     d="M 149.02578,319.71864 C 145.48894,320.45039 143.41562,320.20647 142.43994,319.96255"
     id="path2498"
     style="fill:none;fill-rule:evenodd;stroke:#6d6d6d;stroke-width:1.19896948px;stroke-linecap:round;stroke-linejoin:miter;stroke-opacity:1" />
  <path
     d="M 147.44029,321.79195 C 146.36191,321.96911 145.49228,321.9799 144.63857,321.9799"
     id="path2500"
     style="fill:none;fill-rule:evenodd;stroke:#6d6d6d;stroke-width:1.19896948px;stroke-linecap:round;stroke-linejoin:miter;stroke-opacity:1" />
  <path
     d="M 133.19728,316.53764 C 133.2255,311.47833 133.48291,305.98907 133.17099,300.9368"
     id="path2502"
     style="fill:none;fill-rule:evenodd;stroke:#6d6d6d;stroke-width:1.19896948px;stroke-linecap:round;stroke-linejoin:miter;stroke-opacity:1" />
  <path
     d="M 131.58551,300.69289 C 133.17099,300.9368 135.13238,301.30268 135.86414,301.05876"
     id="path2504"
     style="fill:none;fill-rule:evenodd;stroke:#6d6d6d;stroke-width:1.19896948px;stroke-linecap:round;stroke-linejoin:miter;stroke-opacity:1" />
  <path
     d="M 152.19674,296.18036 C 155.00181,295.69252 158.66061,295.69252 160.00217,296.18036"
     id="path2506"
     style="fill:none;fill-rule:evenodd;stroke:#6d6d6d;stroke-width:1.19896948px;stroke-linecap:round;stroke-linejoin:miter;stroke-opacity:1" />
  <path
     d="M 152.19674,294.35096 C 155.3677,293.86312 158.29473,294.10704 159.6363,294.59488"
     id="path2508"
     style="fill:none;fill-rule:evenodd;stroke:#6d6d6d;stroke-width:1.19896948px;stroke-linecap:round;stroke-linejoin:miter;stroke-opacity:1" />
  <path
     d="M 97.070835,278.00832 C 117.31619,282.39889 129.26826,279.22793 136.09802,260.93393"
     id="path2510"
     style="fill:none;fill-rule:evenodd;stroke:#6d6d6d;stroke-width:1.19896948px;stroke-linecap:round;stroke-linejoin:miter;stroke-opacity:1" />
  <path
     d="M 119.26755,280.2036 C 129.75611,279.22793 138.53722,270.20289 139.5129,268.73937 C 131.95138,277.52049 118.04794,287.03336 118.04794,287.03336"
     id="path2512"
     style="fill:none;fill-rule:evenodd;stroke:#6d6d6d;stroke-width:1.19896948px;stroke-linecap:round;stroke-linejoin:miter;stroke-opacity:1" />
  <path
     d="M 143.90345,257.51905 C 143.65954,264.10489 149.75754,282.64281 154.87986,280.69144"
     id="path2514"
     style="fill:none;fill-rule:evenodd;stroke:#6d6d6d;stroke-width:1.19896948px;stroke-linecap:round;stroke-linejoin:miter;stroke-opacity:1" />
  <path
     d="M 148.53794,274.83737 C 152.44066,268.98328 160.24609,265.32449 161.70961,265.32449"
     id="path2516"
     style="fill:none;fill-rule:evenodd;stroke:#6d6d6d;stroke-width:1.19896948px;stroke-linecap:round;stroke-linejoin:miter;stroke-opacity:1" />
  <path
     d="M 150.97713,277.76441 C 155.85554,270.93464 164.88058,266.30017 166.3441,265.81233"
     id="path2518"
     style="fill:none;fill-rule:evenodd;stroke:#6d6d6d;stroke-width:1.19896948px;stroke-linecap:round;stroke-linejoin:miter;stroke-opacity:1" />
  <path
     d="M 145.36698,240.20074 C 149.75754,223.8581 152.68458,222.39458 156.09946,219.71146"
     id="path3371"
     style="fill:none;fill-rule:evenodd;stroke:#6d6d6d;stroke-width:1.19896948px;stroke-linecap:round;stroke-linejoin:miter;stroke-opacity:1" />
  <g
     transform="matrix(1.1989694,0,0,1.1989694,-252.70438,-174.00132)"
     id="g3426">
    <path
       d="M 324.53265,226.59968 C 324.68357,231.24441 329.37299,306.13257 332.83673,305.24715 C 334.26922,306.83048 334.02084,322.99543 331.10255,325.932 C 331.50943,327.76297 331.10255,327.55953 331.50943,329.18706 C 331.91631,330.81459 330.49222,341.1901 327.84748,351.15872 C 325.77816,351.77678 326.50977,350.89145 326.01651,350.75184 C 327.03372,348.31055 328.66125,328.98362 328.66125,328.98362 C 328.66125,328.98362 328.45781,328.16985 327.03372,327.76297 C 326.21995,327.76297 322.15113,330.81459 317.06509,333.25589 C 312.58938,334.27309 309.13088,336.91783 304.65517,339.96945 C 304.56703,340.07205 303.12848,341.1714 303.23108,340.17289 C 304.34066,338.67089 313.40315,333.05244 315.641,331.8318 C 317.47198,331.22147 324.59242,325.11823 326.62684,323.89758 C 327.13544,323.59242 330.53846,321.91119 329.80005,312.17242 C 327.21789,311.99614 321.05537,239.13499 321.12037,227.90782 C 325.7048,226.28175 321.82066,226.7534 324.53265,226.59968 z"
       id="path3399"
       style="fill:#5555ff;fill-opacity:1;fill-rule:evenodd;stroke:none;stroke-width:0.69999999;stroke-linecap:butt;stroke-linejoin:miter;stroke-miterlimit:4;stroke-dasharray:none;stroke-opacity:1" />
    <path
       d="M 233.1844,200.90625 C 233.0692,201.03542 232.9539,201.11825 232.77815,201.21875 C 232.46668,201.39686 231.79364,201.67123 230.9969,201.96875 C 230.99753,207.73923 232.44903,228.38322 234.27815,247.8125 C 235.20245,257.63065 236.21726,267.10564 237.15315,274.125 C 237.62109,277.63468 238.08701,280.55529 238.4969,282.5625 C 238.70184,283.5661 238.88723,284.34031 239.0594,284.84375 C 239.13937,285.07759 239.19578,285.25368 239.2469,285.34375 C 239.25081,285.35063 239.27456,285.36911 239.27815,285.375 C 239.47179,285.45414 239.60462,285.63527 239.6219,285.84375 C 239.99613,290.77941 239.3096,293.73952 238.4344,295.53125 C 237.9968,296.42712 237.51587,297.00957 237.09065,297.40625 C 236.66543,297.80293 236.27056,298.01081 236.1844,298.0625 C 235.27205,298.60991 232.92455,300.45971 230.65315,302.21875 C 229.51745,303.09827 228.40557,303.96965 227.4344,304.65625 C 226.50322,305.31458 225.78903,305.77869 225.1844,306 L 225.1844,306.03125 C 224.66646,306.31376 223.141,307.29036 222.02815,307.96875 C 223.3249,307.34769 224.64344,306.80864 226.09065,306.46875 C 228.60415,305.26227 230.90113,303.91195 232.65315,302.84375 C 233.52916,302.30965 234.24887,301.83417 234.84065,301.5 C 235.13654,301.33292 235.39445,301.19476 235.6219,301.09375 C 235.84935,300.99274 236.03355,300.90625 236.3094,300.90625 C 236.36271,300.90911 236.41534,300.91964 236.46565,300.9375 C 237.26497,301.16588 237.75975,301.51051 238.0594,301.84375 C 238.35904,302.17699 238.46565,302.5625 238.46565,302.5625 C 238.48675,302.62274 238.49732,302.68617 238.4969,302.75 C 238.4969,302.75 238.06577,307.57964 237.52815,312.71875 C 237.25934,315.2883 236.98258,317.92957 236.6844,320.09375 C 236.53531,321.17584 236.36047,322.13044 236.21565,322.90625 C 236.097,323.54189 235.9986,323.96413 235.8719,324.34375 C 235.89919,324.3891 235.98455,324.43531 235.9969,324.46875 C 236.01912,324.52894 236.02,324.47973 236.02815,324.5 C 236.12048,324.49928 236.40632,324.43214 236.65315,324.375 C 237.92936,319.51346 238.94137,314.59504 239.5594,310.65625 C 239.87505,308.64454 240.06895,306.86943 240.1844,305.53125 C 240.29985,304.19307 240.29649,303.19835 240.2469,303 C 240.03422,302.14929 240.02799,301.69268 240.02815,301.3125 C 240.02831,300.93232 240.03653,300.63148 239.84065,299.75 C 239.78656,299.56324 239.83396,299.3618 239.96565,299.21875 C 240.51804,298.6629 241.12705,297.16175 241.52815,295.25 C 241.92925,293.33825 242.18855,291.03202 242.3094,288.75 C 242.43025,286.46798 242.40975,284.2209 242.27815,282.46875 C 242.21235,281.59267 242.11415,280.84334 241.9969,280.28125 C 241.89103,279.77372 241.76033,279.4865 241.71565,279.40625 C 241.58235,279.34721 241.45592,279.27564 241.3719,279.1875 C 241.18598,278.99247 241.06093,278.75104 240.9344,278.46875 C 240.68134,277.90418 240.44943,277.12824 240.21565,276.125 C 239.7481,274.11852 239.27404,271.24219 238.8094,267.75 C 237.88011,260.76563 236.96277,251.34768 236.15315,241.75 C 234.56551,222.92926 233.39773,203.92962 233.27815,200.90625 C 233.24977,200.90693 233.20821,200.90582 233.1844,200.90625 z"
       transform="translate(89.821123,26.302759)"
       clip-path="url(#clipPath3339)"
       id="path3401"
       style="fill:#999999;fill-opacity:1;fill-rule:evenodd;stroke:none;stroke-width:0.69999999;stroke-linecap:butt;stroke-linejoin:miter;stroke-miterlimit:4;stroke-opacity:1;filter:url(#filter3395)" />
    <path
       d="M 325.40645,225.9375 C 325.40528,225.93067 325.5296,226.04885 325.65645,226.1875 C 325.61556,226.13054 325.56244,226.03098 325.5627,226.03125 C 325.56341,226.03199 325.43152,225.95436 325.40645,225.9375 z M 325.1877,227.71875 C 325.16251,227.73378 325.1519,227.76574 325.1252,227.78125 C 324.82281,227.95691 324.153,228.21718 323.5002,228.46875 C 323.51727,234.31075 324.98609,254.80403 326.8127,274.125 C 327.74068,283.94075 328.74987,293.39421 329.6877,300.40625 C 330.15662,303.91227 330.59224,306.81884 331.0002,308.8125 C 331.20418,309.80933 331.39847,310.58285 331.5627,311.0625 C 331.63778,311.28177 331.71529,311.40545 331.7502,311.46875 C 331.75347,311.47468 331.77888,311.49578 331.78145,311.5 C 331.99234,311.64299 332.12952,311.87163 332.15645,312.125 C 332.53355,317.09849 331.85372,320.1112 330.9377,321.96875 C 330.47969,322.89753 329.95496,323.51653 329.5002,323.9375 C 329.04544,324.35847 328.59144,324.62025 328.53145,324.65625 C 327.67918,325.16761 325.32882,327.02022 323.0627,328.78125 C 321.92964,329.66176 320.7883,330.5269 319.8127,331.21875 C 318.8856,331.8762 318.20904,332.34319 317.53145,332.59375 C 317.496,332.60686 317.44171,332.6445 317.40645,332.65625 C 317.37983,332.67091 317.27875,332.7341 317.2502,332.75 C 317.55528,332.66022 317.84181,332.5439 318.15645,332.46875 C 320.65352,331.27016 322.90592,329.91104 324.65645,328.84375 C 325.53171,328.31011 326.27428,327.83933 326.8752,327.5 C 327.17566,327.33034 327.44444,327.20177 327.6877,327.09375 C 327.93096,326.98573 328.12736,326.875 328.5002,326.875 C 328.58461,326.87317 328.66884,326.8837 328.7502,326.90625 C 329.59813,327.14851 330.16078,327.56003 330.5002,327.9375 C 330.83961,328.31497 330.96895,328.75 330.96895,328.75 C 330.99472,328.8414 331.00528,328.93642 331.0002,329.03125 C 331.0002,329.03125 330.59289,333.88052 330.0627,339.03125 C 329.79761,341.60662 329.48375,344.26436 329.1877,346.4375 C 329.03967,347.52407 328.89563,348.49657 328.7502,349.28125 C 328.65739,349.78204 328.56631,350.085 328.46895,350.4375 C 328.49919,350.43322 328.55486,350.4133 328.59395,350.40625 C 329.83491,345.63844 330.83203,340.76628 331.4377,336.90625 C 331.75251,334.89991 331.97941,333.17142 332.09395,331.84375 C 332.20849,330.51608 332.14575,329.48846 332.1252,329.40625 C 331.90738,328.53496 331.90629,328.00517 331.90645,327.625 C 331.90661,327.24483 331.91063,326.98753 331.71895,326.125 C 331.64648,325.83456 331.72921,325.52729 331.9377,325.3125 C 332.39195,324.8554 333.00735,323.38872 333.40645,321.5 C 333.80555,319.61128 334.09488,317.30136 334.21895,315.03125 C 334.34302,312.76114 334.3151,310.54669 334.1877,308.8125 C 334.124,307.9454 334.01857,307.19744 333.90645,306.65625 C 333.79433,306.11506 333.58523,305.76503 333.65645,305.84375 L 333.6877,305.8125 C 333.58835,305.75049 333.40912,305.78712 333.34395,305.71875 C 333.11598,305.47962 333.0098,305.20637 332.8752,304.90625 C 332.60601,304.30602 332.36168,303.51341 332.1252,302.5 C 331.65224,300.47318 331.18572,297.59231 330.71895,294.09375 C 329.78542,287.09663 328.87644,277.6666 328.0627,268.0625 C 326.47813,249.3608 325.32311,230.99349 325.1877,227.71875 z"
       clip-path="url(#clipPath3410)"
       id="path3405"
       style="fill:#666666;fill-opacity:1;fill-rule:evenodd;stroke:none;stroke-width:0.69999999;stroke-linecap:butt;stroke-linejoin:miter;stroke-miterlimit:4;stroke-opacity:1;filter:url(#filter3431)" />
  </g>
  <path
     d="M 151.41777,239.98741 C 149.94258,236.55772 145.07546,211.79537 146.65063,208.34158 C 147.04058,204.94486 146.9184,201.48874 147.31644,198.10627 C 147.18614,195.07003 147.0751,194.95135 146.42131,191.98104 C 146.77169,191.12479 148.91563,111.0794 153.48958,99.121515 C 155.48725,100.16901 155.35169,100.01334 156.1748,100.29318 C 151.41919,113.2702 150.56548,188.42555 149.82231,192.51305 C 150.00678,195.37208 150.61029,197.65011 150.0699,200.59324 C 150.38778,203.46841 149.56534,206.54298 149.67038,209.46709 C 149.61042,212.60124 152.01433,232.42962 153.16925,235.4718 C 152.98613,236.8486 152.92412,237.28706 151.41777,239.98741 z"
     id="path3449"
     style="fill:#ff0000;fill-opacity:1;fill-rule:nonzero;stroke:none;stroke-width:0.2;stroke-linecap:butt;stroke-linejoin:miter;marker:none;marker-start:none;marker-mid:none;marker-end:none;stroke-miterlimit:4;stroke-dasharray:none;stroke-dashoffset:0;stroke-opacity:1;visibility:visible;display:inline;overflow:visible;enable-background:accumulate" />
  <path
     d="M 248.83175,202.4375 C 248.0125,204.98777 247.21531,210.56528 246.5505,217.78125 C 245.84517,225.43707 245.24668,234.71177 244.76925,243.71875 C 244.29182,252.72573 243.94191,261.45544 243.6755,267.96875 C 243.54229,271.22541 243.41562,273.92826 243.33175,275.84375 C 243.28982,276.8015 243.26827,277.55729 243.238,278.09375 C 243.22287,278.36198 243.21965,278.59185 243.20675,278.75 C 243.2003,278.82907 243.18277,278.87844 243.1755,278.9375 C 243.67722,281.20256 243.81941,281.55917 243.9255,284.03125 C 243.92935,284.07283 243.92935,284.11467 243.9255,284.15625 C 243.60152,286.90937 243.69588,289.75671 243.363,292.65625 C 243.35463,292.73217 243.3335,292.80612 243.3005,292.875 C 243.22701,293.03614 243.09372,293.62994 243.08175,294.4375 C 243.06978,295.24506 243.13215,296.29141 243.238,297.46875 C 243.44971,299.82343 243.8637,302.76118 244.363,305.6875 C 244.8623,308.61382 245.45861,311.53793 245.988,313.90625 C 246.33741,315.4694 246.56964,316.16565 246.83175,317.0625 C 247.16054,316.35868 247.33222,315.85986 247.4255,315.15625 C 247.4234,315.14996 247.4276,315.13136 247.4255,315.125 C 247.1525,314.29939 246.88184,313.05169 246.58175,311.25 C 246.25523,309.28966 245.89263,306.89488 245.58175,304.5 C 245.27087,302.10512 244.99914,299.68463 244.8005,297.71875 C 244.60334,295.76746 244.47567,294.32246 244.488,293.5625 C 244.48809,293.55682 244.48789,293.53685 244.488,293.53125 C 244.40182,290.95725 245.07581,288.39493 244.83175,286.1875 C 244.83331,286.12384 244.84383,286.06072 244.863,286 C 245.28583,283.69713 244.77163,281.86475 244.613,279.40625 C 244.61724,279.35312 244.62773,279.30067 244.64425,279.25 C 244.6911,278.9923 244.77628,277.5563 244.863,275.5 C 244.94972,273.4437 245.03565,270.668 245.14425,267.40625 C 245.36145,260.88275 245.64162,252.41613 246.01925,243.6875 C 246.39688,234.95887 246.88226,225.96789 247.51925,218.5 C 248.1253,211.39491 248.88039,205.90777 249.863,202.875 C 249.65541,202.8124 249.19631,202.60274 248.83175,202.4375 z"
     transform="matrix(1.1989694,0,0,1.1989694,-145.14168,-142.46188)"
     clip-path="url(#clipPath3467)"
     id="path3461"
     style="fill:#999999;fill-opacity:1;fill-rule:nonzero;stroke:none;stroke-width:0.2;stroke-linecap:butt;stroke-linejoin:miter;marker:none;marker-start:none;marker-mid:none;marker-end:none;stroke-miterlimit:4;stroke-dashoffset:0;stroke-opacity:1;visibility:visible;display:inline;overflow:visible;filter:url(#filter3471);enable-background:accumulate" />
  <path
     d="M 250.7055,202.65625 C 249.91409,205.23395 249.10884,210.6898 248.4555,217.78125 C 247.75049,225.43356 247.15162,234.74408 246.67425,243.75 C 246.19688,252.75592 245.8469,261.4556 245.5805,267.96875 C 245.4473,271.22532 245.32064,273.9277 245.23675,275.84375 C 245.1948,276.80177 245.17334,277.55597 245.143,278.09375 C 245.12783,278.36264 245.09359,278.58947 245.0805,278.75 C 245.07395,278.83026 245.08822,278.90608 245.0805,278.96875 C 245.56708,281.16155 245.7255,281.58467 245.8305,284.03125 C 245.82334,284.07366 245.81289,284.11546 245.79925,284.15625 C 245.47706,286.89413 245.57134,289.77305 245.23675,292.6875 C 245.22905,292.77358 245.20797,292.85793 245.17425,292.9375 C 245.12109,293.05405 244.99859,293.63844 244.98675,294.4375 C 244.97491,295.23656 245.03744,296.29472 245.143,297.46875 C 245.35411,299.81681 245.76915,302.73256 246.268,305.65625 C 246.76685,308.57994 247.36428,311.50968 247.893,313.875 C 248.20441,315.26815 248.39577,315.80794 248.643,316.6875 C 248.85031,316.19688 248.94715,315.75582 249.018,315.21875 C 248.73023,314.37097 248.47955,313.08297 248.17425,311.25 C 247.84727,309.28688 247.4853,306.8962 247.17425,304.5 C 246.8632,302.1038 246.59183,299.71776 246.393,297.75 C 246.19708,295.81102 246.06979,294.34893 246.0805,293.5625 C 246.08066,293.55083 246.08028,293.51137 246.0805,293.5 C 245.9996,290.90476 246.69411,288.37693 246.4555,286.21875 C 246.44288,286.13589 246.44288,286.05161 246.4555,285.96875 C 246.87208,283.69991 246.3652,281.91256 246.2055,279.4375 C 246.20612,279.36352 246.21663,279.28995 246.23675,279.21875 C 246.27674,278.9988 246.36882,277.55522 246.4555,275.5 C 246.54218,273.44478 246.6594,270.66792 246.768,267.40625 C 246.9852,260.88291 247.23407,252.38597 247.61175,243.65625 C 247.98943,234.92653 248.47444,225.97168 249.11175,218.5 C 249.71072,211.47788 250.44772,206.06351 251.42425,202.96875 C 251.27712,202.92319 250.92676,202.75012 250.7055,202.65625 z"
     transform="matrix(1.1989694,0,0,1.1989694,-145.14168,-142.46188)"
     clip-path="url(#clipPath3482)"
     id="path3477"
     style="fill:#666666;fill-opacity:1;fill-rule:nonzero;stroke:none;stroke-width:0.2;stroke-linecap:butt;stroke-linejoin:miter;marker:none;marker-start:none;marker-mid:none;marker-end:none;stroke-miterlimit:4;stroke-dashoffset:0;stroke-opacity:1;visibility:visible;display:inline;overflow:visible;filter:url(#filter3486);enable-background:accumulate" />
  <g
     transform="matrix(1.1989694,0,0,1.1989694,-145.14168,-142.46188)"
     id="g5791">
    <path
       d="M 241.09375,279.34375 L 240.5625,279.40625 C 240.66329,280.24588 240.83883,282.3945 241.1875,284.34375 C 241.36183,285.31837 241.59627,286.22874 241.875,286.9375 C 242.01436,287.29188 242.15437,287.6117 242.34375,287.84375 C 242.53313,288.0758 242.77038,288.23666 243.0625,288.25 C 243.43673,288.26709 243.76852,288.16943 244.03125,287.96875 C 244.29398,287.76807 244.48619,287.48747 244.625,287.15625 C 244.90262,286.49382 245.00381,285.62623 245.03125,284.6875 C 245.08613,282.81004 244.85072,280.6178 244.96875,279.40625 L 244.4375,279.34375 C 244.30719,280.68135 244.55317,282.83757 244.5,284.65625 C 244.47342,285.56559 244.35231,286.39512 244.125,286.9375 C 244.01135,287.20869 243.88196,287.40658 243.71875,287.53125 C 243.55554,287.65592 243.35943,287.73088 243.09375,287.71875 C 243.00397,287.71465 242.91323,287.66172 242.78125,287.5 C 242.64927,287.33828 242.50196,287.07284 242.375,286.75 C 242.12108,286.10431 241.88983,285.20645 241.71875,284.25 C 241.37658,282.33709 241.19836,280.21517 241.09375,279.34375 z"
       id="path3432"
       style="fill:#000000;fill-opacity:1;fill-rule:evenodd;stroke:none;stroke-width:0.54633892px;stroke-linecap:butt;stroke-linejoin:miter;stroke-opacity:1;display:inline" />
    <path
       d="M 239.86264,282.36368 L 240.7434,278.6507 L 242.47791,282.04973 C 241.63768,281.57431 240.58181,281.70438 239.86264,282.36368 z"
       id="path5797"
       style="font-size:12px;fill-rule:evenodd;stroke-width:0.625;stroke-linejoin:round" />
  </g>
  <g
     transform="matrix(1.1989694,0,0,1.1989694,-145.14168,-142.46188)"
     id="g5783">
    <path
       d="M 253.6875,189.9375 C 252.53068,192.44895 251.87569,194.29804 250.375,199.84375 L 250.90625,199.96875 C 252.40428,194.43284 253.03967,192.64818 254.1875,190.15625 L 253.6875,189.9375 z"
       id="path3604"
       style="fill:#000000;fill-opacity:1;fill-rule:evenodd;stroke:none;stroke-width:0.54633892px;stroke-linecap:butt;stroke-linejoin:miter;stroke-opacity:1;display:inline" />
    <path
       d="M 252.65133,197.48719 L 250.44451,200.60037 L 250.10874,196.79915 C 250.70985,197.55458 251.73763,197.82928 252.65133,197.48719 z"
       id="path5789"
       style="font-size:12px;fill-rule:evenodd;stroke-width:0.625;stroke-linejoin:round" />
  </g>
  <g
     transform="matrix(1.1989694,0,0,1.1989694,-145.14168,-142.46188)"
     id="g5775">
    <path
       d="M 231.65625,190.46875 L 231.125,190.53125 C 231.41228,193.85425 231.63238,195.70945 232.1875,199.3125 L 232.71875,199.25 C 232.16458,195.65311 231.94295,193.78495 231.65625,190.46875 z"
       id="path3606"
       style="fill:#000000;fill-opacity:1;fill-rule:evenodd;stroke:none;stroke-width:0.54633892px;stroke-linecap:butt;stroke-linejoin:miter;stroke-opacity:1;display:inline" />
    <path
       d="M 230.32483,193.45898 L 231.32847,189.77731 L 232.94908,193.23211 C 232.12512,192.72903 231.06551,192.82394 230.32483,193.45898 z"
       id="path5781"
       style="font-size:12px;fill-rule:evenodd;stroke-width:0.625;stroke-linejoin:round" />
  </g>
  <path
     d="M 30.732155,83.506388 L 29.533186,83.543856 C 29.789585,90.395475 30.783759,93.178595 32.080996,97.257069 L 33.20503,96.882391 C 31.902133,92.786124 30.984826,90.258205 30.732155,83.506388 z"
     id="path3303"
     style="fill:#000000;fill-opacity:1;fill-rule:evenodd;stroke:none;stroke-width:1px;stroke-linecap:butt;stroke-linejoin:miter;stroke-opacity:1;display:inline" />
  <path
     d="M 33.506319,90.222428 L 33.134386,98.588609 L 27.997701,91.974542 C 30.004453,92.653926 32.227102,91.939376 33.506319,90.222428 z"
     id="path5765"
     style="font-size:12px;fill-rule:evenodd;stroke-width:0.625;stroke-linejoin:round" />
  <text
     x="33.342438"
     y="49.198368"
     id="text3307"
     xml:space="preserve"
     style="font-size:11.9896946px;font-style:normal;font-variant:normal;font-weight:normal;font-stretch:normal;text-align:start;line-height:125%;writing-mode:lr-tb;text-anchor:start;fill:#000000;fill-opacity:1;stroke:none;stroke-width:1px;stroke-linecap:butt;stroke-linejoin:miter;stroke-opacity:1;display:inline;font-family:FreeSans;-inkscape-font-specification:FreeSans"><tspan
       x="33.342438"
       y="49.198368"
       id="tspan3309"
       style="font-size:11.9896946px;text-align:center;text-anchor:middle">From</tspan><tspan
       x="33.342438"
       y="64.185486"
       id="tspan3311"
       style="font-size:11.9896946px;text-align:center;text-anchor:middle">dialysis</tspan><tspan
       x="33.342438"
       y="79.1726"
       id="tspan3313"
       style="font-size:11.9896946px;text-align:center;text-anchor:middle">machine</tspan></text>
  <g
     transform="matrix(1.1989694,0,0,1.1989694,-145.14168,-142.46188)"
     id="g3761">
    <g
       transform="matrix(0.8106251,-0.5855655,0.5855655,0.8106251,-87.719301,172.86381)"
       id="g3657">
      <path
         d="M 223.31098,234.72808 L 234.54918,224.134 L 234.0582,225.86834 L 223.87527,235.26368 L 223.31098,234.72808 z"
         id="path5794"
         style="fill:url(#linearGradient2624);fill-opacity:1;fill-rule:evenodd;stroke:#000000;stroke-width:0.2;stroke-linecap:butt;stroke-linejoin:miter;stroke-miterlimit:0;stroke-dasharray:none;stroke-opacity:1" />
      <rect
         width="1.5995601"
         height="1.2399232"
         x="321.21069"
         y="-38.065342"
         transform="matrix(0.6010908,0.7991807,-0.7991807,0.6010908,0,0)"
         id="rect5826"
         style="fill:url(#linearGradient2626);fill-opacity:1;fill-rule:evenodd;stroke:#000000;stroke-width:0.25476956;stroke-linecap:butt;stroke-linejoin:miter;marker:none;marker-start:none;marker-mid:none;marker-end:none;stroke-miterlimit:0;stroke-dasharray:none;stroke-dashoffset:0;stroke-opacity:1;visibility:visible;display:inline;overflow:visible;enable-background:accumulate" />
      <rect
         width="2.6008081"
         height="1.8874848"
         x="321.49734"
         y="-28.482838"
         transform="matrix(0.6213053,0.7835686,-0.7833832,0.621539,0,0)"
         id="rect5857"
         style="fill:url(#linearGradient2628);fill-opacity:1;fill-rule:evenodd;stroke:#000000;stroke-width:0.40081668;stroke-linecap:butt;stroke-linejoin:miter;marker:none;marker-start:none;marker-mid:none;marker-end:none;stroke-miterlimit:0;stroke-dasharray:none;stroke-dashoffset:0;stroke-opacity:1;visibility:visible;display:inline;overflow:visible;enable-background:accumulate" />
    </g>
    <path
       d="M 150.38007,201.57773 L 148.06757,202.82773 C 148.06757,202.82773 162.63077,230.10737 182.78632,247.14023 C 192.81982,255.61925 202.61751,261.41037 211.47382,260.57773 C 215.90197,260.16141 220.00444,257.97201 223.44257,253.79648 C 226.8807,249.62095 229.71272,243.49468 231.91132,234.98398 L 229.38007,234.32773 C 227.24151,242.60602 224.52767,248.4247 221.44257,252.17148 C 218.35747,255.91826 214.9803,257.63081 211.22382,257.98398 C 203.71086,258.69033 194.3073,253.45021 184.47382,245.14023 C 164.89542,228.5951 150.38007,201.57773 150.38007,201.57773 z"
       id="path3668"
       style="fill:#ff0000;fill-opacity:1;fill-rule:evenodd;stroke:none;stroke-width:0.30000001;stroke-linecap:butt;stroke-linejoin:miter;stroke-miterlimit:4;stroke-dasharray:none;stroke-opacity:1" />
    <path
       d="M 229.61995,235.35628 C 229.86138,235.3134 229.84193,235.34442 229.87356,235.35903 C 231.36854,235.57704 232.00699,237.4874 232.89172,238.48855 C 236.90754,243.03289 237.59202,232.32975 230.74875,234.58875 C 229.0969,234.3201 228.32816,232.76725 227.47697,231.45648 C 226.59852,230.4624 225.89087,230.20344 225.37522,230.37321 C 223.53362,230.97954 224.27364,237.12113 229.61995,235.35628 z"
       id="path5849"
       style="fill:#71c837;fill-rule:nonzero;stroke:#000000;stroke-width:0.2;stroke-linecap:butt;stroke-linejoin:miter;stroke-miterlimit:4;stroke-dasharray:none;stroke-opacity:1" />
    <path
       d="M 150.11438,210.53125 L 149.64563,210.78125 C 151.01332,213.28681 164.65809,237.91325 183.58313,253.90625 C 193.54043,262.32088 203.18001,267.87791 211.52063,267.09375 C 215.67163,266.70349 219.47635,264.68833 222.77063,260.6875 C 225.92245,256.85969 228.57819,251.08404 230.70813,243.25 L 230.17688,243.125 C 228.06326,250.89412 225.47592,256.63407 222.39563,260.375 C 219.17341,264.28831 215.4673,266.18557 211.45813,266.5625 C 203.39052,267.321 193.87617,261.85019 183.95813,253.46875 C 165.13804,237.56445 151.4716,213.01714 150.11438,210.53125 z"
       transform="translate(-1.1192663,-7.5550477)"
       clip-path="url(#clipPath3681)"
       id="path3676"
       style="fill:#999999;fill-opacity:1;fill-rule:evenodd;stroke:none;stroke-width:0.30000001;stroke-linecap:butt;stroke-linejoin:miter;stroke-miterlimit:4;stroke-opacity:1;filter:url(#filter3697)" />
  </g>
  <g
     transform="matrix(1.1971422,-6.6169056e-2,6.6169056e-2,1.1971422,-156.7624,-97.069464)"
     id="g3770">
    <g
       transform="matrix(0.8106251,-0.5855655,0.5855655,0.8106251,-87.719301,172.86381)"
       id="g3772">
      <path
         d="M 223.31098,234.72808 L 234.54918,224.134 L 234.0582,225.86834 L 223.87527,235.26368 L 223.31098,234.72808 z"
         id="path3774"
         style="fill:url(#linearGradient2630);fill-opacity:1;fill-rule:evenodd;stroke:#000000;stroke-width:0.2;stroke-linecap:butt;stroke-linejoin:miter;stroke-miterlimit:0;stroke-dasharray:none;stroke-opacity:1" />
      <rect
         width="1.5995601"
         height="1.2399232"
         x="321.21069"
         y="-38.065342"
         transform="matrix(0.6010908,0.7991807,-0.7991807,0.6010908,0,0)"
         id="rect3776"
         style="fill:url(#linearGradient2632);fill-opacity:1;fill-rule:evenodd;stroke:#000000;stroke-width:0.25476956;stroke-linecap:butt;stroke-linejoin:miter;marker:none;marker-start:none;marker-mid:none;marker-end:none;stroke-miterlimit:0;stroke-dasharray:none;stroke-dashoffset:0;stroke-opacity:1;visibility:visible;display:inline;overflow:visible;enable-background:accumulate" />
      <rect
         width="2.6008081"
         height="1.8874848"
         x="321.49734"
         y="-28.482838"
         transform="matrix(0.6213053,0.7835686,-0.7833832,0.621539,0,0)"
         id="rect3778"
         style="fill:url(#linearGradient2634);fill-opacity:1;fill-rule:evenodd;stroke:#000000;stroke-width:0.40081668;stroke-linecap:butt;stroke-linejoin:miter;marker:none;marker-start:none;marker-mid:none;marker-end:none;stroke-miterlimit:0;stroke-dasharray:none;stroke-dashoffset:0;stroke-opacity:1;visibility:visible;display:inline;overflow:visible;enable-background:accumulate" />
    </g>
    <path
       d="M 150.38007,201.57773 L 148.06757,202.82773 C 148.06757,202.82773 162.63077,230.10737 182.78632,247.14023 C 192.81982,255.61925 202.61751,261.41037 211.47382,260.57773 C 215.90197,260.16141 220.00444,257.97201 223.44257,253.79648 C 226.8807,249.62095 229.71272,243.49468 231.91132,234.98398 L 229.38007,234.32773 C 227.24151,242.60602 224.52767,248.4247 221.44257,252.17148 C 218.35747,255.91826 214.9803,257.63081 211.22382,257.98398 C 203.71086,258.69033 194.3073,253.45021 184.47382,245.14023 C 164.89542,228.5951 150.38007,201.57773 150.38007,201.57773 z"
       id="path3780"
       style="fill:#ff0000;fill-opacity:1;fill-rule:evenodd;stroke:none;stroke-width:0.30000001;stroke-linecap:butt;stroke-linejoin:miter;stroke-miterlimit:4;stroke-dasharray:none;stroke-opacity:1" />
    <path
       d="M 229.61995,235.35628 C 229.86138,235.3134 229.84193,235.34442 229.87356,235.35903 C 231.36854,235.57704 232.00699,237.4874 232.89172,238.48855 C 236.90754,243.03289 237.59202,232.32975 230.74875,234.58875 C 229.0969,234.3201 228.32816,232.76725 227.47697,231.45648 C 226.59852,230.4624 225.89087,230.20344 225.37522,230.37321 C 223.53362,230.97954 224.27364,237.12113 229.61995,235.35628 z"
       id="path3782"
       style="fill:#71c837;fill-rule:nonzero;stroke:#000000;stroke-width:0.2;stroke-linecap:butt;stroke-linejoin:miter;stroke-miterlimit:4;stroke-dasharray:none;stroke-opacity:1" />
    <path
       d="M 150.11438,210.53125 L 149.64563,210.78125 C 151.01332,213.28681 164.65809,237.91325 183.58313,253.90625 C 193.54043,262.32088 203.18001,267.87791 211.52063,267.09375 C 215.67163,266.70349 219.47635,264.68833 222.77063,260.6875 C 225.92245,256.85969 228.57819,251.08404 230.70813,243.25 L 230.17688,243.125 C 228.06326,250.89412 225.47592,256.63407 222.39563,260.375 C 219.17341,264.28831 215.4673,266.18557 211.45813,266.5625 C 203.39052,267.321 193.87617,261.85019 183.95813,253.46875 C 165.13804,237.56445 151.4716,213.01714 150.11438,210.53125 z"
       transform="translate(-1.1192663,-7.5550477)"
       clip-path="url(#clipPath3681)"
       id="path3784"
       style="fill:#999999;fill-opacity:1;fill-rule:evenodd;stroke:none;stroke-width:0.30000001;stroke-linecap:butt;stroke-linejoin:miter;stroke-miterlimit:4;stroke-opacity:1;filter:url(#filter3697)" />
  </g>
  <g
     transform="matrix(1.1989694,0,0,1.1989694,-145.14168,-142.46188)"
     id="g5767">
    <path
       d="M 145.1875,219.3125 L 144.25,219.625 C 145.30807,223.03414 145.96943,225.37759 149.0625,230.1875 L 149.90625,229.65625 C 146.85824,224.91641 146.25019,222.73652 145.1875,219.3125 z"
       id="path3792"
       style="fill:#000000;fill-opacity:1;fill-rule:evenodd;stroke:none;stroke-width:1px;stroke-linecap:butt;stroke-linejoin:miter;stroke-opacity:1;display:inline" />
    <path
       d="M 143.96254,225.17625 L 144.32168,218.20078 L 148.56713,223.74715 C 146.89742,223.16879 145.03949,223.75174 143.96254,225.17625 z"
       id="path5773"
       style="font-size:12px;fill-rule:evenodd;stroke-width:0.625;stroke-linejoin:round" />
  </g>
  <text
     x="21.840359"
     y="147.22134"
     id="text3794"
     xml:space="preserve"
     style="font-size:11.9896946px;font-style:normal;font-variant:normal;font-weight:normal;font-stretch:normal;text-align:start;line-height:125%;writing-mode:lr-tb;text-anchor:start;fill:#000000;fill-opacity:1;stroke:none;stroke-width:1px;stroke-linecap:butt;stroke-linejoin:miter;stroke-opacity:1;display:inline;font-family:FreeSans;-inkscape-font-specification:FreeSans"><tspan
       x="21.840359"
       y="147.22134"
       id="tspan3796"
       style="font-size:11.9896946px;text-align:center;text-anchor:middle">To</tspan><tspan
       x="21.840359"
       y="162.20847"
       id="tspan3798"
       style="font-size:11.9896946px;text-align:center;text-anchor:middle">dialysis</tspan><tspan
       x="21.840359"
       y="177.19557"
       id="tspan3800"
       style="font-size:11.9896946px;text-align:center;text-anchor:middle">machine</tspan></text>
  <text
     x="128.62204"
     y="82.076538"
     id="text4319"
     xml:space="preserve"
     style="font-size:11.9896946px;font-style:normal;font-variant:normal;font-weight:normal;font-stretch:normal;text-align:start;line-height:125%;writing-mode:lr-tb;text-anchor:start;fill:#000000;fill-opacity:1;stroke:none;stroke-width:1px;stroke-linecap:butt;stroke-linejoin:miter;stroke-opacity:1;display:inline;font-family:FreeSans;-inkscape-font-specification:FreeSans"><tspan
       x="128.62204"
       y="82.076538"
       id="tspan4325"
       style="font-size:11.9896946px;text-align:center;text-anchor:middle">Vein</tspan></text>
  <text
     x="163.51315"
     y="82.076538"
     id="text4332"
     xml:space="preserve"
     style="font-size:11.9896946px;font-style:normal;font-variant:normal;font-weight:normal;font-stretch:normal;text-align:start;line-height:125%;writing-mode:lr-tb;text-anchor:start;fill:#000000;fill-opacity:1;stroke:none;stroke-width:1px;stroke-linecap:butt;stroke-linejoin:miter;stroke-opacity:1;display:inline;font-family:FreeSans;-inkscape-font-specification:FreeSans"><tspan
       x="163.51315"
       y="82.076538"
       id="tspan4334"
       style="font-size:11.9896946px;text-align:center;text-anchor:middle">Artery</tspan></text>
  <text
     x="169.55202"
     y="207.45139"
     id="text4436"
     xml:space="preserve"
     style="font-size:11.9896946px;font-style:normal;font-variant:normal;font-weight:normal;font-stretch:normal;text-align:start;line-height:125%;writing-mode:lr-tb;text-anchor:start;fill:#000000;fill-opacity:1;stroke:none;stroke-width:1px;stroke-linecap:butt;stroke-linejoin:miter;stroke-opacity:1;display:inline;font-family:FreeSans;-inkscape-font-specification:FreeSans"><tspan
       x="169.55202"
       y="207.45139"
       id="tspan4438"
       style="font-size:11.9896946px;text-align:center;text-anchor:middle">Fistula</tspan></text>
</svg>
