<?xml version="1.0" encoding="UTF-8"?>
<svg height="531.496063" width="496.062992" viewBox="0 0 496.062992 531.496063" xmlns="http://www.w3.org/2000/svg">
 <path d="m136.86 388.9 46.181 44.659 57.346 23.344 93.377 16.747 66.481-13.195 7.6123-62.421-20.807-91.348-19.284-48.211-18.27-31.972-121.8 42.121-90.84 120.27z" fill="#7e7ee6" fill-rule="evenodd" stroke="#000" stroke-width=".31"/>
 <path d="m121.64 277.76-6.0898 64.958 29.434 54.808 16.24 12.18 6.5973-6.851 11.926-14.463 23.091-5.5823 13.48 2.0616-3.711-5.4872-10.023-26.77 22.837-22.076 77.645-43.898 23.091 5.3286 11.926 16.747 1.2687-9.6422 6.0898-19.284 23.344-9.896-14.971-37.808-29.688-26.389-46.435 1.5225-54.047-3.0449-52.017 8.6273-39.33 7.1048-3.5524 25.374-7.1048 32.479z" fill="#b2b2fe" fill-rule="evenodd" stroke="#000" stroke-width=".31"/>
 <path d="m129.78 393.08c-4.665 42.703-5.2589 59.8-6.4593 87.559 8.4371 21.822 35.645 26.674 50.239 5.0239 1.3158-20.933 2.9904-29.306 5.0239-48.803z" fill="#9a9afe" fill-rule="evenodd" stroke="#000" stroke-width=".31"/>
 <path d="m294.874 59.5175c.0066.1822-.135.3026-.1093.492.1502 1.109.6164 2.2842 1.3667 3.5535s1.8 2.6027 3.0615 3.8815 2.7448 2.5252 4.4282 3.6628 3.3725 2.04 5.0296 2.7335 3.2987 1.1986 4.7562 1.4214c1.4576.2228 2.7419.1649 3.8268-.1093.4928-.1246.7581-.4796 1.1481-.7107.6002-.7033.9927-1.241 1.5307-1.8588.1959-.6088.4821-1.1796.3827-1.9134-.1502-1.109-.6163-2.3389-1.3667-3.6082s-1.8-2.548-3.0615-3.8268-2.7448-2.5252-4.4282-3.6628-3.4272-2.0947-5.0842-2.7881c-1.6571-.6935-3.244-1.1439-4.7015-1.3667-1.4576-.2228-2.7419-.2196-3.8268.0547-.3123.0789-.4386.3705-.7107.492-.4758.6625-1.1608 1.1173-1.5307 1.9681-.1683.3872-.527 1.1597-.7107 1.5854z" fill="#ce6666" fill-rule="evenodd" stroke="#000" stroke-width=".31"/>
 <path d="m247.64 57.1121c.3131 5.6576 1.7393 17.6788 1.0934 22.5236-.7177 5.3827-.8972 21.9054-6.9976 20.8289s-11.4988-11.681-13.8312-16.346c-2.3325-4.665-8.4373-15.5948-10.7698-21.1569-.003.2382.1457.4074.1093.656-.1577 1.0785-.6354 2.2567-1.3667 3.4442-.7314 1.1875-1.7339 2.398-2.9521 3.5535s-2.646 2.2978-4.2642 3.2801c-1.6182.9824-3.2784 1.7484-4.8655 2.2961-1.5872.5477-3.0919.8284-4.4829.9294s-2.6333-.025-3.6628-.3827c-.315-.1094-.4396-.3936-.7107-.5467 2.3907 2.8732 4.7058 5.8816 6.2323 8.8017 4.1267 7.8946 9.5067 18.1237 4.4829 29.2479s-12.8893 22.6177-15.5807 29.7946c-2.6913 7.1769-8.7849 26.7475-7.7083 46.3046 1.0765 19.5571 1.2379 31.1995 11.6445 51.1155 9.3694 17.9312 34.3034 46.8814 53.9036 65.1654 2.3983-4.1511 5.4082-9.5176 7.9817-13.1206.8971-1.256 2.0786-2.4968 3.4442-3.6628s2.9435-2.2747 4.5922-3.2255 3.3925-1.7406 5.1389-2.3508 3.48-1.0038 5.1389-1.1481c2.0634-.1794 4.5698-.3 7.3257 0 2.7558.3 5.7627 1.0163 8.8017 2.3508 1.5195.6672 3.0787 1.4849 4.5922 2.5148s2.9718 2.2555 4.4282 3.7175c.6721.6747 1.3161 1.5732 1.9681 2.3508-1.2434-1.9072-2.4809-3.8077-3.9908-5.7402-7.6581-9.8015-58.6318-61.7298-61.5026-69.2656s-6.4902-18.8231-6.6696-26.8972.3918-25.5105 10.7698-37.5029c8.0741-9.33 16.8661-10.6058 20.9929-10.6058 4.1267 0 12.2067-.0139 19.0248 8.419s7.7083 40.022 7.7083 43.7899 13.809 9.3638 21.7036 9.1844 19.4159-.5567 19.9542-9.3484-1.4719-28.3328-4.7015-40.8924-6.7979-27.5543-12.7379-36.4642c-4.3062-6.4593-7.5373-9.877-8.255-14.542s3.7834-15.9214 6.8336-20.2275c1.8186-2.5674 4.8408-5.8957 7.927-9.5124-.3899.2311-.6553.5861-1.1481.7107-1.0849.2743-2.3693.3322-3.8268.1093-1.4575-.2228-3.0991-.7279-4.7562-1.4214s-3.3462-1.5958-5.0296-2.7335c-1.6834-1.1376-3.1667-2.384-4.4282-3.6628s-2.3111-2.6122-3.0615-3.8815-1.2166-2.4445-1.3667-3.5535c-.0257-.1895.116-.3098.1093-.492-1.7745 4.1119-4.071 9.562-6.9976 15.2527-3.2296 6.2798-10.2274 22.2489-13.9953 20.9929s-3.4582-11.1063-2.0228-18.6421c1.3707-7.1962 3.3734-13.7245 4.6469-18.5328-.0665.0867-.0367.1882-.1093.2733-.7692.9015-1.905 1.7235-3.2801 2.4054s-2.9932 1.2586-4.8109 1.6401-3.8074.5467-5.9043.5467-4.1412-.1652-5.9589-.5467-3.4357-.9581-4.8109-1.6401-2.5109-1.504-3.2801-2.4054c-.466-.5462-.5152-1.1466-.7107-1.7494z" fill="#fe7e7e" fill-rule="evenodd" stroke="#000" stroke-width=".31"/>
 <path d="m135.11 189.28-46.942-2.2837c-13.026 10.065-10.319 32.056.5075 40.091l42.407.8881-1.1919-2.8731 5.22-35.823zm-4.3136 46.689-55.316-1.7762c-11.418 10.657-10.15 31.718.7612 38.823l45.928 1.5225 8.6273-38.569zm270.9-50.279c-11.096-.0522-26.402-.0134-40.236.82-21.061 1.2687-53.059 5.8187-88.837 6.8336l.5467 11.426 27.316-2.9883 37.923 14.689 22.367 27.771 7.5176 27.771s13.687-4.8191 27.389-6.3416c6.5682-.7298 14.773-.9566 21.594-1.0387-1.6108 0-3.1412-.5545-4.5375-1.5307-1.3963-.9763-2.6612-2.3549-3.7175-4.1002s-1.9239-3.816-2.5148-6.1229-.9294-4.8831-.9294-7.5443.3385-5.1828.9294-7.4897 1.4585-4.3777 2.5148-6.1229c1.0563-1.7453 2.3212-3.1786 3.7175-4.1549.9258-.6473 1.9774-.7506 3.0068-.984-10.977.1189-21.107.1702-29.959.492-13.956.5075-28.646 4.5922-28.647 4.5922 0 0 7.5898-5.8579 15.963-7.3803 5.4546-.9918 18.539-1.2462 28.811-1.3667-1.4995-.0782-2.9539-.4937-4.2642-1.3667-1.4266-.9506-2.6929-2.3462-3.7722-4.0455s-1.9657-3.7127-2.5694-5.9589c-.6038-2.2462-.9294-4.6798-.9294-7.271s.3256-5.0794.9294-7.3257c.6038-2.2462 1.4901-4.2596 2.5694-5.9589s2.3455-3.0949 3.7722-4.0455c1.2396-.8259 2.6342-1.1391 4.0455-1.2574z" fill="#fece9a" fill-rule="evenodd" stroke="#000" stroke-width=".31"/>
 <path d="m276.25 202.16c19.288-8.2941 38.533-5.7111 50.566-.7433 11.903 4.9142 27.046 19.882 33.283 31.501 5.7295 10.674 12.148 26.907 16.07 32.49 3.922 5.5824 20.002 22.352 24.359 31.545 4.5023 9.4973 20.279 47.316 22.954 70.941 2.6779 23.654 8.7079 85.886-13.819 107.04-13.93 13.084-44.761 17.303-79.162 16.929-33.894-.3746-95.49-18.402-126.37-35.137-31.077-16.842-67.529-43.644-79.818-66.988-9.9072-18.821-15.709-34.385-17.366-53.032-2.5374-28.809 15.665-74.194 18.236-86.591 2.5711-12.397 4.8548-30.486 4.8548-30.486s5.9864 19.104 2.8663 43.898c-3.1201 24.795-8.0248 32.644-8.2286 54.402-.2537 27.341 11.868 67.174 46.469 93.352 34.114 25.81 84.817 38.207 112.41 44.406 27.591 6.1987 55.003 10.174 59.346 2.5622 4.3435-7.6123-13.352-23.468-22.807-34.063s-15.654-19.104-21.852-31.501-11.392-35.29-17.327-43.391c-5.6912-7.7669-15.375-18.596-15.375-18.596l-1.9211-14.349s24.002 28.279 29.693 32.945c5.8176 4.7702 16.059 8.7264 30.994 26.742 14.81 17.866 19.895 29.046 26.746 43.473 6.8985 14.527 16.645 26.052 22.844 25.545s15.159-24.568 13.666-52.369c-1.4934-27.813-18.283-49.128-22.554-70.442-4.2807-21.365-2.0299-41.388-.7612-51.502 1.3001-10.364-17.935-46.934-37.808-57.818-19.538-10.701-47.363-1.1327-55.588 4.1832l5.4029-14.949z" fill="#fe81ce" fill-rule="evenodd" stroke="#000" stroke-width=".31"/>
 <path d="m303.23 294.94c-.652-.7775-3.199-2.5642-3.8712-3.2389-1.4564-1.462-2.9147-2.6876-4.4282-3.7175s-3.0727-1.8476-4.5922-2.5148c-3.039-1.3345-6.0459-2.0508-8.8017-2.3508s-5.2623-.1794-7.3257 0c-1.6589.1442-3.3925.5379-5.1389 1.1481s-3.4902 1.4-5.1389 2.3508-3.2266 2.0594-4.5922 3.2255c-1.3656 1.166-2.547 2.4069-3.4442 3.6628-2.5735 3.603-5.5834 8.9695-7.9817 13.121 2.1696 2.0239 4.5576 4.5157 6.5603 6.2323 20.095 17.225 18.766 17.194 25.476 21.54 7.1897 4.656 15.751-1.5022 20.094-7.3814 4.3569-5.8989 12.066-12.751 11.265-17.523-1.5888-9.463-6.3347-12.975-8.0798-14.553z" fill="#ce6666" fill-rule="evenodd" stroke="#000" stroke-width=".31"/>
 <path d="m346.636 139.689c-9.9877.107-19.2312.4716-24.5464 1.1481-.4422.0563-.8724.2087-1.3121.2733-12.2329 1.7988-23.5719 6.6192-38.2683 7.599-1.7355.1157-4.5648.0647-6.5056.1093-8.5405.1965-18.3329.1159-30.4506.656-1.8692 1.3769-3.7721 3.0456-5.6309 5.1936-1.2973 1.4991-2.4357 3.0613-3.4442 4.7015s-1.869 3.3059-2.6241 5.0296c-1.5102 3.4473-2.5713 7.0081-3.2801 10.4418s-1.0669 6.7736-1.2574 9.7311-.2089 5.5805-.164 7.599c.0347 1.5604.2853 3.2794.5467 5.0296.6135 1.6678 1.0125 3.5648 1.1481 5.7402.9523 15.2824-8.5687 41.7706-11.4805 62.4867-.31 2.2055-.7138 6.6863-1.0934 9.7858-1.7218 14.0581-3.6791 33.9422-2.6788 47.726.0006-.6845-.0037-1.3937.0547-2.0774.4642-5.4366 1.6361-10.7976 3.0068-15.526.6879-2.3729 1.4369-4.4331 2.2414-6.2869.8046-1.8539 1.6416-3.5072 2.5148-4.9202 1.7464-2.8261 3.5699-4.8101 5.3029-6.3416.0065-.0053.0479-.0495.0547-.0547.0284-.0188.0834-.0421.1093-.0547.0377-.0139.1263-.0411.164-.0547.0096-.0099.0451-.0447.0547-.0547.0188-.0081.0909-.0448.1093-.0547 1.6203-1.3373 3.264-2.3573 5.0295-2.8975 1.9368-.5926 3.9857-.7654 6.3963-.7654 1.2053 0 2.6375.1157 4.2095.6014s3.3318 1.3299 5.0842 2.7335c1.7524 1.4035 3.5018 3.3694 5.2482 6.1229.1017.1603.2246.4504.328.656.0049.0047.0488.0497.0547.0547-.0068.0103.0068.045 0 .0547 1.6182 2.6613 3.2041 5.8485 4.6469 10.0591 1.5542 4.5356 3.0816 9.1375 4.2095 13.6672.2486.9982.4286 1.9674.6014 2.9521-1.1769-8.2444-3.1283-18.6164-3.7175-32.2547-.4301-9.9559-.2407-21.3965 1.9681-36.2456.0503-.3379.1129-.5946.164-.9294 3.9776-26.0348 10.6215-42.8625 17.2207-54.9424 1.8635-3.4112 4.065-6.1982 6.4509-8.6377 6.1181-6.2556 13.6236-9.8066 21.0476-12.6285 5.4681-2.0785 12.1335-3.4864 19.1342-4.5375 23.89-3.5869 52.5407-2.1604 58.1132-1.3667-.5174-.1785-1.9714-.6593-2.8428-1.2027-1.1534-.7194-2.1888-1.7208-3.0615-3.0068-.8726-1.286-1.5893-2.8377-2.0774-4.5375s-.7654-3.5606-.7654-5.5216c0-1.9609.2772-3.8217.7654-5.5216.4882-1.6998 1.2048-3.2516 2.0774-4.5375.8726-1.286 1.908-2.3421 3.0615-3.0615s2.4415-1.0934 3.7722-1.0934c.5731 0 1.11.1889 1.6401.3827-.2137-.1675-.3935-.3788-.656-.492-5.0748-.5075-17.8715-.8977-31.1613-.9294-2.4918-.006-5.0108-.0186-7.4897 0-.6714.005-1.3569-.0071-2.0228 0zm-255.414 4.4282c-9.0108 2.3849-14.5923 28.225.7654 33.5121 15.7321 2.03 63.964 6.678 79.1607 7.599 3.0953.1876 7.2504.1801 11.3165.2187.0107-3.2146-.0317-6.465.2734-9.5671.4619-4.6971 1.2148-9.222 2.0774-13.3392.6568-3.1349 1.4117-5.7637 2.1321-8.3644-13.6288-.3752-28.4854-1.7308-42.4778-3.4441-24.8668-3.0449-39.5806-4.8388-53.0289-6.615-.0183-.0006-.0911.0004-.1093 0-.0354.0086-.074-.0094-.1093 0z" fill="#e6b2fe" fill-rule="evenodd" stroke="#000" stroke-width=".31"/>
 <path d="m150.88 70.014c-9.0978-.407-18.414 3.0208-24.546 9.5124 3.341 63.14 5.1977 80.385 3.7175 140.23.5645 1.5994 4.0076.0463 5.7402-2.3508 1.7327-2.3971 4.0142-4.6285 6.7243-6.5603s5.8668-3.5198 9.3484-4.7015c3.4816-1.1818 6.9517-1.7964 10.278-1.9134 3.326-.117 6.5146.2463 9.3484 1.0934s5.3207 2.1709 7.3256 3.8815c1.0025.8553 5.0226 2.2144 5.4236 3.2575-.2334-2.7412-7.5813-71.085-10.07-128.83-5.3075-8.9233-14.191-13.206-23.289-13.613z" fill="#9a9afe" fill-rule="evenodd" stroke="#000" stroke-width=".31"/>
 <path d="m216.041 60.2282c-.474-.4775-.922-1.0079-1.6401-1.2574-1.0296-.3577-2.2718-.4837-3.6628-.3827s-2.9503.4363-4.5375.984-3.1927 1.3137-4.8109 2.2961-3.1007 2.07-4.3189 3.2255-2.1661 2.366-2.8975 3.5535-1.2091 2.3657-1.3667 3.4442c-.1071.7322.137 1.3408.328 1.9681.5989.6865 1.2049 1.412 1.8041 2.1321.2711.1531.3957.4373.7107.5467 1.0296.3577 2.2718.4837 3.6628.3827s2.8957-.3817 4.4829-.9294 3.2474-1.3137 4.8655-2.2961c1.6182-.9824 3.046-2.1247 4.2642-3.2801s2.2207-2.366 2.9521-3.5535 1.2091-2.3657 1.3667-3.4442c.0364-.2486-.1124-.4178-.1093-.656-.3579-.8534-.7439-1.822-1.0934-2.7335zm61.503-4.2642c0-1.0399-.3788-2.0507-1.1481-2.9521s-1.905-1.7235-3.2801-2.4054-2.9932-1.2039-4.8109-1.5854-3.8074-.6014-5.9043-.6014-4.1412.2199-5.9589.6014-3.4357.9034-4.8109 1.5854-2.5109 1.504-3.2801 2.4054c-.5548.6501-.6535 1.4041-.82 2.1321.0058.3838.0809 1.4547.1093 1.9681.1955.6028.2447 1.2033.7107 1.7494.7692.9015 1.905 1.7235 3.2801 2.4054s2.9932 1.2586 4.8109 1.6401 3.862.5467 5.9589.5467 4.0866-.1652 5.9043-.5467 3.4357-.9581 4.8109-1.6401 2.5109-1.504 3.2801-2.4054c.0727-.0852 1.1146-2.822 1.1481-2.8975z" fill="#ce6666" fill-rule="evenodd" stroke="#000" stroke-width=".31"/>
 <path d="m264.423 317.774c-1.128-4.5297-2.6553-9.1316-4.2095-13.6672-1.5542-4.5357-3.2831-8.0709-5.0296-10.8245s-3.4958-4.7194-5.2482-6.1229-3.5122-2.2478-5.0842-2.7335-3.0042-.6014-4.2095-.6014c-2.4106 0-4.4595.1728-6.3963.7654s-3.7533 1.6081-5.5216 3.1708c-1.733 1.5315-3.5565 3.5155-5.3029 6.3416-.8732 1.413-1.7102 3.0663-2.5148 4.9202-.8045 1.8539-1.5536 3.9141-2.2414 6.2869-1.3707 4.7284-2.5427 10.0894-3.0068 15.526-.0841.9852-.0188 1.965-.0547 2.9521.3573 4.2826 1.0036 7.9476 2.2414 10.1138 6.0899 10.6572 13.2044 11.668 23.3437 11.2071 8.3735-.3806 15.4822-.8068 19.2565-3.3603 2.1904-1.4819 4.9835-5.9929 5.6179-11.8924.2719-2.5289-1.3285-10.8306-1.6401-12.0818zm123.88-176.526c-.6589-.2099-1.2667-.5467-1.9681-.5467-1.3306 0-2.6187.374-3.7722 1.0934s-2.1888 1.7755-3.0615 3.0615c-.8726 1.286-1.5893 2.8377-2.0774 4.5375s-.7654 3.5606-.7654 5.5216c0 1.9609.2772 3.8217.7654 5.5216.4881 1.6998 1.2048 3.2516 2.0774 4.5375.8726 1.286 1.908 2.2874 3.0615 3.0068 1.1382.7098 2.4061 1.1376 3.7175 1.1481.0788.0009.1407-.0531.2187-.0547 1.2661-.0336 2.4513-.406 3.5535-1.0934 1.0911-.6805 2.0551-1.6516 2.8975-2.8428.2206-.3397.4072-.7226.6014-1.0934.4326-.7464.7719-1.5922 1.0934-2.4601.4167-1.3063.7924-2.6546.9294-4.1002.5907-6.2326-1.6273-13.1085-7.271-16.2367z" fill="#b27ee6" fill-rule="evenodd" stroke="#000" stroke-width=".31"/>
 <path d="m183.52 301.59a25.074 18.42-39.914 1 1 -38.464 32.177 25.074 18.42-39.914 1 1 38.464-32.177z" fill="#7e7ece" stroke="#000" stroke-linecap="square" stroke-width=".31"/>
 <path d="m344.04 249.26a24.346 13.645 35.229 1 1 -39.775-28.088 24.346 13.645 35.229 1 1 39.775 28.088z" fill="#e69a66" stroke="#000" stroke-linecap="square" stroke-width=".31"/>
 <path d="m415.747 226.586c-1.0294.2335-2.081.3367-3.0068.984-1.3963.9763-2.6612 2.4096-3.7175 4.1549-1.0563 1.7452-1.9239 3.816-2.5148 6.1229s-.9294 4.8284-.9294 7.4897.3385 5.2374.9294 7.5443 1.4585 4.3777 2.5148 6.1229 2.3212 3.1239 3.7175 4.1002 2.9268 1.5307 4.5375 1.5307c.0172-.0002.0375.0002.0547 0 1.5917-.0115 3.1017-.565 4.4829-1.5307 1.3963-.9763 2.6612-2.3549 3.7175-4.1002s1.9239-3.816 2.5148-6.1229.8747-4.8831.8747-7.5443-.2838-5.1828-.8747-7.4897-1.4585-4.3777-2.5148-6.1229c-1.0563-1.7453-2.3212-3.1786-3.7175-4.1549-.9764-.6827-2.0803-.8182-3.1708-1.0387-.9438.0096-1.8358.0432-2.8975.0547zm-14.05-40.892c-1.4114.1183-2.806.4315-4.0455 1.2574-1.4266.9506-2.6929 2.3462-3.7722 4.0455s-1.9657 3.7127-2.5694 5.9589c-.6038 2.2462-.9294 4.7344-.9294 7.3257s.3256 5.0248.9294 7.271 1.4901 4.2596 2.5694 5.9589 2.3455 3.0949 3.7722 4.0455c1.3102.873 2.7647 1.2886 4.2642 1.3667.373-.0044.4621.0038.82 0 1.4804-.0873 2.9145-.5039 4.2095-1.3667 1.4266-.9506 2.6929-2.3462 3.7722-4.0455s1.9657-3.7127 2.5694-5.9589c.6038-2.2462.9294-4.6798.9294-7.271s-.3256-5.0795-.9294-7.3257-1.4902-4.2596-2.5694-5.9589c-1.0793-1.6993-2.3455-3.0949-3.7722-4.0455-1.2243-.8158-2.5984-1.1312-3.9908-1.2574-.5287-.0032-.6878.0027-1.2574 0z" fill="#e69a66" fill-rule="evenodd" stroke="#000" stroke-width=".31"/>
 <path d="m339.88 314.78c.8881-25.628 7.866-30.09 10.911-32.882 1.5225-1.3956 4.5039-2.6643 7.1048-3.5841s5.2687-1.6631 6.3436-4.0282c1.089-2.396.9834-4.8192-.6344-6.7242-1.5634-1.841-8.4722-1.0249-12.719 1.5542-4.051 2.4603-9.6154 7.4638-12.148 13.417-4.021 9.4514-1.2687 28.187 1.1418 32.247z" fill="#fff" fill-rule="evenodd" stroke="#000" stroke-width=".31"/>
 <path d="m339.96 315.48c-12.814-22.212-21.239-23.194-25.238-24.229-1.9994-.5176-5.2275-.2383-7.9558.1704s-5.4328 1.0047-7.4921-.579c-2.0863-1.6045-3.1305-3.7936-2.5963-6.2351.5163-2.3594 6.9997-4.882 11.96-4.5981 4.7318.2708 11.777 2.3608 17.024 6.1442 7.2782 5.2475 11.291 17.882 14.298 29.326zm-121.18 72.275c-7.4886-13.739-11.086-23.354-10.386-31.362.4783-5.4733 3.1729-9.3206 4.8414-11.469 1.9865-2.5581 6.4905-3.9471 7.309-5.745.6534-1.4353-.2522-4.9118-2.2548-6.3498-1.9352-1.3897-8.9206.7535-12.314 4.3158-3.2367 3.3982-7.8533 9.8308-7.5871 16.417.9594 23.733 16.853 31.884 20.391 34.194z" fill="#fff" fill-rule="evenodd" stroke="#000" stroke-width=".31"/>
 <path d="m218.44 387.77c-23.26-3.0284-31.41-.3312-38.12 5.7471-1.6567 1.5008-3.0264 4.6038-3.9051 7.2799-.8787 2.6762-1.4193 4.7689-4.1002 6.0533-2.7159 1.3012-5.5532 1.4137-7.899-.0284-2.267-1.3936-1.833-8.3563.8596-12.823 2.5685-4.2606 7.6891-10.808 14.373-13.954 12.575-5.9175 28.415-.1507 38.792 7.7243z" fill="#fff" fill-rule="evenodd" stroke="#000" stroke-width=".31"/>
 <path d="m226.2 303.21c13.956 22.456 7.6123 32.352 4.8211 34.509s-7.121 3.1636-10.404.3806c-3.6582-3.1016-6.3282-13.737-4.4405-17.508 1.4711-2.9391 2.5374 1.1419 5.4555 1.1419 4.0599 0 5.963-4.0599 6.2167-7.6123s-1.7762-11.165-1.6493-10.911zm29.478 3.024c-13.956 22.456-7.6123 32.352-4.8211 34.509s7.121 3.1636 10.404.3806c3.6582-3.1016 6.3282-13.737 4.4405-17.508-1.4711-2.9391-2.5374 1.1419-5.4555 1.1419-4.0599 0-5.963-4.0599-6.2167-7.6123s1.7762-11.165 1.6493-10.911zm11.91-.264c25.152 8.1495 26.692 19.803 25.952 23.252s-3.3985 7.0119-7.702 7.0041c-4.796-.0088-13.699-6.4106-14.69-10.51-.7727-3.1946 2.6753-.7651 4.9045-2.6481 3.1015-2.6198 1.9355-6.9494-.163-9.8269-2.0985-2.8776-8.5614-7.3829-8.3008-7.2709zm16.502-17.51c4.2004 26.104 15.48 29.41 19.002 29.207 3.5215-.2035 7.4498-2.2843 8.1012-6.5382.726-4.7408-4.2365-14.519-8.1354-16.127-3.0385-1.253-1.1659 2.5265-3.3681 4.4409-3.064 2.6636-7.1638.8481-9.6859-1.6664s-5.9844-9.5913-5.9136-9.3166z" fill="#fff" fill-rule="evenodd" stroke="#000" stroke-linejoin="round" stroke-width=".31"/>
 <path d="m183.93 210.5a27.404 16.493-12.343 1 1 -53.542 11.716 27.404 16.493-12.343 1 1 53.542-11.716z" fill="#7e7ece" stroke="#000" stroke-linecap="square" stroke-linejoin="round" stroke-width=".31"/>
 <path d="m87.893 200.59v4.2798h-24.042v3.9217h24.042v4.2857l13.803-6.2435-13.803-6.2435zm-13.278 47.367v4.2798h-24.042v3.9217h24.042v4.2857l13.803-6.2435-13.803-6.2435zm336.77-50.238v4.2798h24.042v3.9217h-24.042v4.2857l-13.803-6.2435 13.803-6.2435zm13.637 41.267v4.2798h24.042v3.9217h-24.042v4.2857l-13.803-6.2435 13.803-6.2435zm-15.239-90.788v4.2798h-24.042v3.9217h24.042v4.2857l13.803-6.2435-13.803-6.2435zm-335.01 4.6202-.4081 4.2602 23.932 2.2926-.374 3.9038-23.932-2.2926-.4087 4.2661-13.145-7.5314zm66.145 335.41 4.2609.4008-2.2517 23.936 3.9043.3674 2.2517-23.936 4.2668.4013-4.9234-14.328-7.5088 13.158zm92.895-137.36 4.2789.0852-.4786 24.037 3.9208.078.4786-24.037 4.2848.0854-5.9674-13.925zm68.11-16.677 2.9299-3.1197 17.525 16.459 2.6846-2.8585-17.525-16.458 2.9339-3.1241-14.336-4.8985 5.7876 14.001zm31.981-74.184-4.1951.8471-4.7582-23.566-3.844.7762 4.7584 23.566-4.2009.8483 8.852 12.294 3.3881-14.766zm-146.29 85.208-3.5749 2.353-13.218-20.082-3.2758 2.1561 13.218 20.082-3.5798 2.3563 12.804 8.0971-2.3739-14.962zm-27.497-198.91-4.2736.2299-1.2912-24.007-3.9159.2106 1.2912 24.007-4.2796.2302 6.9759 13.448zm80.02 91.31 4.2453.5421-3.0457 23.848 3.89.4968 3.0457-23.848 4.2512.543-4.4446-14.483zm-40.165-55.351 4.2796.0376-.2115 24.041 3.9215.0345.2117-24.041 4.2855.0378-6.1217-13.858-6.3647 13.748zm-12.911-129.79 3.551-2.3888 13.419 19.948 3.2539-2.1889-13.419-19.948 3.556-2.3921-12.885-7.968 2.5242 14.938zm70.19-20.396 4.2763.1746-.9811 24.022 3.9183.1601.9811-24.022 4.2822.1749-5.6751-14.047-6.8015 13.537zm56.999 10.019 3.7091 2.1352-11.994 20.836 3.3988 1.9565 11.994-20.836 3.7143 2.1381 1.4755-15.078-12.298 8.8478z" fill="#ffffe3" stroke="#000" stroke-linecap="square" stroke-width=".507"/>
 <path d="m164.35 267.21-49.59-74.384h-99.179" fill="none" stroke="#000" stroke-width="1.24"/>
 <path d="m17.752 185.17h2.8188v-9.7293l-3.0665.6151v-1.5717l3.0496-.6151h1.7254v11.301h2.8188v1.4522h-7.3461z"/>
 <path d="m295.14 241.8 48.97-67.566h136.37" fill="none" stroke="#000" stroke-width="1.24"/>
 <path d="m474.4635 166.5785h6.0222v1.4522h-8.0978v-1.4522c.655-.6777 1.5461-1.586 2.6736-2.7249 1.1333-1.1446 1.8451-1.882 2.1355-2.2125.5523-.6207.9368-1.1446 1.1532-1.5717.2222-.4328.3331-.857.3331-1.2727 0-.6777-.2391-1.23-.7176-1.6572-.4727-.427-1.0906-.6406-1.8537-.6406-.5411 0-1.1133.0939-1.717.2818-.5979.1879-1.2386.4727-1.9219.8542v-1.7426c.6947-.279 1.3439-.4897 1.9476-.6321s1.156-.2136 1.6572-.2136c1.3212 0 2.3746.3303 3.1605.9909s1.1788 1.5433 1.1788 2.6481c0 .5239-.0997 1.0222-.299 1.4949-.1937.4669-.5495 1.0194-1.0677 1.6572-.1424.1651-.5951.6434-1.3582 1.435-.7631.7858-1.8393 1.8878-3.2289 3.3059"/>
 <path d="m151.95 99.845-55.788-49.59h-80.583" fill="none" stroke="#000" stroke-width="1.24"/>
 <path d="m21.3488 36.9329c.8257.1765 1.4692.5439 1.9305 1.102.4669.5581.7005 1.2472.7005 2.0671 0 1.2585-.4328 2.2322-1.2984 2.9213s-2.0956 1.0336-3.6902 1.0336c-.5353 0-1.0876-.0541-1.6572-.1623-.5638-.1025-1.1474-.2591-1.7512-.4699v-1.6656c.4783.279 1.0022.4897 1.5717.6321s1.1646.2136 1.7853.2136c1.082 0 1.9049-.2136 2.4686-.6406.5694-.427.8542-1.0479.8542-1.8621 0-.7517-.2649-1.3383-.7944-1.7597-.5239-.427-1.2557-.6406-2.1953-.6406h-1.4863v-1.4179h1.5547c.8485 0 1.4977-.1679 1.9476-.504.4499-.3417.6747-.8315.6747-1.4692 0-.6548-.2335-1.156-.7005-1.5034-.4613-.353-1.1247-.5295-1.9903-.5295-.4727 0-.9795.0513-1.5204.1538-.5411.1025-1.1361.2619-1.7853.4783v-1.5376c.655-.1823 1.2671-.3189 1.8365-.4101.5752-.0911 1.1161-.1366 1.6229-.1366 1.3098 0 2.3461.299 3.1092.8969.7631.5922 1.1446 1.3952 1.1446 2.4088 0 .7062-.2022 1.304-.6065 1.7938-.4043.4841-.9795.8201-1.7254 1.008"/>
 <path d="m257.95 125.26 67.566-37.812h92.98" fill="none" stroke="#000" stroke-width="1.24"/>
 <path d="m414.96 69.999-4.3564 6.808h4.3564zm-.4527-1.5034h2.1696v8.3114h1.8194v1.435h-1.8194v3.0069h-1.7169v-3.0069h-5.7573v-1.6656l5.3046-8.0807"/>
 <path d="m355.89 155.01 50.21-36.572h74.384" fill="none" stroke="#000" stroke-width="1.24"/>
 <path d="m472.7718 99.2416h6.7739v1.4522h-5.1936v3.1264c.2505-.0854.5012-.148.7517-.1879.2505-.0455.5012-.0684.7517-.0684 1.4237 0 2.5512.3901 3.3827 1.1702.8315.7802 1.2472 1.8365 1.2472 3.1691 0 1.3724-.4272 2.4403-1.2813 3.2033-.8542.7573-2.0587 1.1361-3.6132 1.1361-.5353 0-1.082-.0455-1.6401-.1366-.5525-.0911-1.1247-.2278-1.717-.4101v-1.734c.5126.279 1.0421.4869 1.5888.6235s1.1247.205 1.734.205c.9851 0 1.7653-.2591 2.3405-.7773s.8628-1.2214.8628-2.11c0-.8884-.2876-1.5916-.8628-2.11-.5752-.5182-1.3554-.7773-2.3405-.7773-.4613 0-.9226.0513-1.3838.1538-.4555.1025-.9226.2619-1.4009.4783v-6.4065"/>
 <path d="m393.7 248.61 37.192 37.192h49.59" fill="none" stroke="#000" stroke-width="1.24"/>
 <path d="m476.2321 273.1298c-.7745 0-1.3896.2649-1.8451.7944-.4499.5295-.6747 1.2557-.6747 2.1782 0 .9169.225 1.6429.6747 2.1782.4555.5295 1.0706.7944 1.8451.7944s1.3866-.2649 1.8365-.7944c.4555-.5353.6833-1.2613.6833-2.1782 0-.9225-.2278-1.6486-.6833-2.1782-.4499-.5295-1.0621-.7944-1.8365-.7944m3.4253-5.4071v1.5717c-.4328-.205-.8714-.3616-1.3156-.4699-.4386-.1081-.8742-.1623-1.307-.1623-1.1389 0-2.0102.3843-2.6138 1.1532-.5979.7689-.9396 1.9305-1.025 3.4852.3361-.4954.7573-.8742 1.2643-1.1361.5068-.2677 1.0649-.4015 1.6742-.4015 1.2813 0 2.2921.3901 3.0324 1.1704.7459.7745 1.1189 1.8309 1.1191 3.1691 0 1.3098-.3873 2.3605-1.1618 3.1521s-1.8052 1.1873-3.0923 1.1873c-1.4749 0-2.6024-.5638-3.3827-1.6913-.7802-1.1333-1.1702-2.7733-1.1702-4.9202 0-2.0158.4783-3.6218 1.435-4.8177.9568-1.2015 2.2408-1.8024 3.8526-1.8024.4328 0 .8684.0427 1.307.1281.4442.0854.9055.2136 1.3838.3843"/>
 <path d="m344.11 285.81 55.788 37.192h80.583" fill="none" stroke="#000" stroke-width="1.24"/>
 <path d="m472.29 304.05h8.2004v.7346l-4.6298 12.019h-1.8024l4.3564-11.301h-6.1247v-1.4522"/>
 <path d="m306.92 310.6 61.987 43.391h111.58" fill="none" stroke="#000" stroke-width="1.24"/>
 <path d="m476.1114 341.4898c-.8201 0-1.4664.2192-1.939.6578-.4669.4386-.7005 1.0421-.7005 1.811s.2335 1.3724.7005 1.811c.4727.4386 1.1191.6578 1.939.6578s1.4664-.2192 1.939-.6578c.4727-.4442.709-1.0479.709-1.811 0-.7689-.2363-1.3724-.709-1.811-.4669-.4386-1.1133-.6578-1.939-.6578m-1.7254-.7346c-.7404-.1823-1.3184-.5267-1.734-1.0336-.4101-.5068-.6151-1.1247-.6151-1.8537 0-1.0194.3616-1.8252 1.0848-2.4173.729-.5922 1.7254-.8884 2.9897-.8884 1.2699 0 2.2665.2962 2.9897.8884s1.0848 1.3981 1.0848 2.4173c0 .729-.2078 1.3469-.6237 1.8537-.4101.5068-.9823.8514-1.7169 1.0336.8315.1937 1.4777.5724 1.939 1.1361.4669.5638.7005 1.2528.7005 2.0671 0 1.2358-.3787 2.184-1.1361 2.8445-.7517.6606-1.8309.9909-3.2375.9909s-2.4885-.3303-3.246-.9909c-.7517-.6606-1.1275-1.6088-1.1275-2.8445 0-.8144.2335-1.5034.7005-2.0671.4669-.5638 1.1161-.9424 1.9476-1.1361m-.6321-2.7249c0 .6606.205 1.176.6151 1.5461.4157.3702.9966.5553 1.7426.5553.7404 0 1.3184-.1851 1.734-.5553.4214-.3702.6321-.8856.6321-1.5461s-.2108-1.176-.6321-1.5461c-.4157-.3702-.9937-.5553-1.734-.5553-.7459 0-1.3269.1851-1.7426.5553-.4101.3702-.6151.8856-.6151 1.5461"/>
 <path d="m362.71 391.18 49.59 43.391h68.186" fill="none" stroke="#000" stroke-width="1.24"/>
 <path d="m472.5076 427.8634v-1.5717c.4328.205.8714.3616 1.3156.4699s.8798.1623 1.307.1623c1.1389 0 2.0074-.3815 2.6054-1.1446.6037-.7689.9482-1.9333 1.0336-3.4937-.3303.4897-.7489.8656-1.2557 1.1275-.5068.2621-1.0678.3929-1.6828.3929-1.2757 0-2.2865-.3843-3.0324-1.1532-.7404-.7745-1.1105-1.8308-1.1105-3.1691 0-1.3098.3873-2.3605 1.1618-3.1521s1.8052-1.1873 3.0923-1.1873c1.4749 0 2.5996.5666 3.3741 1.6999.7802 1.1275 1.1702 2.7676 1.1704 4.9202 0 2.0102-.4783 3.6162-1.435 4.8177-.951 1.1959-2.2322 1.7938-3.844 1.7938-.4328 0-.8714-.0427-1.3156-.1281s-.9055-.2136-1.3838-.3843m3.4339-5.4071c.7745 0 1.3866-.2649 1.8365-.7944.4555-.5295.6833-1.2557.6833-2.1782 0-.9169-.2278-1.6401-.6833-2.1696-.4499-.5353-1.0621-.803-1.8365-.803s-1.3896.2677-1.8451.803c-.4499.5295-.6747 1.2528-.6747 2.1696 0 .9226.225 1.6486.6747 2.1782.4555.5295 1.0706.7944 1.8451.7944"/>
 <path d="m263.53 415.98-74.384 18.596h-142.57" fill="none" stroke="#000" stroke-width="1.24"/>
 <path d="m46.8237 426.924h2.8188v-9.7293l-3.0665.6151v-1.5717l3.0496-.6151h1.7254v11.3012h2.8188v1.4522h-7.3461v-1.4522m14.5301-10.1651c-.8884 0-1.5575.4386-2.0074 1.3156-.4442.8714-.6664 2.184-.6664 3.9379 0 1.7484.2222 3.0609.6664 3.9379.4499.8714 1.1189 1.307 2.0074 1.307.8941 0 1.5633-.4356 2.0074-1.307.4499-.877.6747-2.1896.6747-3.9379 0-1.754-.225-3.0665-.6747-3.9379-.4442-.877-1.1133-1.3156-2.0074-1.3156m0-1.3668c1.4294 0 2.5199.5666 3.2716 1.6999.7573 1.1275 1.1361 2.7676 1.1361 4.9202 0 2.1469-.3787 3.7869-1.1361 4.9202-.7517 1.1275-1.8423 1.6913-3.2716 1.6913-1.4294 0-2.5228-.5638-3.2801-1.6913-.7517-1.1333-1.1275-2.7733-1.1275-4.9202 0-2.1526.3758-3.7927 1.1275-4.9202.7573-1.1333 1.8507-1.6999 3.2801-1.6999"/>
 <path d="m145.76 459.37-37.192 24.795h-61.987" fill="none" stroke="#000" stroke-width="1.24"/>
 <path d="m46.824 476.87h2.8188v-9.7293l-3.0665.6151v-1.5717l3.0496-.6151h1.7254v11.301h2.8188v1.4522h-7.3461zm11.139 0h2.8188v-9.7293l-3.0665.6151v-1.5717l3.0496-.6151h1.7254v11.301h2.8188v1.4522h-7.3461z"/>
 <path d="m182.95 384.99-37.192-18.596h-99.179" fill="none" stroke="#000" stroke-width="1.24"/>
 <path d="m46.8237 358.739h2.8188v-9.7293l-3.0665.6151v-1.5717l3.0496-.6151h1.7254v11.3012h2.8188v1.4522h-7.3461v-1.4522m12.3262 0h6.0222v1.4522h-8.0978v-1.4522c.655-.6777 1.5461-1.586 2.6736-2.7249 1.1333-1.1446 1.8451-1.882 2.1355-2.2125.5525-.6207.9368-1.1446 1.1532-1.5717.2222-.4328.3331-.857.3331-1.2727 0-.6777-.2391-1.23-.7176-1.6572-.4727-.427-1.0906-.6406-1.8537-.6406-.5411 0-1.1133.0939-1.717.2818-.5979.1879-1.2386.4727-1.9219.8542v-1.7426c.6947-.279 1.3439-.4897 1.9476-.6321s1.156-.2136 1.6572-.2136c1.3212 0 2.3746.3303 3.1605.9909s1.1788 1.5433 1.1788 2.6481c0 .5239-.0997 1.0222-.299 1.4949-.1937.4669-.5495 1.0194-1.0678 1.6572-.1424.1651-.5951.6434-1.3582 1.435-.7631.7858-1.8393 1.8878-3.2289 3.3059"/>
 <path d="m226.34 329.2-30.993-18.596h-148.77" fill="none" stroke="#000" stroke-width="1.24"/>
 <path d="m46.4738 302.7019h2.8188v-9.7293l-3.0665.6151v-1.5717l3.0496-.6151h1.7254v11.3012h2.8188v1.4522h-7.3461v-1.4522m16.0676-5.4242c.8257.1765 1.4692.5439 1.9305 1.102.4669.5581.7005 1.2472.7005 2.0671 0 1.2585-.4328 2.2322-1.2984 2.9213s-2.0956 1.0336-3.6902 1.0336c-.5353 0-1.0876-.0541-1.6572-.1623-.5638-.1025-1.1474-.2591-1.7512-.4699v-1.6658c.4783.279 1.0022.4897 1.5717.6321s1.1646.2136 1.7853.2136c1.082 0 1.9049-.2136 2.4686-.6406.5694-.427.8542-1.0479.8542-1.8621 0-.7517-.2649-1.3383-.7944-1.7597-.5239-.427-1.2557-.6406-2.1953-.6406h-1.4863v-1.4181h1.5547c.8485 0 1.4977-.1679 1.9476-.504.4499-.3417.6747-.8315.6747-1.4693 0-.6548-.2335-1.156-.7005-1.5034-.4613-.353-1.1247-.5295-1.9903-.5295-.4727 0-.9795.0513-1.5204.1538-.5411.1025-1.1361.2619-1.7853.4783v-1.5376c.655-.1823 1.2671-.3189 1.8365-.4101.5752-.0911 1.1161-.1366 1.6229-.1366 1.3098 0 2.3461.299 3.1092.8969.7631.5924 1.1446 1.3952 1.1446 2.4089 0 .7062-.2022 1.304-.6065 1.7938-.4043.4841-.9795.8201-1.7254 1.008"/>
</svg>
